/* XPM */
static char * black_xpm[] = {
"18 18 13 1",
" 	c #050302",
".	c #060403",
"+	c #040200",
"@	c #050301",
"#	c #030100",
"$	c #040201",
"%	c #030101",
"&	c #050303",
"*	c #050300",
"=	c #030200",
"-	c #020000",
";	c #040300",
">	c #040301",
" . +@@@@++##++@+@@",
"$@+@@@@@@+$+$+@@@@",
"@+@+@@@@+@+@+@@+@@",
"$++++@@@@@@+@@@@@@",
".%#++@@@@@+@++@@@@",
"&+#++@@@++@*@@@@@@",
" +=++@@@++# $++@@@",
"+++@@@@@++# #++@@@",
"@@@@@@@@@+@-$;+@@@",
"@@@@@@@@@+$++>+@@@",
"@@@@@@@@@@*@@*@@@@",
"@@@@@@@@@@@++@@@@@",
"@@@@@@@@@@@@@@@@@@",
"@@@@@@@@@@@@@@@@@@",
"@@@@@@+*@@@@@@@@@@",
"@@@+@+@@+@@@@+@@@@",
"@@@@@#  $$$@*@@@@@",
"@@@$. .....  +@@@@"};
