/* XPM */
static char * COLLECT_xpm[] = {
"45 45 310 2",
"  	c #131528",
". 	c #1C2036",
"+ 	c #1C2136",
"@ 	c #111325",
"# 	c #2F3855",
"$ 	c #303957",
"% 	c #303956",
"& 	c #242F4F",
"* 	c #27304E",
"= 	c #2C3654",
"- 	c #2C3553",
"; 	c #BDC4DD",
"> 	c #ACB9E6",
", 	c #817F98",
"' 	c #3A405C",
") 	c #313957",
"! 	c #9E9FAA",
"~ 	c #BBB6D6",
"{ 	c #C9A698",
"] 	c #EAAF83",
"^ 	c #875D58",
"/ 	c #524757",
"( 	c #444D6B",
"_ 	c #C7CEEB",
": 	c #C2BDDC",
"< 	c #CD7C51",
"[ 	c #D78F65",
"} 	c #CC7D57",
"| 	c #845553",
"1 	c #353E5B",
"2 	c #474F6F",
"3 	c #9AA7D3",
"4 	c #4C5E85",
"5 	c #D6DCEC",
"6 	c #ADB1D9",
"7 	c #A9655B",
"8 	c #905471",
"9 	c #854184",
"0 	c #2D3755",
"a 	c #253050",
"b 	c #2F3755",
"c 	c #5C6385",
"d 	c #676E93",
"e 	c #6E769D",
"f 	c #54668F",
"g 	c #383F5D",
"h 	c #4B5D85",
"i 	c #A7ADD0",
"j 	c #9B91BB",
"k 	c #8073A5",
"l 	c #5B3C6B",
"m 	c #474D64",
"n 	c #52586E",
"o 	c #4F566D",
"p 	c #7A7B8D",
"q 	c #BABED4",
"r 	c #A3B0E0",
"s 	c #677093",
"t 	c #737890",
"u 	c #A9B3DA",
"v 	c #465171",
"w 	c #313A57",
"x 	c #53446F",
"y 	c #604C78",
"z 	c #3B3F5F",
"A 	c #2D3654",
"B 	c #727582",
"C 	c #ADAEB3",
"D 	c #DCDCE3",
"E 	c #E4ECFF",
"F 	c #BDC2D5",
"G 	c #A8ABC0",
"H 	c #483E5C",
"I 	c #382649",
"J 	c #9496AB",
"K 	c #BFC5DE",
"L 	c #697092",
"M 	c #323755",
"N 	c #4D3A67",
"O 	c #533A6B",
"P 	c #2E3955",
"Q 	c #323A57",
"R 	c #7C7E8F",
"S 	c #E5E6EA",
"T 	c #E2E9FC",
"U 	c #A5A8BB",
"V 	c #747795",
"W 	c #746F8A",
"X 	c #A8ABC3",
"Y 	c #A4A5BD",
"Z 	c #3C2D4F",
"` 	c #727084",
" .	c #504663",
"..	c #413151",
"+.	c #3F3554",
"@.	c #4D3662",
"#.	c #483963",
"$.	c #2F3956",
"%.	c #ADADB4",
"&.	c #F8FAFC",
"*.	c #DBE4FF",
"=.	c #966B8E",
"-.	c #4E3D59",
";.	c #ABADC3",
">.	c #D5DFFC",
",.	c #B1BFEE",
"'.	c #626485",
").	c #3A3554",
"!.	c #383554",
"~.	c #74304A",
"{.	c #AB273A",
"].	c #B92938",
"^.	c #4B3965",
"/.	c #38395A",
"(.	c #626776",
"_.	c #BFBFC4",
":.	c #EEF0F8",
"<.	c #DDCAE0",
"[.	c #D04255",
"}.	c #AF5168",
"|.	c #CBC7E9",
"1.	c #8F84A8",
"2.	c #535F7F",
"3.	c #2B3855",
"4.	c #423451",
"5.	c #902845",
"6.	c #D22E26",
"7.	c #D72B2C",
"8.	c #8C2149",
"9.	c #4E3866",
"0.	c #323956",
"a.	c #2C3555",
"b.	c #D5D4D9",
"c.	c #AA2A3F",
"d.	c #EDE2EC",
"e.	c #C9A9CC",
"f.	c #DC1F1E",
"g.	c #E24B4D",
"h.	c #DB606A",
"i.	c #DF3724",
"j.	c #982332",
"k.	c #9B2432",
"l.	c #A52137",
"m.	c #DE2C26",
"n.	c #E02E23",
"o.	c #AD1E3D",
"p.	c #513255",
"q.	c #4A3965",
"r.	c #2E3855",
"s.	c #6B6B7F",
"t.	c #B0ABB3",
"u.	c #99133A",
"v.	c #D27585",
"w.	c #CF9CBC",
"x.	c #D52326",
"y.	c #D92A29",
"z.	c #E02E20",
"A.	c #D3232C",
"B.	c #D72D2C",
"C.	c #E7301D",
"D.	c #F63F0E",
"E.	c #DC3029",
"F.	c #CE242D",
"G.	c #7C2343",
"H.	c #543564",
"I.	c #3F395E",
"J.	c #8C8B9A",
"K.	c #5C4763",
"L.	c #9B1B3D",
"M.	c #B82441",
"N.	c #D83D49",
"O.	c #EF3915",
"P.	c #D2242D",
"Q.	c #E73720",
"R.	c #F23E15",
"S.	c #CB2233",
"T.	c #D3222C",
"U.	c #EB351B",
"V.	c #DD2F27",
"W.	c #B21E3A",
"X.	c #592A4A",
"Y.	c #653977",
"Z.	c #88889A",
"`.	c #5B4662",
" +	c #B12140",
".+	c #BE213A",
"++	c #D92428",
"@+	c #EB3718",
"#+	c #C42734",
"$+	c #DD2925",
"%+	c #E12F23",
"&+	c #CC2131",
"*+	c #DD2525",
"=+	c #EF3815",
"-+	c #B92036",
";+	c #2D3754",
">+	c #80809A",
",+	c #583D61",
"'+	c #A01B3B",
")+	c #AB2241",
"!+	c #B11F40",
"~+	c #B7203D",
"{+	c #CE2432",
"]+	c #DB2725",
"^+	c #E22C21",
"/+	c #EE3A17",
"(+	c #DC2A28",
"_+	c #B22139",
":+	c #AA2234",
"<+	c #AB1E3E",
"[+	c #572B4A",
"}+	c #2E3755",
"|+	c #6F748E",
"1+	c #9494AD",
"2+	c #611E42",
"3+	c #AC1F3F",
"4+	c #7D1B40",
"5+	c #A61F42",
"6+	c #B21F40",
"7+	c #B42040",
"8+	c #D6252A",
"9+	c #D72429",
"0+	c #B41F3A",
"a+	c #AE1E3C",
"b+	c #7F1F41",
"c+	c #5F356F",
"d+	c #483761",
"e+	c #2A3452",
"f+	c #ACAFC6",
"g+	c #60244D",
"h+	c #961B3D",
"i+	c #A81E3E",
"j+	c #AE1F40",
"k+	c #AC1E40",
"l+	c #AA1E3F",
"m+	c #AF1F40",
"n+	c #9D1C3D",
"o+	c #74173B",
"p+	c #71183D",
"q+	c #6C193C",
"r+	c #571E3B",
"s+	c #5D346A",
"t+	c #363959",
"u+	c #494F69",
"v+	c #7F7F98",
"w+	c #6F4461",
"x+	c #8E193A",
"y+	c #A91E3F",
"z+	c #AF1F3F",
"A+	c #9C1C3E",
"B+	c #8B1A3C",
"C+	c #781A41",
"D+	c #781D46",
"E+	c #692F65",
"F+	c #472344",
"G+	c #4E2F5A",
"H+	c #4B305B",
"I+	c #392A47",
"J+	c #422A47",
"K+	c #323754",
"L+	c #2F3856",
"M+	c #6B6B8F",
"N+	c #5B2040",
"O+	c #611733",
"P+	c #611734",
"Q+	c #5F1733",
"R+	c #702C62",
"S+	c #6B336F",
"T+	c #5F2E65",
"U+	c #422749",
"V+	c #502C5A",
"W+	c #4C325E",
"X+	c #372844",
"Y+	c #452643",
"Z+	c #512644",
"`+	c #492C4A",
" @	c #383D5C",
".@	c #584A75",
"+@	c #372640",
"@@	c #3A223B",
"#@	c #3B182C",
"$@	c #462042",
"%@	c #442141",
"&@	c #3A2440",
"*@	c #4C2C58",
"=@	c #583569",
"-@	c #392846",
";@	c #3F2743",
">@	c #4D2644",
",@	c #542645",
"'@	c #3E3452",
")@	c #424367",
"!@	c #58507D",
"~@	c #5C4C7A",
"{@	c #4A3761",
"]@	c #443056",
"^@	c #49335E",
"/@	c #4B3764",
"(@	c #44365E",
"_@	c #342A45",
":@	c #3C2743",
"<@	c #422744",
"[@	c #3F2E4B",
"}@	c #313856",
"|@	c #2F3955",
"1@	c #333A58",
"2@	c #323A58",
"3@	c #313855",
"4@	c #313653",
"5@	c #323552",
"    . + + + + + + + + + + + + + + + + + + + + + + + + + + + + + + + + + + + + + + + .     ",
"  @ # $ $ $ $ $ $ $ $ $ $ $ $ $ $ $ $ $ $ $ $ $ $ $ $ $ $ $ $ $ $ $ $ $ $ $ $ $ $ $ # @   ",
". # % % % % % % % % % % % % % % % % % % % % % % % % % % % % % % % % % % % % % % % % % # . ",
"+ $ % % % % % % % % % % % % % % % % % % % % % % % % % % % % % % % % % % % % % % % % % $ + ",
"+ $ % % % % % % % % % % % % % % % % % % % % % % % % % % % % % % % % % % % % % % % % % $ + ",
"+ $ % % % % % % % % % % % % % % % % % % % % % % % % % % % % % % % % % % % % % % % % % $ + ",
"+ $ % % % % % % % % % % % % % % % % % % % % % % % % % % % % % % % % % % % % % % % % % $ + ",
"+ $ % % % % % % % % % % % % % % % % % % % % % % % % % % % % % % % % % % % % % % % % % $ + ",
"+ $ % % % % % % % % % % % % % % % % % % % % % % % % % % % % % % % % % % % % % % % % % $ + ",
"+ $ % % % % % % % % % % % % % % % % % % % % % % % % % % % % % % % % % % % % % % % % % $ + ",
"+ $ % % % % % % % % % % % % % % % % % % % % % % % % % % % % & * = % % % % % % % % % % $ + ",
"+ $ % % % % % % % % % % % % % % % % % % % % % % % % % % % - ; > , ' % % % % % % % % % $ + ",
"+ $ % % % % % % % % % % % % % % % % % % % % % % % % % % ) ! ~ { ] ^ / % % % % % % % % $ + ",
"+ $ % % % % % % % % % % % % % % % % % % % % % % % % % % ( _ : < [ } | % % % % % % % % $ + ",
"+ $ % % % % % % % % % % % % % % % % % % % % % % % % 1 2 3 4 5 6 7 8 9 % % % % % % % % $ + ",
"+ $ % % % % % % % % % % % % % % % % % % % % 0 a b c d e f g h i j k l % % % % % % % % $ + ",
"+ $ % % % % % % % % % % % % % % % % % m n o p q r s t u v w % x y z % % % % % % % % % $ + ",
"+ $ % % % % % % % % % % % % % % A B C D E F G H I J K L M # N O P % % % % % % % % % % $ + ",
"+ $ % % % % % % % % % % % % % Q R S T U V W X Y Z `  ...+.@.#.$.% % % % % % % % % % % $ + ",
"+ $ % % % % % % % % % % % % A %.&.*.=.-.;.>.,.'.).!.~.{.].^./.% % % % % % % % % % % % $ + ",
"+ $ % % % % % % % % % % % % (._.:.<.[.}.|.1.2.3.4.5.6.7.8.9.0.% % % % % % % % % % % % $ + ",
"+ $ % % % % % % % % % % % a.b.c.d.e.f.g.h.i.j.k.l.m.n.o.p.q.% % % % % % % % % % % % % $ + ",
"+ $ % % % % % % % % % % r.s.t.u.v.w.x.y.z.A.B.C.D.E.F.G.H.I.% % % % % % % % % % % % % $ + ",
"+ $ % % % % % % % % % % = J.K.L.M.N.O.P.Q.R.S.T.U.V.W.X.Y.P % % % % % % % % % % % % % $ + ",
"+ $ % % % % % % % % % % A Z.`.L. +.+++@+#+$+%+&+*+=+-+X.Y.P % % % % % % % % % % % % % $ + ",
"+ $ % % % % % % % % % % ;+>+,+'+)+!+~+{+]+^+/+(+_+:+<+[+Y.P % % % % % % % % % % % % % $ + ",
"+ $ % % % % % % % % % % }+|+1+2+3+4+5+6+7+8+9+0+<+a+b+c+d+$.% % % % % % % % % % % % % $ + ",
"+ $ % % % % % % % % % % % e+f+g+h+i+j+k+l+m+n+o+p+q+r+s+t+% % % % % % % % % % % % % % $ + ",
"+ $ % % % % % % % % % % % % u+v+w+x+y+z+A+B+C+D+E+F+G+H+I+J+K+% % % % % % % % % % % % $ + ",
"+ $ % % % % % % % % % % % % % L+M+N+O+P+Q+R+S+T+U+V+W+X+Y+Z+`+% % % % % % % % % % % % $ + ",
"+ $ % % % % % % % % % % % % % %  @.@+@@@#@$@%@&@*@=@-@;@>@,@'@% % % % % % % % % % % % $ + ",
"+ $ % % % % % % % % % % % % % % % )@!@~@{@]@^@/@(@_@:@<@[@}@% % % % % % % % % % % % % $ + ",
"+ $ % % % % % % % % % % % % % % % % |@1@2@3@3@% % 4@5@5@% % % % % % % % % % % % % % % $ + ",
"+ $ % % % % % % % % % % % % % % % % % % % % % % % % % % % % % % % % % % % % % % % % % $ + ",
"+ $ % % % % % % % % % % % % % % % % % % % % % % % % % % % % % % % % % % % % % % % % % $ + ",
"+ $ % % % % % % % % % % % % % % % % % % % % % % % % % % % % % % % % % % % % % % % % % $ + ",
"+ $ % % % % % % % % % % % % % % % % % % % % % % % % % % % % % % % % % % % % % % % % % $ + ",
"+ $ % % % % % % % % % % % % % % % % % % % % % % % % % % % % % % % % % % % % % % % % % $ + ",
"+ $ % % % % % % % % % % % % % % % % % % % % % % % % % % % % % % % % % % % % % % % % % $ + ",
"+ $ % % % % % % % % % % % % % % % % % % % % % % % % % % % % % % % % % % % % % % % % % $ + ",
"+ $ % % % % % % % % % % % % % % % % % % % % % % % % % % % % % % % % % % % % % % % % % $ + ",
"+ $ % % % % % % % % % % % % % % % % % % % % % % % % % % % % % % % % % % % % % % % % % $ + ",
". # % % % % % % % % % % % % % % % % % % % % % % % % % % % % % % % % % % % % % % % % % # . ",
"  @ # $ $ $ $ $ $ $ $ $ $ $ $ $ $ $ $ $ $ $ $ $ $ $ $ $ $ $ $ $ $ $ $ $ $ $ $ $ $ $ # @   ",
"    . + + + + + + + + + + + + + + + + + + + + + + + + + + + + + + + + + + + + + + + .     "};
