/* XPM */
static char * MORTYA_xpm[] = {
"45 45 684 2",
"  	c #1A1C2C",
". 	c #212538",
"+ 	c #212639",
"@ 	c #191A2A",
"# 	c #323B56",
"$ 	c #333C58",
"% 	c #363E59",
"& 	c #474D63",
"* 	c #4D5266",
"= 	c #38405A",
"- 	c #333C57",
"; 	c #363E58",
"> 	c #515563",
", 	c #33353E",
"' 	c #23242B",
") 	c #4E535F",
"! 	c #3C435C",
"~ 	c #4C5164",
"{ 	c #27272E",
"] 	c #A17976",
"^ 	c #B28984",
"/ 	c #181821",
"( 	c #525469",
"_ 	c #535766",
": 	c #231518",
"< 	c #F3AFA9",
"[ 	c #E6A79F",
"} 	c #0D070E",
"| 	c #545869",
"1 	c #505363",
"2 	c #301F20",
"3 	c #F9B4AB",
"4 	c #E8A79E",
"5 	c #0C070E",
"6 	c #535869",
"7 	c #525665",
"8 	c #25191A",
"9 	c #F8B5AA",
"0 	c #E2A399",
"a 	c #110E15",
"b 	c #525768",
"c 	c #4D5465",
"d 	c #454C61",
"e 	c #535768",
"f 	c #160F14",
"g 	c #E4A79D",
"h 	c #DA9C94",
"i 	c #1D1C24",
"j 	c #4D5265",
"k 	c #505567",
"l 	c #282931",
"m 	c #241B1C",
"n 	c #494B56",
"o 	c #3C445C",
"p 	c #4C5265",
"q 	c #2C2D33",
"r 	c #CB968E",
"s 	c #D59994",
"t 	c #2B2B33",
"u 	c #4A4F63",
"v 	c #4B4F59",
"w 	c #6F5855",
"x 	c #C89B96",
"y 	c #1B181E",
"z 	c #515566",
"A 	c #3F465E",
"B 	c #3D4048",
"C 	c #B07F79",
"D 	c #D39894",
"E 	c #36363D",
"F 	c #474D62",
"G 	c #42454E",
"H 	c #A47C74",
"I 	c #F8B4AA",
"J 	c #24191A",
"K 	c #42485F",
"L 	c #55596A",
"M 	c #505569",
"N 	c #39415A",
"O 	c #353E58",
"P 	c #484A53",
"Q 	c #AB7C78",
"R 	c #D39995",
"S 	c #464C62",
"T 	c #A47D76",
"U 	c #EFAEA4",
"V 	c #1A1215",
"W 	c #545968",
"X 	c #505566",
"Y 	c #4E525E",
"Z 	c #3E3F47",
"` 	c #16171F",
" .	c #0B0C17",
"..	c #080911",
"+.	c #1B1D25",
"@.	c #43464E",
"#.	c #50525F",
"$.	c #585C6B",
"%.	c #484B56",
"&.	c #3B435B",
"*.	c #454750",
"=.	c #AC7E7A",
"-.	c #D59C97",
";.	c #232229",
">.	c #4D5366",
",.	c #4B4E58",
"'.	c #92726B",
").	c #DAA099",
"!.	c #1E1C24",
"~.	c #4D5365",
"{.	c #484E62",
"].	c #4C4F5B",
"^.	c #1A1A21",
"/.	c #25150F",
"(.	c #4C2E20",
"_.	c #6A3F29",
":.	c #724129",
"<.	c #76462E",
"[.	c #683D29",
"}.	c #4F3023",
"|.	c #141419",
"1.	c #030404",
"2.	c #44464E",
"3.	c #595D6D",
"4.	c #3C3E45",
"5.	c #B3837B",
"6.	c #E9ADA5",
"7.	c #12090E",
"8.	c #4D4F5C",
"9.	c #755852",
"0.	c #D29E99",
"a.	c #303038",
"b.	c #494F64",
"c.	c #4A5064",
"d.	c #41424B",
"e.	c #20130E",
"f.	c #663828",
"g.	c #7B492E",
"h.	c #7E482D",
"i.	c #7F472F",
"j.	c #81462F",
"k.	c #7F482E",
"l.	c #81462D",
"m.	c #82462D",
"n.	c #7D472F",
"o.	c #643825",
"p.	c #3F2820",
"q.	c #040102",
"r.	c #2E2F34",
"s.	c #2A2A2E",
"t.	c #C99891",
"u.	c #F5B5B1",
"v.	c #3B2928",
"w.	c #535864",
"x.	c #3B425B",
"y.	c #4D4F5B",
"z.	c #735651",
"A.	c #D69E9A",
"B.	c #26252D",
"C.	c #484F62",
"D.	c #454850",
"E.	c #1B0B0A",
"F.	c #74412F",
"G.	c #80472F",
"H.	c #7D452F",
"I.	c #81462B",
"J.	c #82462B",
"K.	c #7F4829",
"L.	c #80472C",
"M.	c #7F472C",
"N.	c #6F432E",
"O.	c #58382F",
"P.	c #140905",
"Q.	c #0C0405",
"R.	c #B68C8A",
"S.	c #735A54",
"T.	c #62564F",
"U.	c #221D21",
"V.	c #525462",
"W.	c #4B4D58",
"X.	c #94716C",
"Y.	c #E5A59E",
"Z.	c #170F15",
"`.	c #555969",
" +	c #444B60",
".+	c #45474F",
"++	c #23150F",
"@+	c #6F422C",
"#+	c #83462D",
"$+	c #633925",
"%+	c #543B37",
"&+	c #563124",
"*+	c #7C4930",
"=+	c #81462E",
"-+	c #81462C",
";+	c #81472B",
">+	c #80472A",
",+	c #80482C",
"'+	c #824532",
")+	c #472C1E",
"!+	c #191212",
"~+	c #6B5B58",
"{+	c #E5CFB9",
"]+	c #FDE0CC",
"^+	c #C2B1A1",
"/+	c #16191F",
"(+	c #5B606E",
"_+	c #393B44",
":+	c #B98680",
"<+	c #F6B5A8",
"[+	c #221618",
"}+	c #464C61",
"|+	c #50535E",
"1+	c #231110",
"2+	c #734031",
"3+	c #7E4927",
"4+	c #7E462F",
"5+	c #513834",
"6+	c #EDB2A7",
"7+	c #97726C",
"8+	c #663E23",
"9+	c #82472E",
"0+	c #80462E",
"a+	c #82462C",
"b+	c #80472B",
"c+	c #82462A",
"d+	c #6F4330",
"e+	c #3A2F2E",
"f+	c #71625E",
"g+	c #FADCC4",
"h+	c #FEE1C1",
"i+	c #FBDDC5",
"j+	c #5D564D",
"k+	c #60636B",
"l+	c #161118",
"m+	c #E1A298",
"n+	c #F7B5AA",
"o+	c #271A1B",
"p+	c #4F5363",
"q+	c #4E5364",
"r+	c #383A41",
"s+	c #1A191D",
"t+	c #5F3927",
"u+	c #82472B",
"v+	c #804635",
"w+	c #492E26",
"x+	c #F1B2A4",
"y+	c #E2A19E",
"z+	c #472D22",
"A+	c #71432E",
"B+	c #6A3F2A",
"C+	c #6F402B",
"D+	c #7A482F",
"E+	c #7A4B2A",
"F+	c #834430",
"G+	c #523026",
"H+	c #231A17",
"I+	c #E6D0BA",
"J+	c #FEDFC5",
"K+	c #FCE0C7",
"L+	c #7E726A",
"M+	c #323136",
"N+	c #6C4F4E",
"O+	c #FBB4A8",
"P+	c #E5A49D",
"Q+	c #181118",
"R+	c #535868",
"S+	c #505563",
"T+	c #0C0909",
"U+	c #502F22",
"V+	c #7E462E",
"W+	c #7F472B",
"X+	c #83462C",
"Y+	c #53321F",
"Z+	c #CF9997",
"`+	c #FAB5A7",
" @	c #523E3A",
".@	c #8A7D70",
"+@	c #B19D8B",
"@@	c #A69181",
"#@	c #74675C",
"$@	c #4E3D33",
"%@	c #593220",
"&@	c #663D2D",
"*@	c #4B2E1E",
"=@	c #5E524D",
"-@	c #41342E",
";@	c #000000",
">@	c #CEB8A3",
",@	c #FDE0C7",
"'@	c #FADEC6",
")@	c #6D6159",
"!@	c #040202",
"~@	c #927370",
"{@	c #F0ACA6",
"]@	c #BE8E8A",
"^@	c #34353C",
"/@	c #484D62",
"(@	c #535968",
"_@	c #16151A",
":@	c #71412E",
"<@	c #7D482D",
"[@	c #7E482E",
"}@	c #6C3F2D",
"|@	c #372720",
"1@	c #AE7E7C",
"2@	c #F9B5AE",
"3@	c #796760",
"4@	c #FDE1C6",
"5@	c #FEDFC6",
"6@	c #FDE0C6",
"7@	c #FEE0C7",
"8@	c #F1D6C0",
"9@	c #AFA092",
"0@	c #5F544B",
"a@	c #DCC5B1",
"b@	c #F5DEC6",
"c@	c #EFD6C1",
"d@	c #908177",
"e@	c #BCAA99",
"f@	c #FEE0C3",
"g@	c #F2D9C2",
"h@	c #26221D",
"i@	c #86746C",
"j@	c #B2A292",
"k@	c #71615A",
"l@	c #544645",
"m@	c #4C4E59",
"n@	c #3E455D",
"o@	c #515461",
"p@	c #0E0D13",
"q@	c #5B3426",
"r@	c #81452E",
"s@	c #5C351F",
"t@	c #7B7165",
"u@	c #B0A293",
"v@	c #B8867F",
"w@	c #F8B2AC",
"x@	c #71645A",
"y@	c #F5DAC7",
"z@	c #FBDFC2",
"A@	c #E4CDBD",
"B@	c #F0D3B9",
"C@	c #F6DBC4",
"D@	c #77685F",
"E@	c #E7D1BF",
"F@	c #FEE0C5",
"G@	c #FFE0C2",
"H@	c #FFDFC7",
"I@	c #F2D9C5",
"J@	c #776B60",
"K@	c #FAE0C8",
"L@	c #BBA795",
"M@	c #9B8C82",
"N@	c #FDDEC5",
"O@	c #FCE2BF",
"P@	c #EBD0C1",
"Q@	c #39302D",
"R@	c #555865",
"S@	c #444A60",
"T@	c #383C42",
"U@	c #170E07",
"V@	c #70412E",
"W@	c #7A4730",
"X@	c #502F23",
"Y@	c #AB9A8B",
"Z@	c #E6D1BA",
"`@	c #75645A",
" #	c #E9B4A7",
".#	c #DBA69A",
"+#	c #96837A",
"@#	c #DFC9B6",
"##	c #CAB7AD",
"$#	c #EDCEBE",
"%#	c #FCDFC3",
"&#	c #AFA08B",
"*#	c #C1B09F",
"=#	c #FDDFC6",
"-#	c #FEE0C4",
";#	c #FDE1C4",
">#	c #FEDFC7",
",#	c #8A7B6E",
"'#	c #C4B7AB",
")#	c #3A312B",
"!#	c #DCC6B1",
"~#	c #FDE0C3",
"{#	c #FDE1BF",
"]#	c #FCE1C8",
"^#	c #73655E",
"/#	c #4A4E5B",
"(#	c #525668",
"_#	c #3A3D45",
":#	c #12090C",
"<#	c #140603",
"[#	c #A7998E",
"}#	c #FDE0C5",
"|#	c #948274",
"1#	c #D8BDAC",
"2#	c #FED4BD",
"3#	c #BA9C8B",
"4#	c #D6BCAB",
"5#	c #FDE1C5",
"6#	c #DCC3B4",
"7#	c #FCDFC5",
"8#	c #E0CCBE",
"9#	c #7C6D62",
"0#	c #FADEC4",
"a#	c #FFDFC3",
"b#	c #FFE0C3",
"c#	c #F3D7BB",
"d#	c #53483D",
"e#	c #171615",
"f#	c #564D45",
"g#	c #F9DEC3",
"h#	c #FEDEC8",
"i#	c #F7DCC2",
"j#	c #504942",
"k#	c #505562",
"l#	c #464D62",
"m#	c #575B6A",
"n#	c #C8B5A5",
"o#	c #FEDFC3",
"p#	c #E1CBB4",
"q#	c #EED8C6",
"r#	c #D0BBAA",
"s#	c #E2CCBB",
"t#	c #FBE0CA",
"u#	c #B9A598",
"v#	c #918176",
"w#	c #7E6E61",
"x#	c #E7CFB8",
"y#	c #FDE1C3",
"z#	c #FFE0C4",
"A#	c #A18F80",
"B#	c #010104",
"C#	c #010101",
"D#	c #B4A492",
"E#	c #FEE0C2",
"F#	c #FEE1C3",
"G#	c #CBB8A5",
"H#	c #1B1C24",
"I#	c #505767",
"J#	c #41444B",
"K#	c #B9A695",
"L#	c #FDDFC5",
"M#	c #BEAD99",
"N#	c #7C7976",
"O#	c #BEBEBD",
"P#	c #8D8C89",
"Q#	c #B1A093",
"R#	c #E8D0BC",
"S#	c #7C7369",
"T#	c #E3D0BA",
"U#	c #FCE0C4",
"V#	c #FEE0C6",
"W#	c #EFD6BF",
"X#	c #BCA998",
"Y#	c #4C4440",
"Z#	c #242121",
"`#	c #5A504A",
" $	c #F2D9C3",
".$	c #FFDFC0",
"+$	c #F0D6BD",
"@$	c #544D46",
"#$	c #4D505B",
"$$	c #4C4F59",
"%$	c #867A6E",
"&$	c #CEBCA9",
"*$	c #979B9C",
"=$	c #F9FBF8",
"-$	c #FEFFFE",
";$	c #FDFDFD",
">$	c #999897",
",$	c #908881",
"'$	c #A69A8D",
")$	c #F6D8C0",
"!$	c #FCE2C8",
"~$	c #FCE1C6",
"{$	c #E5D0BE",
"]$	c #73685E",
"^$	c #C3B5A9",
"/$	c #D8C5B0",
"($	c #9F8F7F",
"_$	c #B09D8F",
":$	c #FDDFC9",
"<$	c #F2DAC4",
"[$	c #817366",
"}$	c #393C44",
"|$	c #515665",
"1$	c #252221",
"2$	c #6B625D",
"3$	c #EDEEEC",
"4$	c #FEFEFC",
"5$	c #FEFFFF",
"6$	c #F4F5F5",
"7$	c #696968",
"8$	c #231E1B",
"9$	c #4A443F",
"0$	c #736861",
"a$	c #DCC7AE",
"b$	c #FEDEC4",
"c$	c #F7DEC9",
"d$	c #81756A",
"e$	c #E0CBBA",
"f$	c #FDE0C4",
"g$	c #F3DCC6",
"h$	c #817469",
"i$	c #E4CCB5",
"j$	c #70655C",
"k$	c #353740",
"l$	c #505466",
"m$	c #454B61",
"n$	c #3B3E46",
"o$	c #383838",
"p$	c #F6F6F6",
"q$	c #FEFDFC",
"r$	c #FCFDFE",
"s$	c #A1A1A1",
"t$	c #74625A",
"u$	c #342D2A",
"v$	c #E3CCB3",
"w$	c #DFC8B4",
"x$	c #9E9081",
"y$	c #A09186",
"z$	c #BFAD9A",
"A$	c #FFDFC6",
"B$	c #D9C6B6",
"C$	c #756C65",
"D$	c #998E83",
"E$	c #211C19",
"F$	c #43454E",
"G$	c #4F5466",
"H$	c #525766",
"I$	c #18191F",
"J$	c #C8C8C8",
"K$	c #FDFEFC",
"L$	c #E5E9E9",
"M$	c #534543",
"N$	c #6E554B",
"O$	c #4C463F",
"P$	c #DBC8B3",
"Q$	c #C8B39F",
"R$	c #B5A594",
"S$	c #FFDEC3",
"T$	c #EDD4BD",
"U$	c #AF9A8B",
"V$	c #FADDC3",
"W$	c #83766C",
"X$	c #030102",
"Y$	c #1F2228",
"Z$	c #545866",
"`$	c #41485F",
" %	c #525561",
".%	c #252627",
"+%	c #ADADAE",
"@%	c #989796",
"#%	c #3A312C",
"$%	c #584F4A",
"%%	c #D3C3B8",
"&%	c #857C71",
"*%	c #A39487",
"=%	c #E9D5BF",
"-%	c #FEDFC4",
";%	c #FEDEC7",
">%	c #EFD5BF",
",%	c #F8DEC3",
"'%	c #F6D9C1",
")%	c #9E8D80",
"!%	c #020205",
"~%	c #373942",
"{%	c #4E5467",
"]%	c #282A30",
"^%	c #837D7B",
"/%	c #464241",
"(%	c #7D7D78",
"_%	c #69635F",
":%	c #3D3633",
"<%	c #595148",
"[%	c #E3CFC0",
"}%	c #FCE0C3",
"|%	c #C9B4A2",
"1%	c #363129",
"2%	c #70644E",
"3%	c #544A40",
"4%	c #515564",
"5%	c #484E63",
"6%	c #060911",
"7%	c #35363D",
"8%	c #38393F",
"9%	c #070912",
"0%	c #020305",
"a%	c #2D251C",
"b%	c #54483B",
"c%	c #7F7366",
"d%	c #84786D",
"e%	c #7E7569",
"f%	c #8E7D5D",
"g%	c #625B40",
"h%	c #EFD684",
"i%	c #B29D68",
"j%	c #393B43",
"k%	c #434A60",
"l%	c #3D445C",
"m%	c #43495F",
"n%	c #494B52",
"o%	c #574C2D",
"p%	c #B59D60",
"q%	c #8E7E52",
"r%	c #443B27",
"s%	c #525043",
"t%	c #4A432F",
"u%	c #72613E",
"v%	c #EAD07B",
"w%	c #D1BB77",
"x%	c #222228",
"y%	c #4E5366",
"z%	c #4B4D57",
"A%	c #48392B",
"B%	c #A68A5A",
"C%	c #D1C077",
"D%	c #8C8353",
"E%	c #D0BCB2",
"F%	c #6F6849",
"G%	c #CCB576",
"H%	c #C2A969",
"I%	c #9A8C5A",
"J%	c #16171C",
"K%	c #4F525F",
"L%	c #0F1013",
"M%	c #182126",
"N%	c #1D1B21",
"O%	c #CAB8AB",
"P%	c #1F242A",
"Q%	c #1C2F40",
"R%	c #060C12",
"S%	c #2E3038",
"T%	c #464953",
"U%	c #42495F",
"V%	c #505467",
"W%	c #464952",
"X%	c #0B0E15",
"Y%	c #47403A",
"Z%	c #E7D0B9",
"`%	c #303139",
" &	c #1B2837",
".&	c #2C2C33",
"+&	c #3D455D",
"@&	c #4F5460",
"#&	c #080A13",
"$&	c #22262E",
"%&	c #625C58",
"&&	c #232833",
"*&	c #141C26",
"=&	c #50515B",
"-&	c #525767",
";&	c #14181E",
">&	c #29384C",
",&	c #2A405B",
"'&	c #2B435B",
")&	c #0F1A26",
"!&	c #51535F",
"~&	c #565867",
"{&	c #28282D",
"]&	c #0A1622",
"^&	c #192736",
"/&	c #232C37",
"(&	c #090C12",
"_&	c #535563",
":&	c #40475E",
"<&	c #3F4149",
"[&	c #373636",
"}&	c #B4B3B2",
"|&	c #B1B1AF",
"1&	c #B2B0AF",
"2&	c #272424",
"3&	c #515562",
"4&	c #41444A",
"5&	c #3A3D43",
"6&	c #42444A",
"7&	c #3F4147",
"8&	c #41434B",
"9&	c #3F475E",
"0&	c #3F465D",
"a&	c #3A425B",
"    . + + + + + + + + + + + + + + + + + + + + + + + + + + + + + + + + + + + + + + + .     ",
"  @ # $ $ $ $ $ $ $ $ $ $ $ $ $ $ $ $ $ $ $ $ $ $ $ % & * = $ $ $ $ $ $ $ $ $ $ $ $ # @   ",
". # - - - - - - - - - - - - - - - - - - - - - - - ; > , ' ) ! - - - - - - - - - - - - # . ",
"+ $ - - - - - - - - - - - - - - - - - - - - - - - ~ { ] ^ / ( - - - - - - - - - - - - $ + ",
"+ $ - - - - - - - - - - - - - - - - - - - - - - - _ : < [ } | - - - - - - - - - - - - $ + ",
"+ $ - - - - - - - - - - - - - - - - - - - - - - - 1 2 3 4 5 6 - - - - - - - - - - - - $ + ",
"+ $ - - - - - - - - - - - - - - - - - - - - - - - 7 8 9 0 a b - - % * c d - - - - - - $ + ",
"+ $ - - - - - - - - - - - - - - - - - - - - - - - e f g h i j - - k l m n o - - - - - $ + ",
"+ $ - - - - - - - - - - - - - - - - - - - - - - - p q r s t u - % v w x y z - - - - - $ + ",
"+ $ - - - - - - - - - - - - - - - - - - - - - - - A B C D E F - = G H I J 7 - - - - - $ + ",
"+ $ - - - - - - - - - - - - - K k L | M N - - O - N P Q R E S - = G T U V W - - - - - $ + ",
"+ $ - - - - - - - - - - = X Y Z `  ...+.@.#.$.%.z &.*.=.-.;.>.- ; ,.'.).!.~.- - - - - $ + ",
"+ $ - - - - - - - - - {.].^./.(._.:.<.[.}./.|.1.2.3.4.5.6.7.b - - 8.9.0.a.b.- - - - - $ + ",
"+ $ - - - - - - - - c.d.e.f.g.h.i.j.k.l.m.n.o.p.q.r.s.t.u.v.w.x.- y.z.A.B.p - - - - - $ + ",
"+ $ - - - - - - - C.D.E.F.G.H.I.J.K.L.L.L.M.L.N.O.P.Q.R.S.T.U.V.o W.X.Y.Z.`.- - - - - $ + ",
"+ $ - - - - - -  +.+++@+#+$+%+&+*+=+-+;+L.M.>+,+'+)+!+~+{+]+^+/+(+_+:+<+[+7 - - - - - $ + ",
"+ $ - - - - - }+|+1+2+3+4+5+6+7+8+9+G.0+l.a+M.b+c+d+e+f+g+h+i+j+k+l+m+n+o+p+- - - - - $ + ",
"+ $ - - - - q+r+s+t+u+L.v+w+x+y+z+A+B+C+D+h.M.-+E+F+G+H+I+J+K+L+M+N+O+P+Q+R+- - - - - $ + ",
"+ $ - - - - S+T+U+V+W+X+j.Y+Z+`+ @.@+@@@#@$@%@&@*@=@-@;@>@,@'@)@!@~@{@]@^@/@- - - - - $ + ",
"+ $ - - - - (@_@:@L.<@[@}@|@1@2@3@4@5@6@7@8@9@0@a@b@c@d@e@f@g@h@i@j@k@l@m@% - - - - - $ + ",
"+ $ - - - n@o@p@q@r@c+s@t@u@v@w@x@y@z@A@B@C@D@E@F@G@H@I@J@K@L@M@N@O@P@Q@R@- - - - - - $ + ",
"+ $ - - - S@T@U@V@W@X@Y@Z@`@ #.#+#@###$#%#&#*#=#-#;#>#J+,#'#)#!#~#{#]#^#/#- - - - - - $ + ",
"+ $ - - - - (#_#:#<#[#}#|#1#2#3#4#5#6#7#8#9#0#a#-#;#b#c#d#e#f#g#h#6@i#j#k#- - - - - - $ + ",
"+ $ - - - - - l#m#t n#o#p#q#r#s#t#J+u#v#w#x#y#z#a#a#F@A#B#C#D#f@E#F#G#H#I#- - - - - - $ + ",
"+ $ - - - - - - n@J#K#L#M#N#O#P#Q#R#S#T#U#J+J+a#V#W#X#Y#Z#`# $-#.$+$@$#$= - - - - - - $ + ",
"+ $ - - - - - - - $$%$&$*$=$-$;$>$,$'$)$!$~$.$6@{$]$^$/$($_$:$=#<$[$}$c.- - - - - - - $ + ",
"+ $ - - - - - - - |$1$2$3$4$5$6$7$8$9$0$a$;#b$c$d$e$o#f$g$h$;#i$j$k$l$- - - - - - - - $ + ",
"+ $ - - - - - - - m$n$o$p$q$r$s$t$u$v$w$x$b$7#y$z$A$a#}#B$C$D$E$F$G$- - - - - - - - - $ + ",
"+ $ - - - - - - - - H$I$J$K$L$M$N$O$P$Q$R$S$T$U$%#-#,@V$W$X$Y$Z$`$- - - - - - - - - - $ + ",
"+ $ - - - - - - - - =  %.%+%@%#%$%%%&%*%=%7@-%;%>%,%'%)%!%~%H$% - - - - - - - - - - - $ + ",
"+ $ - - - - - - - - - {%]%^%/%(%_%:%<%[%f$=#}%|%1%2%3%]%4%5%- - - - - - - - - - - - - $ + ",
"+ $ - - - - - - - - - N |+6%7%8%9%0%a%b%c%d%e%f%g%h%i%j%k%- - - - - - - - - - - - - - $ + ",
"+ $ - - - - - - - - - - l%z 5%m%L n%o%p%q%r%s%t%u%v%w%x%y%- - - - - - - - - - - - - - $ + ",
"+ $ - - - - - - - - - - - - - - % z%A%B%C%D%E%F%G%H%I%J%G$- - - - - - - - - - - - - - $ + ",
"+ $ - - - - - - - - - - - - - - - K%{ L%M%N%O%P%Q%R%S%T%U%- - - - - - - - - - - - - - $ + ",
"+ $ - - - - - - - - - - - - - - - &.V%W%X%Y%Z%`% &.&`.+&- - - - - - - - - - - - - - - $ + ",
"+ $ - - - - - - - - - - - - - - - - - @&#&$&%&&&*&=&- - - - - - - - - - - - - - - - - $ + ",
"+ $ - - - - - - - - - - - - - - - - - -&;&>&,&'&)&!&- - - - - - - - - - - - - - - - - $ + ",
"+ $ - - - - - - - - - - - - - - - - - ~&{&]&^&/&(&_&- - - - - - - - - - - - - - - - - $ + ",
"+ $ - - - - - - - - - - - - - - - - :&<&[&}&|&1&2&3&- - - - - - - - - - - - - - - - - $ + ",
"+ $ - - - - - - - - - - - - - - - - = K%4&5&6&7&8&c - - - - - - - - - - - - - - - - - $ + ",
"+ $ - - - - - - - - - - - - - - - - - O o 9&o 0&a&- - - - - - - - - - - - - - - - - - $ + ",
". # - - - - - - - - - - - - - - - - - - - - - - - - - - - - - - - - - - - - - - - - - # . ",
"  @ # $ $ $ $ $ $ $ $ $ $ $ $ $ $ $ $ $ $ $ $ $ $ $ $ $ $ $ $ $ $ $ $ $ $ $ $ $ $ $ # @   ",
"    . + + + + + + + + + + + + + + + + + + + + + + + + + + + + + + + + + + + + + + + .     "};
