/* XPM */
static char * MORTYD_xpm[] = {
"45 45 677 2",
"  	c #1A1C2C",
". 	c #212538",
"+ 	c #212639",
"@ 	c #191A2A",
"# 	c #323B56",
"$ 	c #333C58",
"% 	c #38405B",
"& 	c #4C5266",
"* 	c #474D63",
"= 	c #333C57",
"- 	c #3C435C",
"; 	c #4E535F",
"> 	c #22232B",
", 	c #33363E",
"' 	c #515564",
") 	c #363E58",
"! 	c #525468",
"~ 	c #181820",
"{ 	c #B28984",
"] 	c #A17976",
"^ 	c #27272E",
"/ 	c #4D5365",
"( 	c #535869",
"_ 	c #0D070E",
": 	c #E6A79D",
"< 	c #F3AFA8",
"[ 	c #231518",
"} 	c #525666",
"| 	c #0C070E",
"1 	c #E8A69E",
"2 	c #F9B4AB",
"3 	c #301F20",
"4 	c #505363",
"5 	c #444C61",
"6 	c #4E5366",
"7 	c #363E59",
"8 	c #525768",
"9 	c #100E15",
"0 	c #E2A29A",
"a 	c #F8B4AB",
"b 	c #25191A",
"c 	c #525565",
"d 	c #3C445C",
"e 	c #494B56",
"f 	c #241B1C",
"g 	c #282931",
"h 	c #505567",
"i 	c #4D5265",
"j 	c #1D1C24",
"k 	c #DA9C94",
"l 	c #E4A79D",
"m 	c #160F14",
"n 	c #535768",
"o 	c #515667",
"p 	c #1B181E",
"q 	c #C89B96",
"r 	c #6F5855",
"s 	c #4B4F59",
"t 	c #4A4F63",
"u 	c #2B2B33",
"v 	c #D59993",
"w 	c #CB968E",
"x 	c #2C2C32",
"y 	c #4A5063",
"z 	c #525665",
"A 	c #F8B4A9",
"B 	c #A47C74",
"C 	c #44464F",
"D 	c #3B435B",
"E 	c #464C61",
"F 	c #35363C",
"G 	c #D49891",
"H 	c #B07F78",
"I 	c #3D4048",
"J 	c #3D445C",
"K 	c #545867",
"L 	c #1B1115",
"M 	c #EFAEA3",
"N 	c #A47D75",
"O 	c #43464F",
"P 	c #3B425B",
"Q 	c #36363C",
"R 	c #D39992",
"S 	c #AB7C76",
"T 	c #484A53",
"U 	c #38415A",
"V 	c #353E58",
"W 	c #39415A",
"X 	c #4F5469",
"Y 	c #535769",
"Z 	c #55596A",
"` 	c #42495F",
" .	c #4E5365",
"..	c #1F1C24",
"+.	c #DAA097",
"@.	c #92726B",
"#.	c #4C4E58",
"$.	c #4C5164",
"%.	c #232229",
"&.	c #D59C94",
"*.	c #AC7F78",
"=.	c #454851",
"-.	c #4F5465",
";.	c #484B56",
">.	c #585C6B",
",.	c #4F525F",
"'.	c #43474F",
").	c #1B1D25",
"!.	c #080811",
"~.	c #0B0C17",
"{.	c #16171F",
"].	c #3E3F47",
"^.	c #4F525D",
"/.	c #505566",
"(.	c #4A5064",
"_.	c #303038",
":.	c #D29E97",
"<.	c #755851",
"[.	c #4E505B",
"}.	c #525766",
"|.	c #12080E",
"1.	c #E9ADA3",
"2.	c #B48379",
"3.	c #3C3E45",
"4.	c #585C6C",
"5.	c #43454D",
"6.	c #030404",
"7.	c #141418",
"8.	c #25150F",
"9.	c #4F3023",
"0.	c #683D29",
"a.	c #76462E",
"b.	c #72412A",
"c.	c #6A3E29",
"d.	c #4C2E20",
"e.	c #25150E",
"f.	c #1A1A20",
"g.	c #4C4F5B",
"h.	c #484E62",
"i.	c #26252D",
"j.	c #D69E9A",
"k.	c #735651",
"l.	c #4E505C",
"m.	c #535863",
"n.	c #3C2829",
"o.	c #F7B4B2",
"p.	c #CB9890",
"q.	c #2A2A2E",
"r.	c #2E2F34",
"s.	c #040204",
"t.	c #3F2820",
"u.	c #643825",
"v.	c #7D472F",
"w.	c #82462D",
"x.	c #81462C",
"y.	c #7F482E",
"z.	c #81462F",
"A.	c #7F472F",
"B.	c #7E482D",
"C.	c #7B492D",
"D.	c #663827",
"E.	c #20130D",
"F.	c #40424B",
"G.	c #4B5064",
"H.	c #545869",
"I.	c #170F16",
"J.	c #E4A59E",
"K.	c #94716C",
"L.	c #505461",
"M.	c #221D22",
"N.	c #62574F",
"O.	c #745A55",
"P.	c #B68C89",
"Q.	c #0D0405",
"R.	c #150905",
"S.	c #57382F",
"T.	c #6F432E",
"U.	c #80472C",
"V.	c #7F472C",
"W.	c #7F4829",
"X.	c #82462B",
"Y.	c #81462B",
"Z.	c #7D452F",
"`.	c #80482D",
" +	c #73422E",
".+	c #1B0B0A",
"++	c #494F62",
"@+	c #231618",
"#+	c #F7B4A8",
"$+	c #BA8680",
"%+	c #393B44",
"&+	c #5A5F6D",
"*+	c #161A1F",
"=+	c #C2B0A3",
"-+	c #FDE0CA",
";+	c #E4CFBB",
">+	c #6A5C59",
",+	c #181213",
"'+	c #472C1E",
")+	c #824532",
"!+	c #7F482C",
"~+	c #80482A",
"{+	c #81472B",
"]+	c #81462E",
"^+	c #7C4930",
"/+	c #563124",
"(+	c #543B37",
"_+	c #633924",
":+	c #82462C",
"<+	c #6F422C",
"[+	c #24150F",
"}+	c #45474F",
"|+	c #444B60",
"1+	c #505463",
"2+	c #271A1B",
"3+	c #F8B5AA",
"4+	c #E2A298",
"5+	c #161118",
"6+	c #60636B",
"7+	c #5D564D",
"8+	c #FBDCC8",
"9+	c #FEE1BF",
"0+	c #FADCC5",
"a+	c #71625E",
"b+	c #39302F",
"c+	c #6F4330",
"d+	c #83462A",
"e+	c #81462D",
"f+	c #80462E",
"g+	c #80472F",
"h+	c #82472E",
"i+	c #663E23",
"j+	c #97726C",
"k+	c #EDB2A7",
"l+	c #503834",
"m+	c #7D472E",
"n+	c #7D4927",
"o+	c #734031",
"p+	c #241111",
"q+	c #51535E",
"r+	c #181118",
"s+	c #E4A59D",
"t+	c #FBB4A8",
"u+	c #6C504E",
"v+	c #323135",
"w+	c #7E7269",
"x+	c #FCE0CA",
"y+	c #FEDFC3",
"z+	c #E7D0BC",
"A+	c #241917",
"B+	c #513026",
"C+	c #824430",
"D+	c #7B4B2A",
"E+	c #83462C",
"F+	c #7E472D",
"G+	c #7A4830",
"H+	c #6E402B",
"I+	c #6A3E2A",
"J+	c #71432F",
"K+	c #472D22",
"L+	c #E2A19E",
"M+	c #F1B2A4",
"N+	c #482E25",
"O+	c #7F4634",
"P+	c #603828",
"Q+	c #1A1A1D",
"R+	c #383A42",
"S+	c #505466",
"T+	c #484D62",
"U+	c #34353D",
"V+	c #BC8F8A",
"W+	c #EFADA6",
"X+	c #927470",
"Y+	c #040202",
"Z+	c #6D6158",
"`+	c #FBDEC5",
" @	c #FEE0C5",
".@	c #CFB8A2",
"+@	c #010000",
"@@	c #41342E",
"#@	c #5E524D",
"$@	c #4B2E1E",
"%@	c #663D2D",
"&@	c #5A3220",
"*@	c #4E3D33",
"=@	c #73675C",
"-@	c #A59182",
";@	c #B19C8C",
">@	c #8A7D71",
",@	c #523E3A",
"'@	c #FAB5A6",
")@	c #CF9A96",
"!@	c #54321F",
"~@	c #824630",
"{@	c #85452D",
"]@	c #7F4630",
"^@	c #502F22",
"/@	c #0C090A",
"(@	c #515563",
"_@	c #4A4D59",
":@	c #534645",
"<@	c #70615A",
"[@	c #B2A292",
"}@	c #85746C",
"|@	c #27221D",
"1@	c #F2D8C1",
"2@	c #FEE0C3",
"3@	c #BCAA99",
"4@	c #908176",
"5@	c #EFD6C1",
"6@	c #F5DEC6",
"7@	c #DCC5B1",
"8@	c #5F544B",
"9@	c #AFA092",
"0@	c #F1D6C0",
"a@	c #FDE1C8",
"b@	c #FCE1C7",
"c@	c #FEDFC7",
"d@	c #79675F",
"e@	c #F9B5AE",
"f@	c #AE7E7C",
"g@	c #37271F",
"h@	c #6C3F2B",
"i@	c #7F482D",
"j@	c #7D482B",
"k@	c #80472B",
"l@	c #71412D",
"m@	c #16141A",
"n@	c #535868",
"o@	c #555866",
"p@	c #39302D",
"q@	c #EBD0C1",
"r@	c #FCE2C0",
"s@	c #FDDEC6",
"t@	c #9B8C82",
"u@	c #BBA795",
"v@	c #FAE0C8",
"w@	c #776B60",
"x@	c #F2D9C6",
"y@	c #FFDFC7",
"z@	c #FFE0C2",
"A@	c #E7D1BF",
"B@	c #78675F",
"C@	c #F6DBC5",
"D@	c #EFD3B9",
"E@	c #E4CDBC",
"F@	c #FBDFC2",
"G@	c #F5DBC5",
"H@	c #706459",
"I@	c #F8B3AC",
"J@	c #B88681",
"K@	c #B0A294",
"L@	c #7C7167",
"M@	c #5C351F",
"N@	c #82462A",
"O@	c #81452F",
"P@	c #5B3426",
"Q@	c #0E0D13",
"R@	c #525561",
"S@	c #3E455D",
"T@	c #4B4E5B",
"U@	c #74655E",
"V@	c #FDE1BF",
"W@	c #FDE0C3",
"X@	c #DCC6B2",
"Y@	c #39312B",
"Z@	c #C3B8AC",
"`@	c #897B6E",
" #	c #FEDFC6",
".#	c #FDE1C4",
"+#	c #FDDFC6",
"@#	c #C2B09E",
"##	c #AFA08B",
"$#	c #FCE0C2",
"%#	c #EDCEBC",
"&#	c #CBB6AC",
"*#	c #DFC9B5",
"=#	c #96837A",
"-#	c #DBA69A",
";#	c #E9B5A6",
">#	c #75655A",
",#	c #E6D1BB",
"'#	c #AA9A8B",
")#	c #502F24",
"!#	c #794732",
"~#	c #70412E",
"{#	c #170E07",
"]#	c #383C43",
"^#	c #444A60",
"/#	c #505562",
"(#	c #514942",
"_#	c #F7DCC2",
":#	c #FEE0C6",
"<#	c #FEDEC8",
"[#	c #FADDC4",
"}#	c #564C46",
"|#	c #171715",
"1#	c #53483D",
"2#	c #F3D7BC",
"3#	c #FDE1C6",
"4#	c #FADEC5",
"5#	c #7B6D62",
"6#	c #DFCCBF",
"7#	c #FCE0C3",
"8#	c #DDC3B1",
"9#	c #D6BCAB",
"0#	c #BA9C8B",
"a#	c #FED5BC",
"b#	c #D8BDAB",
"c#	c #938373",
"d#	c #A8998E",
"e#	c #130602",
"f#	c #12090B",
"g#	c #3A3D46",
"h#	c #525668",
"i#	c #505768",
"j#	c #1B1D24",
"k#	c #CBB8A5",
"l#	c #FEE0C4",
"m#	c #B4A393",
"n#	c #010100",
"o#	c #010103",
"p#	c #A18F81",
"q#	c #FDE0C6",
"r#	c #FEE0C1",
"s#	c #FFDFC5",
"t#	c #FBE1C4",
"u#	c #E6CFB9",
"v#	c #7E6E61",
"w#	c #908275",
"x#	c #B9A599",
"y#	c #FEDFC5",
"z#	c #FBE0CA",
"A#	c #E2CCBB",
"B#	c #D0BBAA",
"C#	c #EDD8C6",
"D#	c #E2CAB4",
"E#	c #C9B5A5",
"F#	c #292C33",
"G#	c #575B6A",
"H#	c #454B61",
"I#	c #38405A",
"J#	c #4E515C",
"K#	c #544D46",
"L#	c #F0D6BD",
"M#	c #FFDFC0",
"N#	c #F2D9C3",
"O#	c #5A5049",
"P#	c #252120",
"Q#	c #4C4441",
"R#	c #BCA99A",
"S#	c #FEE0C2",
"T#	c #FCE0C5",
"U#	c #E3CFBC",
"V#	c #7C726A",
"W#	c #E8D0BC",
"X#	c #B1A093",
"Y#	c #8D8C89",
"Z#	c #BEBEBD",
"`#	c #7C7976",
" $	c #C0AC99",
".$	c #FDE0C5",
"+$	c #B9A695",
"@$	c #42444B",
"#$	c #3D455C",
"$$	c #383B43",
"%$	c #817366",
"&$	c #F2DAC4",
"*$	c #FCDFC9",
"=$	c #B09D8E",
"-$	c #9F8F7F",
";$	c #D8C5B0",
">$	c #C3B6A7",
",$	c #746760",
"'$	c #E6D0BB",
")$	c #FFDFC3",
"!$	c #FCE1C5",
"~$	c #F6D8BF",
"{$	c #A79A8E",
"]$	c #908880",
"^$	c #999897",
"/$	c #FDFDFD",
"($	c #FEFFFE",
"_$	c #FAFAF8",
":$	c #979C9C",
"<$	c #D0BBA9",
"[$	c #867A6E",
"}$	c #4C4D57",
"|$	c #353740",
"1$	c #6F655C",
"2$	c #E3CDB5",
"3$	c #817568",
"4$	c #F3DCC6",
"5$	c #FEDFC4",
"6$	c #E1CBB7",
"7$	c #82746B",
"8$	c #F8DECA",
"9$	c #FFDEC3",
"0$	c #DDC6B0",
"a$	c #736862",
"b$	c #4B443E",
"c$	c #231E1B",
"d$	c #696968",
"e$	c #F4F5F5",
"f$	c #FEFFFF",
"g$	c #FEFEFC",
"h$	c #EDEEEC",
"i$	c #6A635D",
"j$	c #262221",
"k$	c #4F5466",
"l$	c #43454E",
"m$	c #211C19",
"n$	c #998E83",
"o$	c #746C65",
"p$	c #D8C6B6",
"q$	c #C0AD9A",
"r$	c #A19186",
"s$	c #FCDFC5",
"t$	c #FEDEC4",
"u$	c #9E8F81",
"v$	c #E0C8B3",
"w$	c #E4CBB3",
"x$	c #352D29",
"y$	c #756259",
"z$	c #A1A1A0",
"A$	c #FBFDFE",
"B$	c #FEFDFC",
"C$	c #F6F6F6",
"D$	c #383838",
"E$	c #3C3E46",
"F$	c #41485F",
"G$	c #1F2128",
"H$	c #020102",
"I$	c #83766C",
"J$	c #FADDC3",
"K$	c #FDE0C7",
"L$	c #FCDFC3",
"M$	c #AF9A8B",
"N$	c #EDD4BC",
"O$	c #B5A594",
"P$	c #C8B39F",
"Q$	c #DCC7B2",
"R$	c #4C4640",
"S$	c #6D544F",
"T$	c #524544",
"U$	c #E4E9EA",
"V$	c #FDFEFE",
"W$	c #C8C8C8",
"X$	c #17191F",
"Y$	c #535767",
"Z$	c #363942",
"`$	c #020205",
" %	c #9E8D80",
".%	c #F7D9C1",
"+%	c #F7DEC3",
"@%	c #EED4BF",
"#%	c #FEDEC7",
"$%	c #EAD4BF",
"%%	c #A39487",
"&%	c #857C70",
"*%	c #D2C4B7",
"=%	c #575049",
"-%	c #39322D",
";%	c #979796",
">%	c #ADAEAD",
",%	c #252627",
"'%	c #484E63",
")%	c #515764",
"!%	c #282930",
"~%	c #544940",
"{%	c #70644E",
"]%	c #363129",
"^%	c #C9B4A2",
"/%	c #FBE0C3",
"(%	c #FDDFC4",
"_%	c #E4CEC0",
":%	c #595148",
"<%	c #3C3732",
"[%	c #696360",
"}%	c #7D7D76",
"|%	c #464241",
"1%	c #847C7C",
"2%	c #272930",
"3%	c #3A3C43",
"4%	c #B19E69",
"5%	c #EED684",
"6%	c #625B3F",
"7%	c #8D7E5C",
"8%	c #7E7569",
"9%	c #85786D",
"0%	c #807366",
"a%	c #55483B",
"b%	c #2D251D",
"c%	c #020306",
"d%	c #070912",
"e%	c #38393F",
"f%	c #36363D",
"g%	c #50535E",
"h%	c #212227",
"i%	c #D1BB77",
"j%	c #EAD07B",
"k%	c #73613E",
"l%	c #4A442F",
"m%	c #525044",
"n%	c #443B28",
"o%	c #8E7E52",
"p%	c #B59D60",
"q%	c #574C2D",
"r%	c #494B53",
"s%	c #43495F",
"t%	c #17181D",
"u%	c #9B8C59",
"v%	c #C3A969",
"w%	c #CDB476",
"x%	c #70684A",
"y%	c #D1BBB3",
"z%	c #8C8354",
"A%	c #D1C077",
"B%	c #A6895A",
"C%	c #48392C",
"D%	c #4B4D57",
"E%	c #454853",
"F%	c #2D3038",
"G%	c #070B11",
"H%	c #1D2F40",
"I%	c #20232A",
"J%	c #CBB8AB",
"K%	c #1D1B21",
"L%	c #182126",
"M%	c #0F0F12",
"N%	c #26272E",
"O%	c #4F5360",
"P%	c #3D445D",
"Q%	c #2C2C33",
"R%	c #1A2837",
"S%	c #303139",
"T%	c #E6D1B8",
"U%	c #474039",
"V%	c #0B0F15",
"W%	c #464950",
"X%	c #505468",
"Y%	c #51505B",
"Z%	c #141C25",
"`%	c #222932",
" &	c #615C57",
".&	c #22272D",
"+&	c #080A12",
"@&	c #4F5361",
"#&	c #51535F",
"$&	c #0F1A26",
"%&	c #2B435A",
"&&	c #2A405B",
"*&	c #29384A",
"=&	c #14181E",
"-&	c #525767",
";&	c #535663",
">&	c #090C12",
",&	c #242C37",
"'&	c #1A2736",
")&	c #0A1621",
"!&	c #28282D",
"~&	c #555766",
"{&	c #505361",
"]&	c #272424",
"^&	c #B2B0AF",
"/&	c #B1B1AF",
"(&	c #B4B3B1",
"_&	c #363636",
":&	c #3D455D",
"<&	c #4E5465",
"[&	c #41434B",
"}&	c #3F4147",
"|&	c #42454B",
"1&	c #3B3E43",
"2&	c #50555F",
"3&	c #3A425B",
"4&	c #3F465D",
"    . + + + + + + + + + + + + + + + + + + + + + + + + + + + + + + + + + + + + + + + .     ",
"  @ # $ $ $ $ $ $ $ $ $ $ $ $ % & * $ $ $ $ $ $ $ $ $ $ $ $ $ $ $ $ $ $ $ $ $ $ $ $ # @   ",
". # = = = = = = = = = = = = - ; > , ' ) = = = = = = = = = = = = = = = = = = = = = = = # . ",
"+ $ = = = = = = = = = = = = ! ~ { ] ^ / = = = = = = = = = = = = = = = = = = = = = = = $ + ",
"+ $ = = = = = = = = = = = = ( _ : < [ } = = = = = = = = = = = = = = = = = = = = = = = $ + ",
"+ $ = = = = = = = = = = = = ( | 1 2 3 4 = = = = = = = = = = = = = = = = = = = = = = = $ + ",
"+ $ = = = = = = 5 / 6 7 = = 8 9 0 a b c = = = = = = = = = = = = = = = = = = = = = = = $ + ",
"+ $ = = = = = d e f g h = = i j k l m n = = = = = = = = = = = = = = = = = = = = = = = $ + ",
"+ $ = = = = = o p q r s 7 = t u v w x y = = = = = = = = = = = = = = = = = = = = = = = $ + ",
"+ $ = = = = = z b A B C D = E F G H I J = = = = = = = = = = = = = = = = = = = = = = = $ + ",
"+ $ = = = = = K L M N O P = E Q R S T U = V = = W X Y Z h ` = = = = = = = = = = = = = $ + ",
"+ $ = = = = =  ...+.@.#.) = $.%.&.*.=.- -.;.>.,.'.).!.~.{.].^./.P = = = = = = = = = = $ + ",
"+ $ = = = = = (._.:.<.[.= = }.|.1.2.3.4.5.6.7.8.9.0.a.b.c.d.e.f.g.h.= = = = = = = = = $ + ",
"+ $ = = = = = $.i.j.k.l.= D m.n.o.p.q.r.s.t.u.v.w.x.y.z.A.B.C.D.E.F.G.= = = = = = = = $ + ",
"+ $ = = = = = H.I.J.K.#.J L.M.N.O.P.Q.R.S.T.U.V.U.U.U.W.X.Y.Z.`. +.+=.++= = = = = = = $ + ",
"+ $ = = = = = } @+#+$+%+&+*+=+-+;+>+,+'+)+!+~+U.U.{+{+]+^+/+(+_+:+<+[+}+|+= = = = = = $ + ",
"+ $ = = = = = 1+2+3+4+5+6+7+8+9+0+a+b+c+d+{+U.:+e+f+g+h+i+j+k+l+m+n+o+p+q+E = = = = = $ + ",
"+ $ = = = = = n r+s+t+u+v+w+x+y+z+A+B+C+D+E+U.F+G+H+I+J+K+L+M+N+O+U.:+P+Q+R+S+= = = = $ + ",
"+ $ = = = = = T+U+V+W+X+Y+Z+`+ @.@+@@@#@$@%@&@*@=@-@;@>@,@'@)@!@~@{@U.]@^@/@(@= = = = $ + ",
"+ $ = = = = = 7 _@:@<@[@}@|@1@2@3@4@5@6@7@8@9@0@a@b@c@ @d@e@f@g@h@i@j@k@l@m@n@= = = = $ + ",
"+ $ = = = = = = o@p@q@r@s@t@u@v@w@x@y@z@ @A@B@C@D@E@F@G@H@I@J@K@L@M@N@O@P@Q@R@S@= = = $ + ",
"+ $ = = = = = = T@U@a@V@W@X@Y@Z@`@ #c@.#2@+#@###$#%#&#*#=#-#;#>#,#'#)#!#~#{#]#^#= = = $ + ",
"+ $ = = = = = = /#(#_#:#<#[#}#|#1#2#z@3#2@z@4#5#6#7#8#3#9#0#a#b#c#W@d#e#f#g#h#= = = = $ + ",
"+ $ = = = = = = i#j#k#2@z@l#m#n#o#p#q#r#s# @t#u#v#w#x#y#z#A#B#C#D#y+E#F#G#H#= = = = = $ + ",
"+ $ = = = = = = I#J#K#L#M#l#N#O#P#Q#R#L#c@s#S#W@T#U#V#W#X#Y#Z#`# $.$+$@$#$= = = = = = $ + ",
"+ $ = = = = = = = (.$$%$&$+#*$=$-$;$>$,$'$W@)$!$3#~${$]$^$/$($_$:$<$[$}$= = = = = = = $ + ",
"+ $ = = = = = = = = h |$1$2$.#3$4$.$5$6$7$8$9$l#0$a$b$c$d$e$f$g$h$i$j$c = = = = = = = $ + ",
"+ $ = = = = = = = = = k$l$m$n$o$p$y#)$s#q$r$s$t$u$v$w$x$y$z$A$B$C$D$E$H#= = = = = = = $ + ",
"+ $ = = = = = = = = = = F$o@G$H$I$J$K$l#L$M$N$9$O$P$Q$R$S$T$U$V$W$X$}.= = = = = = = = $ + ",
"+ $ = = = = = = = = = = = 7 Y$Z$`$ %.%+%@%#%5$c@$%%%&%*%=%-%;%>%,%R@I#= = = = = = = = $ + ",
"+ $ = = = = = = = = = = = = = '%)%!%~%{%]%^%/%+#(%_%:%<%[%}%|%1%2%i = = = = = = = = = $ + ",
"+ $ = = = = = = = = = = = = = = ^#3%4%5%6%7%8%9%0%a%b%c%d%e%f%d%g%W = = = = = = = = = $ + ",
"+ $ = = = = = = = = = = = = = = i h%i%j%k%l%m%n%o%p%q%r%Z s%'%/.J = = = = = = = = = = $ + ",
"+ $ = = = = = = = = = = = = = =  .t%u%v%w%x%y%z%A%B%C%D%7 = = = = = = = = = = = = = = $ + ",
"+ $ = = = = = = = = = = = = = = ` E%F%G%H%I%J%K%L%M%N%O%= = = = = = = = = = = = = = = $ + ",
"+ $ = = = = = = = = = = = = = = = P%H.Q%R%S%T%U%V%W%X%d = = = = = = = = = = = = = = = $ + ",
"+ $ = = = = = = = = = = = = = = = = = Y%Z%`% &.&+&@&= = = = = = = = = = = = = = = = = $ + ",
"+ $ = = = = = = = = = = = = = = = = = #&$&%&&&*&=&-&= = = = = = = = = = = = = = = = = $ + ",
"+ $ = = = = = = = = = = = = = = = = = ;&>&,&'&)&!&~&= = = = = = = = = = = = = = = = = $ + ",
"+ $ = = = = = = = = = = = = = = = = = {&]&^&/&(&_&I :&= = = = = = = = = = = = = = = = $ + ",
"+ $ = = = = = = = = = = = = = = = = = <&[&}&|&1&@$2&I#= = = = = = = = = = = = = = = = $ + ",
"+ $ = = = = = = = = = = = = = = = = = = 3&4&d F$d ) = = = = = = = = = = = = = = = = = $ + ",
". # = = = = = = = = = = = = = = = = = = = = = = = = = = = = = = = = = = = = = = = = = # . ",
"  @ # $ $ $ $ $ $ $ $ $ $ $ $ $ $ $ $ $ $ $ $ $ $ $ $ $ $ $ $ $ $ $ $ $ $ $ $ $ $ $ # @   ",
"    . + + + + + + + + + + + + + + + + + + + + + + + + + + + + + + + + + + + + + + + .     "};
