/* XPM */
static char * MORTYW_xpm[] = {
"45 45 784 2",
"  	c #1A1C2C",
". 	c #212538",
"+ 	c #212639",
"@ 	c #191A2A",
"# 	c #323B56",
"$ 	c #333C58",
"% 	c #333C57",
"& 	c #4A5063",
"* 	c #545868",
"= 	c #505567",
"- 	c #38405A",
"; 	c #4E5365",
"> 	c #31333A",
", 	c #05070E",
"' 	c #1E1E25",
") 	c #505562",
"! 	c #363E58",
"~ 	c #39405A",
"{ 	c #363E59",
"] 	c #4E525F",
"^ 	c #594040",
"/ 	c #EBADAB",
"( 	c #B48884",
"_ 	c #1F2026",
": 	c #505466",
"< 	c #4E5363",
"[ 	c #444651",
"} 	c #4D4F5B",
"| 	c #454C61",
"1 	c #4F525E",
"2 	c #6C4F4C",
"3 	c #FCB4A9",
"4 	c #EFADA4",
"5 	c #362826",
"6 	c #515867",
"7 	c #4B5164",
"8 	c #2D2E35",
"9 	c #7D645F",
"0 	c #443433",
"a 	c #4B525C",
"b 	c #4F525F",
"c 	c #6C504D",
"d 	c #FBB6AA",
"e 	c #F6B4AC",
"f 	c #473434",
"g 	c #525465",
"h 	c #4F5263",
"i 	c #302323",
"j 	c #F1AFA9",
"k 	c #B58583",
"l 	c #3C3D45",
"m 	c #42485F",
"n 	c #4E5260",
"o 	c #664D4B",
"p 	c #FCB4AC",
"q 	c #EDACA5",
"r 	c #302322",
"s 	c #525565",
"t 	c #3F465E",
"u 	c #3C445C",
"v 	c #353E58",
"w 	c #4E5061",
"x 	c #412E2F",
"y 	c #FAB4A8",
"z 	c #D39893",
"A 	c #35363C",
"B 	c #454B61",
"C 	c #525664",
"D 	c #503E3A",
"E 	c #F7B0A7",
"F 	c #E4A39D",
"G 	c #17171B",
"H 	c #585A6B",
"I 	c #505566",
"J 	c #4B4E5A",
"K 	c #474951",
"L 	c #40414A",
"M 	c #424249",
"N 	c #474953",
"O 	c #505160",
"P 	c #4F5566",
"Q 	c #3C435C",
"R 	c #525666",
"S 	c #1E1315",
"T 	c #EFAFA3",
"U 	c #BF8882",
"V 	c #3C3E44",
"W 	c #40475E",
"X 	c #515364",
"Y 	c #352422",
"Z 	c #F2ADA6",
"` 	c #BF8E89",
" .	c #21252A",
"..	c #4F525A",
"+.	c #140F13",
"@.	c #3A2118",
"#.	c #543124",
"$.	c #5E382B",
"%.	c #5B3628",
"&.	c #4A2B1C",
"*.	c #27140C",
"=.	c #1D2024",
"-.	c #484B56",
";.	c #4D5466",
">.	c #4D5266",
",.	c #1E1D22",
"'.	c #DBA094",
").	c #A87B73",
"!.	c #41454E",
"~.	c #4C5164",
"{.	c #4E515C",
"].	c #3B3D44",
"^.	c #33363E",
"/.	c #4B505A",
"(.	c #5E636E",
"_.	c #281616",
":.	c #EFAEA7",
"<.	c #97726E",
"[.	c #060102",
"}.	c #3A1F14",
"|.	c #6D3F2F",
"1.	c #81462F",
"2.	c #83462C",
"3.	c #7E482E",
"4.	c #80482C",
"5.	c #7F482B",
"6.	c #7D4631",
"7.	c #543B2A",
"8.	c #291C17",
"9.	c #292C32",
"0.	c #525765",
"a.	c #232429",
"b.	c #D89F95",
"c.	c #A07A73",
"d.	c #50545C",
"e.	c #494B53",
"f.	c #514841",
"g.	c #BBAA9C",
"h.	c #C5B1A3",
"i.	c #534A43",
"j.	c #494C4F",
"k.	c #301D1B",
"l.	c #926D68",
"m.	c #56342A",
"n.	c #78482E",
"o.	c #7D492B",
"p.	c #7C4A2A",
"q.	c #7F482A",
"r.	c #83462A",
"s.	c #80472A",
"t.	c #7F4631",
"u.	c #553023",
"v.	c #765859",
"w.	c #432C26",
"x.	c #462E26",
"y.	c #1D1D22",
"z.	c #515563",
"A.	c #525668",
"B.	c #151114",
"C.	c #E2A69E",
"D.	c #A57B74",
"E.	c #37383D",
"F.	c #262221",
"G.	c #DFCAB5",
"H.	c #FEE0C6",
"I.	c #FEE0C3",
"J.	c #C3B0A2",
"K.	c #030001",
"L.	c #533C39",
"M.	c #F7B2A8",
"N.	c #967167",
"O.	c #754134",
"P.	c #834629",
"Q.	c #84462C",
"R.	c #84452E",
"S.	c #81462E",
"T.	c #80472E",
"U.	c #6E4331",
"V.	c #88635F",
"W.	c #F8B2B1",
"X.	c #785E55",
"Y.	c #774636",
"Z.	c #523022",
"`.	c #1C1B21",
" +	c #525564",
".+	c #291B1C",
"++	c #F7B5AB",
"@+	c #BF8C84",
"#+	c #010102",
"$+	c #524941",
"%+	c #FBE1C7",
"&+	c #FFDFC8",
"*+	c #FEE0C1",
"=+	c #B5A698",
"-+	c #020001",
";+	c #7B5C56",
">+	c #FCB3AE",
",+	c #B2857F",
"'+	c #6B3B2C",
")+	c #7E492B",
"!+	c #81472D",
"~+	c #7F472D",
"{+	c #7F482D",
"]+	c #7F492B",
"^+	c #7E462D",
"/+	c #4B2B24",
"(+	c #D69F9B",
"_+	c #FBB1AF",
":+	c #6E514C",
"<+	c #7C472B",
"[+	c #7C4732",
"}+	c #4C2F1F",
"|+	c #27282F",
"1+	c #4F5667",
"2+	c #4E505F",
"3+	c #483333",
"4+	c #FCB2A7",
"5+	c #E2A79E",
"6+	c #0F0505",
"7+	c #564A42",
"8+	c #FCE1C6",
"9+	c #FFDFC6",
"0+	c #FEE0C0",
"a+	c #887B6E",
"b+	c #010203",
"c+	c #A77C74",
"d+	c #FEB2AC",
"e+	c #C8908C",
"f+	c #633625",
"g+	c #77452D",
"h+	c #5C3827",
"i+	c #462C1F",
"j+	c #372015",
"k+	c #2B170F",
"l+	c #A87C75",
"m+	c #FCB4A6",
"n+	c #DBA49A",
"o+	c #3E261E",
"p+	c #7E482D",
"q+	c #84452C",
"r+	c #79472F",
"s+	c #3B2318",
"t+	c #393A43",
"u+	c #4F515E",
"v+	c #4D505E",
"w+	c #494E62",
"x+	c #4F5161",
"y+	c #352424",
"z+	c #F8B3A8",
"A+	c #F8B5AA",
"B+	c #735252",
"C+	c #3B332E",
"D+	c #F8DCC3",
"E+	c #FEDFC6",
"F+	c #FAE1C6",
"G+	c #4A4035",
"H+	c #070202",
"I+	c #CE968E",
"J+	c #FEB4A8",
"K+	c #DFA39B",
"L+	c #4F2C20",
"M+	c #643D2F",
"N+	c #5D514B",
"O+	c #857C76",
"P+	c #4E443F",
"Q+	c #88726B",
"R+	c #CE9E92",
"S+	c #FBB3AB",
"T+	c #E8A6A7",
"U+	c #785E5B",
"V+	c #776C63",
"W+	c #663E2F",
"X+	c #804829",
"Y+	c #82462E",
"Z+	c #754428",
"`+	c #41261B",
" @	c #291B16",
".@	c #070705",
"+@	c #43515D",
"@@	c #34445F",
"#@	c #19161B",
"$@	c #DFA299",
"%@	c #C68F8D",
"&@	c #030301",
"*@	c #D3BCA7",
"=@	c #EFD5C1",
"-@	c #AFA193",
";@	c #322E29",
">@	c #17100E",
",@	c #BC8E88",
"'@	c #F9B5AC",
")@	c #F2ACA9",
"!@	c #3E2D2B",
"~@	c #8B7A6C",
"{@	c #EFD8C3",
"]@	c #D4C0AC",
"^@	c #F1D3BE",
"/@	c #FCD5C1",
"(@	c #F9C4B5",
"_@	c #AF807D",
":@	c #7F7266",
"<@	c #DFC6B2",
"[@	c #EED2BC",
"}@	c #443D38",
"|@	c #774329",
"1@	c #81462D",
"2@	c #7F472A",
"3@	c #7C4731",
"4@	c #4D3329",
"5@	c #131419",
"6@	c #525866",
"7@	c #35425D",
"8@	c #3A3B42",
"9@	c #A87A78",
"0@	c #FDB3AE",
"a@	c #F6B2A2",
"b@	c #5E4140",
"c@	c #5B5751",
"d@	c #706860",
"e@	c #CDB7A8",
"f@	c #F1D6C0",
"g@	c #E3CAB6",
"h@	c #A7978A",
"i@	c #8F6B69",
"j@	c #F2B2AB",
"k@	c #785655",
"l@	c #DDC6B0",
"m@	c #FEDFC4",
"n@	c #FDDFC8",
"o@	c #E2C0A6",
"p@	c #CCB09B",
"q@	c #D1BEAF",
"r@	c #8D7F73",
"s@	c #C7B5A3",
"t@	c #CAB5A1",
"u@	c #978879",
"v@	c #4F3125",
"w@	c #7D4730",
"x@	c #82462A",
"y@	c #613724",
"z@	c #0A0508",
"A@	c #535763",
"B@	c #4B5163",
"C@	c #40434D",
"D@	c #1B1A1C",
"E@	c #493E39",
"F@	c #AF8584",
"G@	c #F4B0A9",
"H@	c #C9948C",
"I@	c #160C07",
"J@	c #D8C6B7",
"K@	c #FDE0C8",
"L@	c #FEDFC2",
"M@	c #FDE0C3",
"N@	c #FCE0C8",
"O@	c #C6B2A4",
"P@	c #966D68",
"Q@	c #B4867C",
"R@	c #BAA495",
"S@	c #FADFC6",
"T@	c #D5B198",
"U@	c #826656",
"V@	c #402D25",
"W@	c #4F2C1D",
"X@	c #583425",
"Y@	c #5D392A",
"Z@	c #5E3929",
"`@	c #6B3F2A",
" #	c #7F472E",
".#	c #81472B",
"+#	c #80472C",
"@#	c #734533",
"##	c #150D11",
"$#	c #4E5263",
"%#	c #3D455D",
"&#	c #444650",
"*#	c #6C5E56",
"=#	c #DEC8B5",
"-#	c #F5D8C5",
";#	c #C1AE9E",
">#	c #7D6259",
",#	c #EFB0A9",
"'#	c #7B6D63",
")#	c #F9E0C6",
"!#	c #FFDFC0",
"~#	c #FFDFC5",
"{#	c #FFDEC4",
"]#	c #A69388",
"^#	c #AD8984",
"/#	c #6A5C55",
"(#	c #A58873",
"_#	c #755A4B",
":#	c #43271D",
"<#	c #74462F",
"[#	c #7F482E",
"}#	c #7F472C",
"|#	c #81472C",
"1#	c #82462C",
"2#	c #73422F",
"3#	c #151117",
"4#	c #4F5465",
"5#	c #4F5567",
"6#	c #18181F",
"7#	c #D6C2B2",
"8#	c #FEDFC1",
"9#	c #FDDEC5",
"0#	c #FDE0C5",
"a#	c #B4A091",
"b#	c #C79390",
"c#	c #7A6059",
"d#	c #ECD4BD",
"e#	c #FEDFC0",
"f#	c #FEE0C7",
"g#	c #FFDEC5",
"h#	c #FBE2C3",
"i#	c #F5D8C2",
"j#	c #695D57",
"k#	c #4F4440",
"l#	c #40332A",
"m#	c #4F2F24",
"n#	c #7C472D",
"o#	c #81472A",
"p#	c #80462E",
"q#	c #6B3E2C",
"r#	c #191A22",
"s#	c #515669",
"t#	c #515767",
"u#	c #0E0C13",
"v#	c #DECABC",
"w#	c #FEDFC3",
"x#	c #FEDFC7",
"y#	c #FFE0BE",
"z#	c #E5CDB8",
"A#	c #916C67",
"B#	c #D99C99",
"C#	c #867367",
"D#	c #FADFC2",
"E#	c #FDE1C3",
"F#	c #FDE1C5",
"G#	c #FEDFC5",
"H#	c #FDE1C9",
"I#	c #817568",
"J#	c #D8C5B7",
"K#	c #332A25",
"L#	c #633E2C",
"M#	c #7E472F",
"N#	c #82472C",
"O#	c #7E472E",
"P#	c #82452E",
"Q#	c #80482A",
"R#	c #82472A",
"S#	c #80462F",
"T#	c #583428",
"U#	c #383C42",
"V#	c #41485F",
"W#	c #444B60",
"X#	c #35373D",
"Y#	c #B4A198",
"Z#	c #FEE0C5",
"`#	c #FCE1C5",
" $	c #FDDFC9",
".$	c #84786B",
"+$	c #D09E9B",
"@$	c #735C5B",
"#$	c #BFAD9D",
"$$	c #ECD2BD",
"%$	c #FCE0C5",
"&$	c #FFE0C6",
"*$	c #FFDFC1",
"=$	c #FFDFC3",
"-$	c #796A60",
";$	c #ECD8C2",
">$	c #6B625A",
",$	c #97887C",
"'$	c #3E2920",
")$	c #523224",
"!$	c #794731",
"~$	c #7F472F",
"{$	c #83462B",
"]$	c #7E4630",
"^$	c #331B16",
"/$	c #4C505B",
"($	c #505360",
"_$	c #443B37",
":$	c #EAD2BD",
"<$	c #FDE1C4",
"[$	c #FEDFC8",
"}$	c #FFDDC4",
"|$	c #B7AB99",
"1$	c #776E62",
"2$	c #C0AEA0",
"3$	c #BFAC9F",
"4$	c #7F7468",
"5$	c #BBA999",
"6$	c #FCE0C6",
"7$	c #F2DAC4",
"8$	c #74665C",
"9$	c #FBDFC4",
"0$	c #CAB09B",
"a$	c #C3B0A0",
"b$	c #B6A494",
"c$	c #BBA795",
"d$	c #523323",
"e$	c #814530",
"f$	c #7C4A28",
"g$	c #854628",
"h$	c #643C2B",
"i$	c #1A1A21",
"j$	c #505667",
"k$	c #444C61",
"l$	c #3D4048",
"m$	c #73685E",
"n$	c #F4D7C3",
"o$	c #988674",
"p$	c #E2D0BD",
"q$	c #F7DFC6",
"r$	c #908378",
"s$	c #CAB6A4",
"t$	c #8B8073",
"u$	c #615954",
"v$	c #D6C2AD",
"w$	c #FCDDC2",
"x$	c #E1CABA",
"y$	c #6F6661",
"z$	c #F0D5BD",
"A$	c #FADCC4",
"B$	c #442F26",
"C$	c #81452F",
"D$	c #81462B",
"E$	c #7D482F",
"F$	c #7A4431",
"G$	c #2D1913",
"H$	c #484B57",
"I$	c #3A425B",
"J$	c #4E5366",
"K$	c #363841",
"L$	c #6F645A",
"M$	c #E9D0B8",
"N$	c #FDE1C8",
"O$	c #A9968A",
"P$	c #D9C2AE",
"Q$	c #FFDFC2",
"R$	c #FBE1C8",
"S$	c #F2D8C0",
"T$	c #6D665E",
"U$	c #9F9080",
"V$	c #BFAB9A",
"W$	c #D1B8A3",
"X$	c #C0AB97",
"Y$	c #8E8277",
"Z$	c #E6CCB0",
"`$	c #FBE0C9",
" %	c #FADDC3",
".%	c #432F26",
"+%	c #80482B",
"@%	c #81462C",
"#%	c #7C452F",
"$%	c #3B2319",
"%%	c #35363E",
"&%	c #3E414A",
"*%	c #36312C",
"=%	c #B2A292",
"-%	c #D1C1B2",
";%	c #86776B",
">%	c #F9DDC6",
",%	c #D6C2AB",
"'%	c #B09D8B",
")%	c #CDB6A3",
"!%	c #BBA791",
"~%	c #FDE0C6",
"{%	c #FCDFC8",
"]%	c #FDE1C1",
"^%	c #FEDEC7",
"/%	c #CDB9A2",
"(%	c #271B13",
"_%	c #5B3523",
":%	c #68392B",
"<%	c #6F422D",
"[%	c #74432B",
"}%	c #613926",
"|%	c #311B15",
"1%	c #30323A",
"2%	c #515666",
"3%	c #434B60",
"4%	c #505462",
"5%	c #33333B",
"6%	c #302C2C",
"7%	c #252424",
"8%	c #958777",
"9%	c #F5D9BD",
"0%	c #F8E1C3",
"a%	c #E9D4C1",
"b%	c #7E7469",
"c%	c #F1D6C1",
"d%	c #D4BDA6",
"e%	c #FEDFC9",
"f%	c #FAE4BD",
"g%	c #F2D9C4",
"h%	c #CBB7A5",
"i%	c #51493F",
"j%	c #524735",
"k%	c #514A47",
"l%	c #A69F92",
"m%	c #3A3431",
"n%	c #685F58",
"o%	c #938C85",
"p%	c #0F1119",
"q%	c #575C6D",
"r%	c #4A5064",
"s%	c #515564",
"t%	c #4A4D57",
"u%	c #313137",
"v%	c #514744",
"w%	c #8A7D6D",
"x%	c #756852",
"y%	c #786A61",
"z%	c #B2A294",
"A%	c #C8B29F",
"B%	c #FCE0C3",
"C%	c #FEDECB",
"D%	c #FEE0C8",
"E%	c #CFB4A6",
"F%	c #8F8E7F",
"G%	c #6B604B",
"H%	c #F1D386",
"I%	c #B9A96D",
"J%	c #1A150B",
"K%	c #080504",
"L%	c #958A80",
"M%	c #6F655C",
"N%	c #42444B",
"O%	c #3E455C",
"P%	c #5A5F6D",
"Q%	c #1A1F21",
"R%	c #AC9E64",
"S%	c #EDD47E",
"T%	c #8E7E56",
"U%	c #B1A191",
"V%	c #FCDEC9",
"W%	c #FAE2C7",
"X%	c #FEDFBF",
"Y%	c #FCE1BE",
"Z%	c #D8C3B0",
"`%	c #716855",
" &	c #6B6145",
".&	c #EACC79",
"+&	c #F7D67F",
"@&	c #7C6F4E",
"#&	c #3C3D43",
"$&	c #494A53",
"%&	c #494D58",
"&&	c #4C5165",
"*&	c #4F5561",
"=&	c #2B2516",
"-&	c #E9D187",
";&	c #F7D782",
">&	c #988553",
",&	c #61584D",
"'&	c #D8C1B2",
")&	c #F8DFC5",
"!&	c #E6CDBD",
"~&	c #A49484",
"{&	c #897A55",
"]&	c #E5CC7E",
"^&	c #A4955F",
"/&	c #BFAF70",
"(&	c #EDCA79",
"_&	c #B2A466",
":&	c #282B34",
"<&	c #4D535F",
"[&	c #141516",
"}&	c #584C3C",
"|&	c #61553B",
"1&	c #544D34",
"2&	c #D3C07D",
"3&	c #9C8A55",
"4&	c #5A4E3C",
"5&	c #8C7B48",
"6&	c #AA9B65",
"7&	c #937645",
"8&	c #EACB77",
"9&	c #CFB76F",
"0&	c #685E40",
"a&	c #6F6657",
"b&	c #2D281A",
"c&	c #202029",
"d&	c #4C5263",
"e&	c #434A5F",
"f&	c #42444C",
"g&	c #A7998D",
"h&	c #8A7D70",
"i&	c #B1A574",
"j&	c #DBBC75",
"k&	c #D5B975",
"l&	c #8E7A50",
"m&	c #D5BF76",
"n&	c #C8B472",
"o&	c #8F784C",
"p&	c #CEB473",
"q&	c #BBA565",
"r&	c #7D6E4A",
"s&	c #CBBA9E",
"t&	c #443B2F",
"u&	c #555663",
"v&	c #3B425B",
"w&	c #42434F",
"x&	c #A8978A",
"y&	c #A7978D",
"z&	c #070713",
"A&	c #1B2D39",
"B&	c #1C2E3C",
"C&	c #19212C",
"D&	c #060401",
"E&	c #070B14",
"F&	c #1D2E45",
"G&	c #1E2F40",
"H&	c #1A2632",
"I&	c #000000",
"J&	c #DAC2AF",
"K&	c #483935",
"L&	c #4E5262",
"M&	c #756A60",
"N&	c #7A6F67",
"O&	c #090F18",
"P&	c #2E4062",
"Q&	c #244466",
"R&	c #223547",
"S&	c #09121B",
"T&	c #294560",
"U&	c #294461",
"V&	c #20314D",
"W&	c #010000",
"X&	c #9A8C83",
"Y&	c #241E1C",
"Z&	c #4F5463",
"`&	c #4E5364",
" *	c #40424B",
".*	c #3A3C42",
"+*	c #04080F",
"@*	c #2A4058",
"#*	c #274564",
"$*	c #243646",
"%*	c #08111B",
"&*	c #2A455F",
"**	c #2A4460",
"=*	c #202D3E",
"-*	c #28292F",
";*	c #3A3C44",
">*	c #4B4E59",
",*	c #41485E",
"'*	c #575B6A",
")*	c #0C0C12",
"!*	c #32353F",
"~*	c #252C3B",
"{*	c #22252D",
"]*	c #030201",
"^*	c #0C0D12",
"/*	c #272D39",
"(*	c #2E343F",
"_*	c #1F2128",
":*	c #44464F",
"<*	c #39415A",
"[*	c #464C61",
"}*	c #393B44",
"|*	c #504F56",
"1*	c #70727A",
"2*	c #4D4E54",
"3*	c #35373E",
"4*	c #1C1D24",
"5*	c #6B6C73",
"6*	c #686A72",
"7*	c #222429",
"8*	c #515562",
"9*	c #4D5265",
"0*	c #464953",
"a*	c #24262E",
"b*	c #464952",
"c*	c #4F5466",
"d*	c #2F3139",
"e*	c #31343B",
"f*	c #3E455D",
"g*	c #4C5266",
"h*	c #484E63",
"i*	c #474D62",
"    . + + + + + + + + + + + + + + + + + + + + + + + + + + + + + + + + + + + + + + + .     ",
"  @ # $ $ $ $ $ $ $ $ $ $ $ $ $ $ $ $ $ $ $ $ $ $ $ $ $ $ $ $ $ $ $ $ $ $ $ $ $ $ $ # @   ",
". # % % % % % % % % % % % % % % % % % % % % % % % % % % % % % % % % % % % % % % % % % # . ",
"+ $ % % % % % % % % % % % % % % % % & * = - % % % % % % % % % % % % % % % % % % % % % $ + ",
"+ $ % % % % % % % % % % % % % % % ; > , ' ) ! % % % % % % % % % % % % % % % % % % % % $ + ",
"+ $ % % % % % % % ~ { % % % % % % ] ^ / ( _ : % % % % % % % % % % % % % % % % % % % % $ + ",
"+ $ % % % % % % < [ } | % % % % % 1 2 3 4 5 6 % % % % % % % % % % % % % % % % % % % % $ + ",
"+ $ % % % % % 7 8 9 0 a { % % % % b c d e f g % % % % % % % % % % % % % % % % % % % % $ + ",
"+ $ % % % % % h i j k l m % % % % n o p q r s % % - t u v % % % % % % % % % % % % % % $ + ",
"+ $ % % % % % w x y z A B % % % % C D E F G H I J K L M N O P Q % % % % % % % % % % % $ + ",
"+ $ % % % % % R S T U V W v W | v X Y Z `  ...+.@.#.$.%.&.*.=.-.;.% % % % % % % % % % $ + ",
"+ $ % % % % % >.,.'.).!.~.{.].^./.(._.:.<.[.}.|.1.2.3.4.5.6.7.8.9.0.! % % % % % % % % $ + ",
"+ $ % % % % % 7 a.b.c.d.e.f.g.h.i.j.k.Z l.m.n.o.p.q.r.s.t.u.v.w.x.y.z.v % % % % % % % $ + ",
"+ $ % % % % % A.B.C.D.E.F.G.H.I.J.K.L.M.N.O.P.Q.R.S.5.T.U.V.W.X.Y.Z.`. +% % % % % % % $ + ",
"+ $ % % % % % s .+++@+#+$+%+&+*+=+-+;+>+,+'+)+!+~+{+]+^+/+(+_+:+<+[+}+|+1+% % % % % % $ + ",
"+ $ % % % % % 2+3+4+5+6+7+8+9+0+a+b+c+d+e+f+5.g+h+i+j+k+l+m+n+o+p+q+r+s+t+u+v+w+% % % $ + ",
"+ $ % % % % % x+y+z+A+B+C+D+E+F+G+H+I+J+K+L+M+N+O+P+Q+R+S+T+U+V+W+X+Y+Z+`+ @.@+@@@% % $ + ",
"+ $ % % % % % : #@$@J+%@&@*@=@-@;@>@,@'@)@!@~@{@]@^@/@(@_@:@<@[@}@|@1@2@3@4@5@6@7@% % $ + ",
"+ $ % % % % % >.8@9@0@a@b@c@d@e@f@g@h@i@j@k@l@m@n@o@p@q@r@s@t@u@v@w@x@~+y@z@A@- % % % $ + ",
"+ $ % % % % B@C@D@E@F@G@H@I@J@K@L@M@N@O@P@Q@R@S@T@U@V@W@X@Y@Z@`@ #Q..#+#@###$#% % % % $ + ",
"+ $ % % % %#&#*#=#-#;#>#,#'#)#!#~#9+{#8+]#^#/#(#_#:#<#[#~+}#+#|#1#1.~+r.2#3#4#% % % % $ + ",
"+ $ % % % 5#6#7#8#9#0#a#b#c#d#e#f#9+g#h#i#j#k#l#m#n#|#.#o#o#o#}#T.p#}#1#q#r#s#% % % % $ + ",
"+ $ % % % t#u#v#w#x#y#z#A#B#C#D#I.E#F#G#H#I#J#K#L#M#1#N#|#O#1#P#Q#R# #S#T#U#V#% % % % $ + ",
"+ $ % % % W#X#Y#Z#`#I. $.$+$@$#$$$%$&$*$=$-$;$>$,$'$)$!$.#~$r.~++#{$s.]$^$/$% % % % % $ + ",
"+ $ % % % % ($_$:$<$[$}$|$1$2$3$4$5$E+6$7$8$9$0$a$b$c$d$T.e$x@f$S.1@g$h$i$j$% % % % % $ + ",
"+ $ % % % % k$l$m$n$8+*+o$p$w#{#q$r$s$t$u$v$w$x$y$z$A$B$}#C$D$Q#p+E$F$G$H$I$% % % % % $ + ",
"+ $ % % % % % J$K$L$M$N$O$P$Q$R$*+S$T$U$V$W$X$Y$Z$`$ %.%+%p#@%S.+##%$%%%B@% % % % % % $ + ",
"+ $ % % % % % % ~.&%*%=%-%;%>%Z#f#=$,%'%)%!%~%{%]%^%/%(%_%:%<%[%}%|%1%2%% % % % % % % $ + ",
"+ $ % % % % % % % 3%4%5%6%7%8%9%M@0%a%b%c%d%e%f%g%h%i%j%k%l%m%n%o%p%q%% % % % % % % % $ + ",
"+ $ % % % % % % % % % r%s%t%u%v%w%x%y%z%A%B%C%D%E%F%G%H%I%J%K%L%M%N%O%% % % % % % % % $ + ",
"+ $ % % % % % % % % % % % { P%Q%R%S%T%U%V%W%X%Y%Z%`% &.&+&@&#&$&%&&&% % % % % % % % % $ + ",
"+ $ % % % % % % % % % % % % *&=&-&;&>&,&'&)&!&~&{&]&^&/&(&_&:&J$% % % % % % % % % % % $ + ",
"+ $ % % % % % % % % % % % % <&[&}&|&1&2&3&4&5&6&7&8&9&0&a&b&c&d&% % % % % % % % % % % $ + ",
"+ $ % % % % % % % % % % % % e&f&g&h&i&j&k&l&m&n&o&p&q&r&s&t&u&v % % % % % % % % % % % $ + ",
"+ $ % % % % % % % % % % % % v&w&x&y&z&A&B&C&D&E&F&G&H&I&J&K&L&% % % % % % % % % % % % $ + ",
"+ $ % % % % % % % % % % % % { N M&N&O&P&Q&R&b+S&T&U&V&W&X&Y&Z&% % % % % % % % % % % % $ + ",
"+ $ % % % % % % % % % % % % % `& *.*+*@*#*$*b+%*&***=*-*;*>*,*% % % % % % % % % % % % $ + ",
"+ $ % % % % % % % % % % % % % % %#'*)*!*~*{*]*^*/*(*_*:*| <*% % % % % % % % % % % % % $ + ",
"+ $ % % % % % % % % % % % % % % % [*}*|*1*2*3*4*5*6*7*8*% % % % % % % % % % % % % % % $ + ",
"+ $ % % % % % % % % % % % % % % % % 9*0*a*b*c*C d*e*8*f*% % % % % % % % % % % % % % % $ + ",
"+ $ % % % % % % % % % % % % % % % % % v&g*u % % h*i*% % % % % % % % % % % % % % % % % $ + ",
"+ $ % % % % % % % % % % % % % % % % % % % % % % % % % % % % % % % % % % % % % % % % % $ + ",
". # % % % % % % % % % % % % % % % % % % % % % % % % % % % % % % % % % % % % % % % % % # . ",
"  @ # $ $ $ $ $ $ $ $ $ $ $ $ $ $ $ $ $ $ $ $ $ $ $ $ $ $ $ $ $ $ $ $ $ $ $ $ $ $ $ # @   ",
"    . + + + + + + + + + + + + + + + + + + + + + + + + + + + + + + + + + + + + + + + .     "};
