/* XPM */
static char * PORTAL3_xpm[] = {
"45 45 396 2",
"  	c #1A1C2C",
". 	c #212538",
"+ 	c #212639",
"@ 	c #191A2A",
"# 	c #323B56",
"$ 	c #333C58",
"% 	c #333C57",
"& 	c #45575F",
"* 	c #53975B",
"= 	c #4F9857",
"- 	c #51835F",
"; 	c #353E58",
"> 	c #44555F",
", 	c #52A156",
"' 	c #18A412",
") 	c #13B406",
"! 	c #31B22E",
"~ 	c #548761",
"{ 	c #3B465B",
"] 	c #529E57",
"^ 	c #18A214",
"/ 	c #2CBD07",
"( 	c #7CDE14",
"_ 	c #65D318",
": 	c #33B32E",
"< 	c #517F60",
"[ 	c #4D6263",
"} 	c #3AA33B",
"| 	c #0FA406",
"1 	c #43CA0F",
"2 	c #A3E044",
"3 	c #97D057",
"4 	c #56C60E",
"5 	c #56985B",
"6 	c #3A455A",
"7 	c #374059",
"8 	c #509E55",
"9 	c #15A110",
"0 	c #27BD07",
"a 	c #8CDF31",
"b 	c #81B95D",
"c 	c #39B622",
"d 	c #59CF0C",
"e 	c #60C226",
"f 	c #527F61",
"g 	c #3A435A",
"h 	c #46A049",
"i 	c #0CA006",
"j 	c #25BF07",
"k 	c #69CF13",
"l 	c #2AB318",
"m 	c #0DB506",
"n 	c #4CBF0B",
"o 	c #51BB0E",
"p 	c #50845E",
"q 	c #537366",
"r 	c #3CA33C",
"s 	c #0CA706",
"t 	c #0EB805",
"u 	c #14A906",
"v 	c #0CBD05",
"w 	c #0CBF05",
"x 	c #11B106",
"y 	c #2EAA0A",
"z 	c #5EA25A",
"A 	c #43535E",
"B 	c #52A056",
"C 	c #0E9E08",
"D 	c #0CB705",
"E 	c #0CB305",
"F 	c #0CAF05",
"G 	c #0CC005",
"H 	c #0CB605",
"I 	c #45BC0A",
"J 	c #3EB115",
"K 	c #517D61",
"L 	c #51A155",
"M 	c #129F06",
"N 	c #44C30A",
"O 	c #19A907",
"P 	c #27C507",
"Q 	c #40CC09",
"R 	c #0DC005",
"S 	c #0DAD06",
"T 	c #129D0D",
"U 	c #4F7D60",
"V 	c #509F54",
"W 	c #19A107",
"X 	c #77D410",
"Y 	c #29AC07",
"Z 	c #24C207",
"` 	c #73DC0F",
" .	c #88E311",
"..	c #45CD0A",
"+.	c #0CAD06",
"@.	c #4F7D5F",
"#.	c #78D510",
"$.	c #2AAC08",
"%.	c #39C70C",
"&.	c #80E011",
"*.	c #53D00C",
"=.	c #57D40C",
"-.	c #41BB0A",
";.	c #4E7C5F",
">.	c #3B455B",
",.	c #4FA052",
"'.	c #1EA307",
").	c #75D311",
"!.	c #43B427",
"~.	c #87DA61",
"{.	c #3BC411",
"].	c #0DA906",
"^.	c #28B807",
"/.	c #2CC107",
"(.	c #14A80C",
"_.	c #528161",
":.	c #5A9363",
"<.	c #27A223",
"[.	c #64C80E",
"}.	c #4FBC1E",
"|.	c #9FDA75",
"1.	c #4FC739",
"2.	c #10AC08",
"3.	c #54C50C",
"4.	c #44C80A",
"5.	c #3CAB3D",
"6.	c #4D6862",
"7.	c #549A5B",
"8.	c #139F06",
"9.	c #78D310",
"0.	c #45B523",
"a.	c #B8E58B",
"b.	c #2DBC1F",
"c.	c #0CAB06",
"d.	c #0CB205",
"e.	c #5BC40C",
"f.	c #52CF0B",
"g.	c #20AC17",
"h.	c #4E7261",
"i.	c #539A5A",
"j.	c #41B41E",
"k.	c #9EDA76",
"l.	c #27AD1B",
"m.	c #17BE06",
"n.	c #31C808",
"o.	c #22C206",
"p.	c #1AB006",
"q.	c #6CCF0E",
"r.	c #44B519",
"s.	c #4D7061",
"t.	c #539959",
"u.	c #35B00A",
"v.	c #1FBA14",
"w.	c #0EA707",
"x.	c #47CA1C",
"y.	c #A1E935",
"z.	c #70DB0F",
"A.	c #26B307",
"B.	c #73CF0F",
"C.	c #49B619",
"D.	c #4C6F60",
"E.	c #529859",
"F.	c #109E06",
"G.	c #5BCA0D",
"H.	c #28AD08",
"I.	c #25AA19",
"J.	c #83D955",
"K.	c #B3EB5F",
"L.	c #88E312",
"M.	c #5DC30E",
"N.	c #86D23D",
"O.	c #54B82B",
"P.	c #4D7060",
"Q.	c #519758",
"R.	c #0C9D06",
"S.	c #0FB605",
"T.	c #0DA706",
"U.	c #4EB339",
"V.	c #BFEB84",
"W.	c #58D216",
"X.	c #41CC09",
"Y.	c #43BB0C",
"Z.	c #ABD87F",
"`.	c #69BC4E",
" +	c #0CB505",
".+	c #44B124",
"++	c #95E054",
"@+	c #15BB09",
"#+	c #0EB706",
"$+	c #6AC14E",
"%+	c #44AE33",
"&+	c #4C7060",
"*+	c #519858",
"=+	c #36B009",
"-+	c #76D610",
";+	c #12AF06",
">+	c #0CAE05",
",+	c #0CAA06",
"'+	c #1B9F17",
")+	c #4A6E5F",
"!+	c #529858",
"~+	c #12B806",
"{+	c #35B009",
"]+	c #72D10F",
"^+	c #14AC06",
"/+	c #10B106",
"(+	c #4A6C5F",
"_+	c #1CAA07",
":+	c #63CE0E",
"<+	c #22AC07",
"[+	c #2FBC08",
"}+	c #40B70A",
"|+	c #53C20C",
"1+	c #13B106",
"2+	c #11AB06",
"3+	c #496C5F",
"4+	c #509758",
"5+	c #0D9D06",
"6+	c #1BB806",
"7+	c #24AC08",
"8+	c #7BD611",
"9+	c #20AA07",
"0+	c #4FBD0B",
"a+	c #67C90E",
"b+	c #57C20C",
"c+	c #46B70A",
"d+	c #1A9F17",
"e+	c #496B5F",
"f+	c #384159",
"g+	c #516366",
"h+	c #509658",
"i+	c #129E06",
"j+	c #6BCF0E",
"k+	c #38B20A",
"l+	c #7ED811",
"m+	c #33B209",
"n+	c #17BC06",
"o+	c #5BD10C",
"p+	c #68C90E",
"q+	c #66C70D",
"r+	c #52BB0C",
"s+	c #475661",
"t+	c #629F68",
"u+	c #3F4B5D",
"v+	c #3DB40A",
"w+	c #8EE012",
"x+	c #41B70A",
"y+	c #8BE112",
"z+	c #59C30C",
"A+	c #55C50C",
"B+	c #45B70A",
"C+	c #3D475C",
"D+	c #7BD510",
"E+	c #58C20D",
"F+	c #78D410",
"G+	c #82DA11",
"H+	c #38B309",
"I+	c #5AC80C",
"J+	c #14AF06",
"K+	c #12BB05",
"L+	c #10AD06",
"M+	c #1BA117",
"N+	c #4C6E60",
"O+	c #548362",
"P+	c #31A32F",
"Q+	c #60C40D",
"R+	c #86DD11",
"S+	c #3CB30A",
"T+	c #79D510",
"U+	c #18AA06",
"V+	c #0FB306",
"W+	c #2EB408",
"X+	c #30B608",
"Y+	c #0EAB07",
"Z+	c #44A449",
"`+	c #475E60",
" @	c #465660",
".@	c #588366",
"+@	c #363F59",
"@@	c #4E9E52",
"#@	c #1BA107",
"$@	c #32AF09",
"%@	c #4FC70B",
"&@	c #12A906",
"*@	c #70C43C",
"=@	c #76C63F",
"-@	c #119D0D",
";@	c #4F7B60",
">@	c #5A8567",
",@	c #1EA10F",
"'@	c #99DA59",
")@	c #33AD1C",
"!@	c #34C023",
"~@	c #72C653",
"{@	c #14AF0B",
"]@	c #88D264",
"^@	c #8ECA6A",
"/@	c #507D60",
"(@	c #4F9F54",
"_@	c #22A116",
":@	c #AFDE83",
"<@	c #3EB02C",
"[@	c #3FC61D",
"}@	c #AAE65B",
"|@	c #A5DC78",
"1@	c #A9E766",
"2@	c #70C537",
"3@	c #527E62",
"4@	c #4F9E53",
"5@	c #129F0A",
"6@	c #59C840",
"7@	c #91D567",
"8@	c #2AB317",
"9@	c #64D421",
"0@	c #93E24C",
"a@	c #57C531",
"b@	c #29B407",
"c@	c #12A60D",
"d@	c #507C61",
"e@	c #539C58",
"f@	c #149F0F",
"g@	c #25BC0C",
"h@	c #8BDD34",
"i@	c #2DAF0D",
"j@	c #1ABF06",
"k@	c #28C507",
"l@	c #0CB005",
"m@	c #0CAF06",
"n@	c #22AC20",
"o@	c #4F7661",
"p@	c #41515E",
"q@	c #43545F",
"r@	c #4A5F62",
"s@	c #41A242",
"t@	c #1FA707",
"u@	c #80DC11",
"v@	c #7AD510",
"w@	c #27B307",
"x@	c #0DB305",
"y@	c #19B206",
"z@	c #1BB109",
"A@	c #51915C",
"B@	c #43505F",
"C@	c #4DB253",
"D@	c #47BB49",
"E@	c #495D62",
"F@	c #38415A",
"G@	c #459F48",
"H@	c #0EA006",
"I@	c #33C408",
"J@	c #7CDE10",
"K@	c #5FCD0D",
"L@	c #1DB307",
"M@	c #6AD423",
"N@	c #62C325",
"O@	c #50B056",
"P@	c #49B74D",
"Q@	c #455960",
"R@	c #52975A",
"S@	c #1CA119",
"T@	c #0EB505",
"U@	c #19C206",
"V@	c #22C407",
"W@	c #6AD524",
"X@	c #AFE75F",
"Y@	c #7EC263",
"Z@	c #547C64",
"`@	c #3E4C5C",
" #	c #3C4A5B",
".#	c #44535F",
"+#	c #3A9F3C",
"@#	c #0CA206",
"##	c #2EC708",
"$#	c #85DE3F",
"%#	c #75C852",
"&#	c #54905D",
"*#	c #384259",
"=#	c #52925C",
"-#	c #1FA21C",
";#	c #0DBF05",
">#	c #10BC07",
",#	c #39AD3B",
"'#	c #4E7361",
")#	c #3B475B",
"!#	c #1DA21A",
"~#	c #0FAD08",
"{#	c #38AC3A",
"]#	c #4F7562",
"^#	c #507E62",
"/#	c #507564",
"(#	c #3B485A",
"_#	c #4E815E",
":#	c #4D865B",
"<#	c #4C7160",
"[#	c #537C65",
"}#	c #4F6F64",
"    . + + + + + + + + + + + + + + + + + + + + + + + + + + + + + + + + + + + + + + + .     ",
"  @ # $ $ $ $ $ $ $ $ $ $ $ $ $ $ $ $ $ $ $ $ $ $ $ $ $ $ $ $ $ $ $ $ $ $ $ $ $ $ $ # @   ",
". # % % % % % % % % % % % % % % % % % % % % % % % % % % % % % % % % % % % % % % % % % # . ",
"+ $ % % % % % % % % % % % % % % % % % % & * = - ; % % % % % % % % % % % % % % % % % % $ + ",
"+ $ % % % % % % % % % % % % % % % % % > , ' ) ! ~ ; % % % % % % % % % % % % % % % % % $ + ",
"+ $ % % % % % % % % % % % % % % % % { ] ^ / ( _ : < % % % % % % % % % % % % % % % % % $ + ",
"+ $ % % % % % % % % % % % % % % % % [ } | 1 2 3 4 5 6 % % % % % % % % % % % % % % % % $ + ",
"+ $ % % % % % % % % % % % % % % % 7 8 9 0 a b c d e f % % % % % % % % % % % % % % % % $ + ",
"+ $ % % % % % % % % % % % % % % % g h i j k l m n o p % % % % % % % % % % % % % % % % $ + ",
"+ $ % % % % % % % % % % % % % % % q r s t u v w x y z A % % % % % % % % % % % % % % % $ + ",
"+ $ % % % % % % % % % % % % % % % B C D E F w G H I J K % % % % % % % % % % % % % % % $ + ",
"+ $ % % % % % % % % % % % % % % % L M N O v P Q R S T U % % % % % % % % % % % % % % % $ + ",
"+ $ % % % % % % % % % % % % % % % V W X Y Z `  ...+.T @.% % % % % % % % % % % % % % % $ + ",
"+ $ % % % % % % % % % % % % % % % V W #.$.%.&.*.=.-.T ;.% % % % % % % % % % % % % % % $ + ",
"+ $ % % % % % % % % % % % % % % >.,.'.).!.~.{.].^./.(._.% % % % % % % % % % % % % % % $ + ",
"+ $ % % % % % % % % % % % % % % :.<.[.}.|.1.2.D F 3.4.5.6.% % % % % % % % % % % % % % $ + ",
"+ $ % % % % % % % % % % % % % % 7.8.9.0.a.b.c.w d.e.f.g.h.% % % % % % % % % % % % % % $ + ",
"+ $ % % % % % % % % % % % % % % i.8.9.j.k.l.m.n.o.p.q.r.s.% % % % % % % % % % % % % % $ + ",
"+ $ % % % % % % % % % % % % % % t.8.9.u.v.w.x.y.z.A.B.C.D.% % % % % % % % % % % % % % $ + ",
"+ $ % % % % % % % % % % % % % % E.F.G.H.D I.J.K.L.M.N.O.P.% % % % % % % % % % % % % % $ + ",
"+ $ % % % % % % % % % % % % % % Q.R.S.T.D U.V.W.X.Y.Z.`.h.% % % % % % % % % % % % % % $ + ",
"+ $ % % % % % % % % % % % % % % Q.R. +s D .+++@+D #+$+%+&+% % % % % % % % % % % % % % $ + ",
"+ $ % % % % % % % % % % % % % % *+R. +s D =+-+;+>+H ,+'+)+% % % % % % % % % % % % % % $ + ",
"+ $ % % % % % % % % % % % % % % !+R. +T.~+{+]+^+/+F ,+'+(+% % % % % % % % % % % % % % $ + ",
"+ $ % % % % % % % % % % % % % % Q.R. +_+:+<+[+}+|+1+2+'+3+% % % % % % % % % % % % % % $ + ",
"+ $ % % % % % % % % % % % % % % 4+5+6+7+8+9+H 0+a+b+c+d+e+% % % % % % % % % % % % % % $ + ",
"+ $ % % % % % % % % f+g+; % % % h+i+j+k+l+m+n+o+p+q+r+d+e+% % % % % % % % % % % % % % $ + ",
"+ $ % % % % % % % % s+t+u+% % % h+8.9.v+w+l+x+y+z+A+B+'+(+% % % % % % % % % % % % % % $ + ",
"+ $ % % % % % % % % % C+% % % % h+8.D+E+F+G+H+I+J+K+L+M+N+% % % % % % % % % % % % % % $ + ",
"+ $ % % % % % % % % % % % % % % O+P+Q+R+S+T+U+V+W+X+Y+Z+`+% % % % % % % % % % % % % % $ + ",
"+ $ % % % % % % % % %  @.@+@% % ; @@#@#.$@%@&@d.*@=@-@;@% % % % % % % % % % % % % % % $ + ",
"+ $ % % % % % % % % % s+>@+@% % % V ,@'@)@!@~@{@]@^@-@/@% % % % % % % % % % % % % % % $ + ",
"+ $ % % % % % % % % % % % % % % % (@_@:@<@[@}@|@1@2@-@3@% % % % % % % % % % % % % % % $ + ",
"+ $ % % % % % % % % % % % % % % % 4@5@6@7@8@9@0@a@b@c@d@% % % % % % % % % % % % % % % $ + ",
"+ $ % % % % % % % % % % % % % % % e@f@g@h@i@j@k@l@m@n@o@p@q@; % % % % % % % % % % % % $ + ",
"+ $ % % % % % % % % % % % % % % % r@s@t@u@v@w@x@y@z@A@B@C@D@E@% % % % % % % % % % % % $ + ",
"+ $ % % % % % % % % % % % % % % % F@G@H@I@J@K@L@M@N@p { O@P@Q@% % % % % % % % % % % % $ + ",
"+ $ % % % % % % % % % % % % % % % 7 R@S@T@U@V@W@X@Y@Z@% `@ #% % % % % % % % % % % % % $ + ",
"+ $ % % % % % % % % % % % % % % % % .#+#@#v ##$#%#&#+@% % % % % % % % % % % % % % % % $ + ",
"+ $ % % % % % % % % % % % % % % % % *#=#-#d.;#>#,#'#% % % % % % % % % % % % % % % % % $ + ",
"+ $ % % % % % % % % % % % % % % % % % )#=#!#~#{#]#^#/#% % % % % % % % % % % % % % % % $ + ",
"+ $ % % % % % % % % % % % % % % % % % % (#_#:#<#% [#}#% % % % % % % % % % % % % % % % $ + ",
". # % % % % % % % % % % % % % % % % % % % % % % % % % % % % % % % % % % % % % % % % % # . ",
"  @ # $ $ $ $ $ $ $ $ $ $ $ $ $ $ $ $ $ $ $ $ $ $ $ $ $ $ $ $ $ $ $ $ $ $ $ $ $ $ $ # @   ",
"    . + + + + + + + + + + + + + + + + + + + + + + + + + + + + + + + + + + + + + + + .     "};
