/* XPM */
static char * PORTAL2_xpm[] = {
"45 45 388 2",
"  	c #1A1C2C",
". 	c #212538",
"+ 	c #212639",
"@ 	c #191A2A",
"# 	c #323B56",
"$ 	c #333C58",
"% 	c #333C57",
"& 	c #353F58",
"* 	c #476A5D",
"= 	c #49705D",
"- 	c #3F565B",
"; 	c #4F855D",
"> 	c #26A325",
", 	c #1BAB17",
"' 	c #41A446",
") 	c #3F595B",
"! 	c #343E58",
"~ 	c #4E845D",
"{ 	c #26A424",
"] 	c #0DAF06",
"^ 	c #0CBE05",
"/ 	c #0FB808",
"( 	c #41A347",
"_ 	c #3E565A",
": 	c #3F4C5C",
"< 	c #38A03B",
"[ 	c #0CA306",
"} 	c #25C307",
"| 	c #5CD40C",
"1 	c #45CD0A",
"2 	c #11B009",
"3 	c #478157",
"4 	c #508D5B",
"5 	c #23A220",
"6 	c #21B607",
"7 	c #58CF0C",
"8 	c #6ACD0F",
"9 	c #86E211",
"0 	c #46C70B",
"a 	c #40AA42",
"b 	c #43605C",
"c 	c #353E58",
"d 	c #409D43",
"e 	c #0CA006",
"f 	c #19BA06",
"g 	c #38B709",
"h 	c #24B507",
"i 	c #68CB0E",
"j 	c #5FD50C",
"k 	c #12AD0C",
"l 	c #47795A",
"m 	c #3C4A5B",
"n 	c #3FA142",
"o 	c #0CA206",
"p 	c #0CB405",
"q 	c #0CA805",
"r 	c #21B007",
"s 	c #29C507",
"t 	c #16AF0C",
"u 	c #4C835C",
"v 	c #509658",
"w 	c #1CA217",
"x 	c #0CB105",
"y 	c #0CAA06",
"z 	c #0CB905",
"A 	c #0CBD05",
"B 	c #50C20B",
"C 	c #53CE0C",
"D 	c #38AE34",
"E 	c #45655D",
"F 	c #499C4E",
"G 	c #0EA006",
"H 	c #23BB07",
"I 	c #10A806",
"J 	c #0CC005",
"K 	c #0CB505",
"L 	c #53C00C",
"M 	c #91E226",
"N 	c #50BB21",
"O 	c #46715B",
"P 	c #479B4D",
"Q 	c #1CA207",
"R 	c #6ED10F",
"S 	c #24AC07",
"T 	c #0CBF05",
"U 	c #17B107",
"V 	c #72B057",
"W 	c #5DB049",
"X 	c #46705B",
"Y 	c #46994C",
"Z 	c #1DA307",
"` 	c #77D410",
" .	c #26AC08",
"..	c #1BC006",
"+.	c #42CC09",
"@.	c #30C808",
"#.	c #0EB006",
"$.	c #7CC351",
"%.	c #63BA42",
"&.	c #479A4C",
"*.	c #17A107",
"=.	c #55C90C",
"-.	c #1DAA07",
";.	c #39C808",
">.	c #95E713",
",.	c #6DD90E",
"'.	c #0FB006",
").	c #68C911",
"!.	c #52BC19",
"~.	c #4A755D",
"{.	c #486F5D",
"].	c #39A338",
"^.	c #44B70B",
"/.	c #1FB307",
"(.	c #2AB61C",
"_.	c #71D34C",
":.	c #66C912",
"<.	c #5CCC0D",
"[.	c #3AC209",
"}.	c #43BC0A",
"|.	c #35B70F",
"1.	c #4FA056",
"2.	c #3D4D5B",
"3.	c #448F4F",
"4.	c #16A007",
"5.	c #71D10F",
"6.	c #3AB219",
"7.	c #7ED25E",
"8.	c #77C951",
"9.	c #4BC010",
"0.	c #31B708",
"a.	c #38C009",
"b.	c #0DAD05",
"c.	c #0CB205",
"d.	c #1FA91C",
"e.	c #47665E",
"f.	c #829B6C",
"g.	c #7A8E6D",
"h.	c #0F9F06",
"i.	c #39BF09",
"j.	c #39B126",
"k.	c #AADC80",
"l.	c #31AF1C",
"m.	c #37C808",
"n.	c #0EB305",
"o.	c #0CAE05",
"p.	c #0CAC05",
"q.	c #1FA91B",
"r.	c #45635D",
"s.	c #677963",
"t.	c #617064",
"u.	c #44904F",
"v.	c #0C9D06",
"w.	c #0CA506",
"x.	c #19B30F",
"y.	c #49B735",
"z.	c #14B80B",
"A.	c #0CAD05",
"B.	c #1EA91C",
"C.	c #44615D",
"D.	c #45904F",
"E.	c #0C9C06",
"F.	c #0C9F06",
"G.	c #0CB605",
"H.	c #0FA806",
"I.	c #1EC106",
"J.	c #19C306",
"K.	c #435F5C",
"L.	c #469150",
"M.	c #2BAE08",
"N.	c #7DDC10",
"O.	c #60D40D",
"P.	c #20B707",
"Q.	c #1EB607",
"R.	c #23AB1C",
"S.	c #479350",
"T.	c #0E9E06",
"U.	c #27BA07",
"V.	c #13B806",
"W.	c #30B308",
"X.	c #7AD610",
"Y.	c #43BB0B",
"Z.	c #50C40C",
"`.	c #20B207",
" +	c #20B107",
".+	c #64CA0E",
"++	c #42B41D",
"@+	c #479351",
"#+	c #15A007",
"$+	c #6CD00F",
"%+	c #30B109",
"&+	c #41C60A",
"*+	c #67CD0E",
"=+	c #34B909",
"-+	c #15B406",
";+	c #58C20C",
">+	c #54BF0C",
",+	c #6DCD0F",
"'+	c #47B51D",
")+	c #489351",
"!+	c #18A00B",
"~+	c #87D53F",
"{+	c #42B419",
"]+	c #72D30F",
"^+	c #35B309",
"/+	c #4DCE0B",
"(+	c #0FB306",
"_+	c #5EC30D",
":+	c #59C10D",
"<+	c #3B4B5A",
"[+	c #487F59",
"}+	c #46675D",
"|+	c #1CA112",
"1+	c #A9DB7E",
"2+	c #4BB433",
"3+	c #50C90C",
"4+	c #16B006",
"5+	c #0FB106",
"6+	c #43B92F",
"7+	c #8AD63D",
"8+	c #425D5C",
"9+	c #44675B",
"0+	c #1A9F16",
"a+	c #438B50",
"b+	c #45914F",
"c+	c #149F0C",
"d+	c #6FCC52",
"e+	c #6ABA54",
"f+	c #23B518",
"g+	c #25C007",
"h+	c #70C833",
"i+	c #A2DB63",
"j+	c #B2ED46",
"k+	c #42C00A",
"l+	c #31AF1D",
"m+	c #415B5B",
"n+	c #384759",
"o+	c #437856",
"p+	c #43645C",
"q+	c #428F4E",
"r+	c #0C9E06",
"s+	c #2BBD1B",
"t+	c #72A265",
"u+	c #34AC25",
"v+	c #21C206",
"w+	c #77DA2E",
"x+	c #AFEC45",
"y+	c #7ADE11",
"z+	c #31B508",
"A+	c #1FA81D",
"B+	c #405B5B",
"C+	c #4B705F",
"D+	c #43685A",
"E+	c #418D4D",
"F+	c #139F06",
"G+	c #5DCD13",
"H+	c #59CA39",
"I+	c #1BA911",
"J+	c #12BF05",
"K+	c #22C407",
"L+	c #47CD0A",
"M+	c #2EBC08",
"N+	c #0CAF05",
"O+	c #0CBB05",
"P+	c #1EA81D",
"Q+	c #3E4E5C",
"R+	c #3C4D5B",
"S+	c #468D52",
"T+	c #1BA10F",
"U+	c #6CD10F",
"V+	c #34C508",
"W+	c #25AE08",
"X+	c #58D10D",
"Y+	c #1CC306",
"Z+	c #13B106",
"`+	c #13B306",
" @	c #0DBD06",
".@	c #28A52B",
"+@	c #3B4F59",
"@@	c #3F525C",
"#@	c #429F45",
"$@	c #2EAB08",
"%@	c #5ECE0D",
"&@	c #2FBF08",
"*@	c #43BA0B",
"=@	c #66D70E",
"-@	c #1FB906",
";@	c #50BF0C",
">@	c #4BCC0A",
",@	c #15AE11",
"'@	c #427357",
")@	c #499C4F",
"!@	c #0E9D06",
"~@	c #30AD09",
"{@	c #70D30F",
"]@	c #49BA0B",
"^@	c #7ED911",
"/@	c #5BC70D",
"(@	c #5AC60D",
"_@	c #4CCC0B",
":@	c #17A813",
"<@	c #406559",
"[@	c #4B9F4F",
"}@	c #109D06",
"|@	c #3AB109",
"1@	c #80D911",
"2@	c #45B80B",
"3@	c #53C40C",
"4@	c #4DCF0B",
"5@	c #14AF06",
"6@	c #18A014",
"7@	c #42695A",
"8@	c #57C90C",
"9@	c #7BDC10",
"0@	c #98E713",
"a@	c #13BC06",
"b@	c #18A114",
"c@	c #4A9D4F",
"d@	c #10B805",
"e@	c #0DAE05",
"f@	c #2DBC08",
"g@	c #6CD90E",
"h@	c #4FD00B",
"i@	c #0EB005",
"j@	c #36B909",
"k@	c #2FB015",
"l@	c #436B5A",
"m@	c #4E805E",
"n@	c #2CA22B",
"o@	c #0DB805",
"p@	c #0DA806",
"q@	c #0EBE05",
"r@	c #0EBA05",
"s@	c #38B909",
"t@	c #58CC0D",
"u@	c #37B316",
"v@	c #436A5A",
"w@	c #384159",
"x@	c #419F44",
"y@	c #1AA407",
"z@	c #5DCE0D",
"A@	c #58C40D",
"B@	c #16AF09",
"C@	c #39B80B",
"D@	c #7FD811",
"E@	c #58C80F",
"F@	c #469C4E",
"G@	c #3A4B5A",
"H@	c #39435A",
"I@	c #449F48",
"J@	c #16A308",
"K@	c #55CD0C",
"L@	c #96E331",
"M@	c #A7DA75",
"N@	c #A0DF57",
"O@	c #76DC11",
"P@	c #32B416",
"Q@	c #426E58",
"R@	c #4C7060",
"S@	c #2FA22E",
"T@	c #17AC06",
"U@	c #5CD11D",
"V@	c #ACEB4B",
"W@	c #89E037",
"X@	c #2DBB0A",
"Y@	c #469650",
"Z@	c #384659",
"`@	c #384359",
" #	c #3C9A42",
".#	c #10A30A",
"+#	c #17BD06",
"@#	c #34C808",
"##	c #27C407",
"$#	c #1DB019",
"%#	c #417356",
"&#	c #435E5D",
"*#	c #399F3C",
"=#	c #0FA809",
"-#	c #1FB41C",
";#	c #448753",
">#	c #364258",
",#	c #435D5C",
"'#	c #3D9944",
")#	c #389D3E",
"!#	c #438454",
"~#	c #364058",
"{#	c #384259",
"]#	c #39445A",
"    . + + + + + + + + + + + + + + + + + + + + + + + + + + + + + + + + + + + + + + + .     ",
"  @ # $ $ $ $ $ $ $ $ $ $ $ $ $ $ $ $ $ $ $ $ $ $ $ $ $ $ $ $ $ $ $ $ $ $ $ $ $ $ $ # @   ",
". # % % % % % % % % % % % % % % % % % % % % % % % % % % % % % % % % % % % % % % % % % # . ",
"+ $ % % % % % % % % % % % % % % % % % % % % % % % % % % % % % % % % % % % % % % % % % $ + ",
"+ $ % % % % % % % % % % % % % % % % % % & * = - % % % % % % % % % % % % % % % % % % % $ + ",
"+ $ % % % % % % % % % % % % % % % % % & ; > , ' ) % % % % % % % % % % % % % % % % % % $ + ",
"+ $ % % % % % % % % % % % % % % % % ! ~ { ] ^ / ( _ % % % % % % % % % % % % % % % % % $ + ",
"+ $ % % % % % % % % % % % % % % % % : < [ } | 1 2 3 % % % % % % % % % % % % % % % % % $ + ",
"+ $ % % % % % % % % % % % % % % % % 4 5 6 7 8 9 0 a b % % % % % % % % % % % % % % % % $ + ",
"+ $ % % % % % % % % % % % % % % % c d e f g h i j k l % % % % % % % % % % % % % % % % $ + ",
"+ $ % % % % % % % % % % % % % % % m n o p q p r s t u % % % % % % % % % % % % % % % % $ + ",
"+ $ % % % % % % % % % % % % % % % v w x y z A x B C D E % % % % % % % % % % % % % % % $ + ",
"+ $ % % % % % % % % % % % % % % % F G H I A J K L M N O % % % % % % % % % % % % % % % $ + ",
"+ $ % % % % % % % % % % % % % % % P Q R S A J T U V W X % % % % % % % % % % % % % % % $ + ",
"+ $ % % % % % % % % % % % % % % % Y Z `  ...+.@.#.$.%.X % % % % % % % % % % % % % % % $ + ",
"+ $ % % % % % % % % % % % % % % % &.*.=.-.;.>.,.'.).!.~.% % % % % % % % % % % % % % % $ + ",
"+ $ % % % % % % % % % % % % % % {.].^./.(._.:.<.[.}.|.1.2.% % % % % % % % % % % % % % $ + ",
"+ $ % % % % % % % % % % % % % % 3.4.5.6.7.8.9.0.a.b.c.d.e.% % % % % f.g.% % % % % % % $ + ",
"+ $ % % % % % % % % % % % % % % 3.h.i.j.k.l.m.n.o.p.c.q.r.% % % % % s.t.% % % % % % % $ + ",
"+ $ % % % % % % % % % % % % % % u.v.w.x.y.z.T c.A.p.c.B.C.% % % % % % % % % % % % % % $ + ",
"+ $ % % % % % % % % % % % % % % D.E.F.G.H.I.J.c.A.p.c.B.K.% % % % % % % % % % % % % % $ + ",
"+ $ % % % % % % % % % % % % % % L.E.[ G.M.N.O.P.o.p.Q.R.K.% % % % % % % % % % % % % % $ + ",
"+ $ % % % % % % % % % % % % % % S.T.U.V.W.X.Y.Z.`. +.+++K.% % % % % % % % % % % % % % $ + ",
"+ $ % % % % % % % % % % % % % % @+#+$+%+&+*+=+-+;+>+,+'+K.% % % % % % % % % % % % % % $ + ",
"+ $ % % % % % % % % % % % % % % )+!+~+{+]+^+/+(+_+:+,+'+K.% % % % % % % % % % % % % % $ + ",
"+ $ % % % % % % % % % % <+[+}+% S.|+1+2+3+4+5+6+7+:+,+'+8+% % % % % % % % % % % % % % $ + ",
"+ $ % % % % % % % % % % 9+0+a+% b+c+d+e+f+g+h+i+j+:+k+l+m+% % % % % % % % % % % % % % $ + ",
"+ $ % % % % % % % % % % n+o+p+% q+r+s+t+u+v+w+x+y+z+c.A+B+% % % % % % % % % % % % % % $ + ",
"+ $ % % % % % % % % % % % % C+D+E+F+G+H+I+J+K+L+M+N+O+P+) % % % % % % % % % % % % % % $ + ",
"+ $ % % % % % % % % % % % % Q+R+S+T+U+V+W+X+Y+T Z+`+ @.@+@% % % % % % % % % % % % % % $ + ",
"+ $ % % % % % % % % % % % % % % @@#@$@%@&@*@=@-@;@>@,@'@% % % % % % % % % % % % % % % $ + ",
"+ $ % % % % % % % % % % % % % % % )@!@~@{@]@^@/@(@_@:@<@% % % % % % % % % % % % % % % $ + ",
"+ $ % % % % % % % % % % % % % % % [@}@|@X.1@2@3@4@5@6@7@% % % % % % % % % % % % % % % $ + ",
"+ $ % % % % % % % % % % % % % % % [@*.8@^+9@0@,.a@A.b@7@% % % % % % % % % % % % % % % $ + ",
"+ $ % % % % % % % % % % % % % % % c@F.d@e@f@g@h@i@j@k@l@% % % % % % % % % % % % % % % $ + ",
"+ $ % % % % % % % % % % % % % % % m@n@o.o@p@q@r@s@t@u@v@% % % % % % % % % % % % % % % $ + ",
"+ $ % % % % % % % % % % % % % % % w@x@y@z@A@B@C@D@E@F@G@% % % % % % % % % % % % % % % $ + ",
"+ $ % % % % % % % % % % % % % % % H@I@J@K@L@M@N@O@P@Q@% % % % % % % % % % % % % % % % $ + ",
"+ $ % % % % % % % % % % % % % % % % R@S@T@U@V@W@X@Y@Z@% % % % % % % % % % % % % % % % $ + ",
"+ $ % % % % % % % % % % % % % % % % `@ #.#+#@###$#%#% % % % % % % % % % % % % % % % % $ + ",
"+ $ % % % % % % % % % % % % % % % % % &#*#=#z -#;#>#% % % % % % % % % % % % % % % % % $ + ",
"+ $ % % % % % % % % % % % % % % % % % % ,#'#)#!#~#% % % % % % % % % % % % % % % % % % $ + ",
". # % % % % % % % % % % % % % % % % % % % {#]#! % % % % % % % % % % % % % % % % % % % # . ",
"  @ # $ $ $ $ $ $ $ $ $ $ $ $ $ $ $ $ $ $ $ $ $ $ $ $ $ $ $ $ $ $ $ $ $ $ $ $ $ $ $ # @   ",
"    . + + + + + + + + + + + + + + + + + + + + + + + + + + + + + + + + + + + + + + + .     "};
