/* XPM */
static char * PORTAL1_xpm[] = {
"45 45 406 2",
"  	c #1A1C2C",
". 	c #212538",
"+ 	c #212639",
"@ 	c #191A2A",
"# 	c #323B56",
"$ 	c #333C58",
"% 	c #333C57",
"& 	c #46605F",
"* 	c #4C9853",
"= 	c #4B9C51",
"- 	c #51835F",
"; 	c #353E58",
"> 	c #38415A",
", 	c #496160",
"' 	c #46A347",
") 	c #3EB20E",
"! 	c #7BD510",
"~ 	c #69C632",
"{ 	c #5B8C63",
"] 	c #363F58",
"^ 	c #3F4B5D",
"/ 	c #649D6A",
"( 	c #424F5E",
"_ 	c #39445A",
": 	c #3F4F5C",
"< 	c #46A249",
"[ 	c #32AC0E",
"} 	c #83DC11",
"| 	c #93E612",
"1 	c #8CE112",
"2 	c #5FC02F",
"3 	c #4D765F",
"4 	c #475B60",
"5 	c #4E6863",
"6 	c #5E9566",
"7 	c #343E58",
"8 	c #517264",
"9 	c #31A52D",
"0 	c #3FB50A",
"a 	c #6BD80E",
"b 	c #2DC507",
"c 	c #5AD10C",
"d 	c #58C50F",
"e 	c #58935C",
"f 	c #384359",
"g 	c #384259",
"h 	c #43535F",
"i 	c #3D495C",
"j 	c #44A147",
"k 	c #2CA90C",
"l 	c #6FD70F",
"m 	c #22C307",
"n 	c #1DB606",
"o 	c #28B608",
"p 	c #62D20E",
"q 	c #57BC27",
"r 	c #4B725F",
"s 	c #3F4C5D",
"t 	c #3CA03D",
"u 	c #2DA908",
"v 	c #7EDD10",
"w 	c #3AC109",
"x 	c #4CBC0B",
"y 	c #60C60D",
"z 	c #66C90E",
"A 	c #54BD16",
"B 	c #4C785E",
"C 	c #527D62",
"D 	c #32A52D",
"E 	c #47BB0B",
"F 	c #6CD60E",
"G 	c #5FC80E",
"H 	c #6CCD0F",
"I 	c #7AD410",
"J 	c #5CC50D",
"K 	c #57C213",
"L 	c #5FA35B",
"M 	c #404F5D",
"N 	c #3A435A",
"O 	c #459F48",
"P 	c #19A307",
"Q 	c #4ECC0C",
"R 	c #18BB06",
"S 	c #44B60A",
"T 	c #9BE813",
"U 	c #9EEA14",
"V 	c #5CC20D",
"W 	c #6BCB0E",
"X 	c #4AB81D",
"Y 	c #4C7060",
"Z 	c #3B445B",
"` 	c #46A149",
" .	c #22A317",
"..	c #5AB94A",
"+.	c #2FB715",
"@.	c #73D10F",
"#.	c #9FEA14",
"$.	c #3FBE0A",
"%.	c #31AF1A",
"&.	c #4B6E5F",
"*.	c #31A523",
"=.	c #74A066",
"-.	c #46B520",
";.	c #97E613",
">.	c #9CEA13",
",.	c #9DEA14",
"'.	c #5CC10D",
").	c #0CB105",
"!.	c #1CA919",
"~.	c #496B5F",
"{.	c #18A20F",
"].	c #4BC136",
"^.	c #3BB20F",
"/.	c #7DDE10",
"(.	c #48CE0A",
"_.	c #6EDA0E",
":.	c #5AC10D",
"<.	c #12B306",
"[.	c #1EAA1A",
"}.	c #48695E",
"|.	c #42505E",
"1.	c #44A346",
"2.	c #18A407",
"3.	c #11B506",
"4.	c #3CB50A",
"5.	c #6AD70E",
"6.	c #12BE05",
"7.	c #5DD116",
"8.	c #63C418",
"9.	c #53C40C",
"0.	c #38B319",
"a.	c #517A63",
"b.	c #509558",
"c.	c #23A416",
"d.	c #67CC0E",
"e.	c #35B409",
"f.	c #6AD30E",
"g.	c #2DBE08",
"h.	c #1DAB07",
"i.	c #5BB344",
"j.	c #83B751",
"k.	c #52BB1C",
"l.	c #18B409",
"m.	c #3EAB3E",
"n.	c #465B5F",
"o.	c #499A4E",
"p.	c #1BA207",
"q.	c #77D410",
"r.	c #3CB40A",
"s.	c #76D410",
"t.	c #42B80B",
"u.	c #6BD50E",
"v.	c #2EB816",
"w.	c #649F56",
"x.	c #4E9F44",
"y.	c #25B907",
"z.	c #2CAB26",
"A.	c #496360",
"B.	c #479A4E",
"C.	c #76D310",
"D.	c #47B80B",
"E.	c #97E713",
"F.	c #70D010",
"G.	c #63AE4B",
"H.	c #58AE3E",
"I.	c #5CC70D",
"J.	c #3AAE26",
"K.	c #47994E",
"L.	c #9CE813",
"M.	c #9DE914",
"N.	c #5DC211",
"O.	c #6BCB11",
"P.	c #45B50A",
"Q.	c #29A226",
"R.	c #486260",
"S.	c #489A4E",
"T.	c #48B80B",
"U.	c #87E211",
"V.	c #40BA0A",
"W.	c #6BCC0F",
"X.	c #44B40A",
"Y.	c #28A225",
"Z.	c #4F8D5F",
"`.	c #528662",
" +	c #499B4F",
".+	c #14A006",
"++	c #4BC50B",
"@+	c #27AD08",
"#+	c #4AC40B",
"$+	c #2EB108",
"%+	c #44C60A",
"&+	c #0FB705",
"*+	c #3FC209",
"=+	c #5AC40D",
"-+	c #56C20D",
";+	c #34A926",
">+	c #4F6E63",
",+	c #2EBE2F",
"'+	c #45B749",
")+	c #353F58",
"!+	c #4B9D4F",
"~+	c #0C9F06",
"{+	c #0CB505",
"]+	c #0CA706",
"^+	c #2FB108",
"/+	c #4AC20B",
"(+	c #0EAE06",
"_+	c #64D60D",
":+	c #51BC0C",
"<+	c #3FC00A",
"[+	c #32AD26",
"}+	c #4A6361",
"|+	c #4A885B",
"1+	c #497E5D",
"2+	c #4A9C4F",
"3+	c #6DD50F",
"4+	c #13B106",
"5+	c #30BD08",
"6+	c #27B108",
"7+	c #15B60C",
"8+	c #29AA26",
"9+	c #496361",
"0+	c #39435A",
"a+	c #4A9C50",
"b+	c #11B609",
"c+	c #49B815",
"d+	c #85DF11",
"e+	c #50C20C",
"f+	c #1BB406",
"g+	c #18AD0C",
"h+	c #62AC54",
"i+	c #49B13D",
"j+	c #4B6562",
"k+	c #4E6F64",
"l+	c #60A668",
"m+	c #4A9B4F",
"n+	c #0D9F06",
"o+	c #1CB807",
"p+	c #0FA806",
"q+	c #3BC22C",
"r+	c #6BAF58",
"s+	c #40B31E",
"t+	c #59C40D",
"u+	c #7DDB11",
"v+	c #4FBD1F",
"w+	c #87B766",
"x+	c #56B443",
"y+	c #496260",
"z+	c #3C495B",
"A+	c #475E60",
"B+	c #19A207",
"C+	c #6AD00F",
"D+	c #28C30F",
"E+	c #54C741",
"F+	c #67BF50",
"G+	c #65D50F",
"H+	c #63C70F",
"I+	c #6EAC58",
"J+	c #A5DE4E",
"K+	c #48B42A",
"L+	c #47605F",
"M+	c #499A4F",
"N+	c #7AD610",
"O+	c #4CBD0C",
"P+	c #60D00D",
"Q+	c #3CCB0F",
"R+	c #63D718",
"S+	c #98E813",
"T+	c #5CC20F",
"U+	c #75B354",
"V+	c #91DA3E",
"W+	c #3EB226",
"X+	c #465F5F",
"Y+	c #48994E",
"Z+	c #87DC12",
"`+	c #42B70B",
" @	c #91E512",
".@	c #9BE913",
"+@	c #8EE512",
"@@	c #48BC0B",
"#@	c #6FCE16",
"$@	c #4BCD0E",
"%@	c #28A926",
"&@	c #455D5E",
"*@	c #4A815A",
"=@	c #2DA427",
"-@	c #68C90E",
";@	c #83DD11",
">@	c #33B709",
",@	c #8DE412",
"'@	c #4ECB0B",
")@	c #35B809",
"!@	c #5DCD0D",
"~@	c #34BF0E",
"{@	c #469E4D",
"]@	c #3B4B5A",
"^@	c #363F59",
"/@	c #419C46",
"(@	c #25A608",
"_@	c #76D910",
":@	c #20BC07",
"<@	c #2FB008",
"[@	c #47CD0A",
"}@	c #0FB106",
"|@	c #41BD0A",
"1@	c #35BF08",
"2@	c #1CA519",
"3@	c #496C5F",
"4@	c #384159",
"5@	c #439E47",
"6@	c #17A007",
"7@	c #4FC00C",
"8@	c #52CD0C",
"9@	c #14B206",
"0@	c #0DAD06",
"a@	c #0CAE05",
"b@	c #0DB805",
"c@	c #0CAA06",
"d@	c #1DA019",
"e@	c #496D5F",
"f@	c #0D9C06",
"g@	c #2FAB08",
"h@	c #5BD10C",
"i@	c #10B406",
"j@	c #0EB905",
"k@	c #0EB405",
"l@	c #0FAF06",
"m@	c #1EA519",
"n@	c #496C5E",
"o@	c #5AC60D",
"p@	c #59C30D",
"q@	c #76DC10",
"r@	c #1CC306",
"s@	c #45CD0A",
"t@	c #45BC0B",
"u@	c #56C60C",
"v@	c #3CB21B",
"w@	c #489B4E",
"x@	c #17A30C",
"y@	c #31BF08",
"z@	c #36B309",
"A@	c #87DF11",
"B@	c #84E211",
"C@	c #60CB0D",
"D@	c #60C70D",
"E@	c #89DE12",
"F@	c #4FB62C",
"G@	c #47655F",
"H@	c #475F60",
"I@	c #3BA737",
"J@	c #5ACD0D",
"K@	c #1EBA07",
"L@	c #4CBD0B",
"M@	c #8DDF12",
"N@	c #5EC50D",
"O@	c #58C214",
"P@	c #55885E",
"Q@	c #404D5D",
"R@	c #3CA03C",
"S@	c #20AA07",
"T@	c #28C307",
"U@	c #25BB16",
"V@	c #49B033",
"W@	c #33B822",
"X@	c #29C508",
"Y@	c #27B114",
"Z@	c #4A765D",
"`@	c #3B465B",
" #	c #4C9A53",
".#	c #29A814",
"+#	c #5DCE0D",
"@#	c #58CD35",
"##	c #699F60",
"$#	c #63C24A",
"%#	c #59D00E",
"&#	c #57B53B",
"*#	c #46665E",
"=#	c #45595F",
"-#	c #31A131",
";#	c #3AB009",
">#	c #7CDE12",
",#	c #51D114",
"'#	c #71DB13",
")#	c #5AC311",
"!#	c #4B7E5B",
"~#	c #496E60",
"{#	c #45655E",
"]#	c #394459",
"^#	c #4B9155",
"/#	c #2DA816",
"(#	c #75D210",
"_#	c #86DC12",
":#	c #5DB342",
"<#	c #44625D",
"[#	c #4B7560",
"}#	c #476C5E",
"|#	c #394659",
"1#	c #478C53",
"2#	c #30AA16",
"3#	c #60C410",
"4#	c #5BAF41",
"5#	c #43615C",
"6#	c #384559",
"7#	c #447358",
"8#	c #447757",
"9#	c #3F5A5A",
"    . + + + + + + + + + + + + + + + + + + + + + + + + + + + + + + + + + + + + + + + .     ",
"  @ # $ $ $ $ $ $ $ $ $ $ $ $ $ $ $ $ $ $ $ $ $ $ $ $ $ $ $ $ $ $ $ $ $ $ $ $ $ $ $ # @   ",
". # % % % % % % % % % % % % % % % % % % % % % % % % % % % % % % % % % % % % % % % % % # . ",
"+ $ % % % % % % % % % % % % % % % % % % % % % % % % % % % % % % % % % % % % % % % % % $ + ",
"+ $ % % % % % % % % % % % % % % % % % % & * = - ; % % % > % % % % % % % % % % % % % % $ + ",
"+ $ % % % % % % % % % % % % % % % % % , ' ) ! ~ { ] % ^ / ( ; _ % % % % % % % % % % % $ + ",
"+ $ % % % % % % % % % % % % % % % % : < [ } | 1 2 3 % ; 4 ] 5 6 7 % % % % % % % % % % $ + ",
"+ $ % % % % % % % % % % % % % % % % 8 9 0 a b c d e f % % % g h % % % % % % % % % % % $ + ",
"+ $ % % % % % % % % % % % % % % % i j k l m n o p q r % % % % % % % % % % % % % % % % $ + ",
"+ $ % % % % % % % % % % % % % % % s t u v w x y z A B % % % % % % % % % % % % % % % % $ + ",
"+ $ % % % % % % % % % % % % % % % C D E F G H I J K L M % % % % % % % % % % % % % % % $ + ",
"+ $ % % % % % % % % % % % % % % N O P Q R S T U V W X Y % % % % % % % % % % % % % % % $ + ",
"+ $ % % % % % % % % % % % % % % Z `  ...+.@.U #.V $.%.&.% % % % % % % % % % % % % % % $ + ",
"+ $ % % % % % % % % % % % % % % Z ` *.=.-.;.>.,.'.).!.~.% % % % % % % % % % % % % % % $ + ",
"+ $ % % % % % % % % % % % % % % N ` {.].^./.(._.:.<.[.}.% % % % % % % % % % % % % % % $ + ",
"+ $ % % % % % % % % % % % % % % |.1.2.3.4.5.6.7.8.9.0.a.% % % % % % % % % % % % % % % $ + ",
"+ $ % % % % % % % % % % % % % % b.c.d.e.f.g.h.i.j.k.l.m.n.% % % % % % % % % % % % % % $ + ",
"+ $ % % % % % % % % % % % % % % o.p.q.r.s.t.u.v.w.x.y.z.A.% % % % % % % % % % % % % % $ + ",
"+ $ % % % % % % % % % % % % % % B.p.q.r.C.D.E.F.G.H.I.J.A.% % % % % % % % % % % % % % $ + ",
"+ $ % % % % % % % % % % % % % % K.p.q.r.C.D.L.M.N.O.P.Q.R.% % % % % % % % % % % % % % $ + ",
"+ $ % % % % % % % % % % % % % % S.p.q.r.C.T.U._.V.W.X.Y.A.Z.`.% % % % % % % % % % % % $ + ",
"+ $ % % % % % % % % % % % % % %  +.+++@+#+$+%+&+*+=+-+;+>+,+'+)+% % % % % % % % % % % $ + ",
"+ $ % % % % % % % % % % % % % % !+~+{+]+{+^+/+(+_+:+<+[+}+|+1+% % % % % % % % % % % % $ + ",
"+ $ % % % % % % % % % % % % % % 2+~+{+]+{+S 3+4+5+6+7+8+9+% ; 0+% % % % % % % % % % % $ + ",
"+ $ % % % % % % % % % % % % % % a+~+{+]+b+c+d+e+f+g+h+i+j+% k+l+7 % % % % % % % % % % $ + ",
"+ $ % % % % % % % % % % % % % % m+n+o+p+q+r+s+t+u+v+w+x+y+% z+A+% % % % % % % % % % % $ + ",
"+ $ % % % % % % % % % % % % % %  +B+C+@+D+E+F+G+H+I+J+K+L+% % % % % % % % % % % % % % $ + ",
"+ $ % % % % % % % % % % % % % % M+p.N+O+P+Q+R+S+T+U+V+W+X+% % % % % % % % % % % % % % $ + ",
"+ $ % % % % % % % % % % % % % % Y+p.Z+Z+`+ @.@+@@@#@$@%@&@% % % % % % % % % % % % % % $ + ",
"+ $ % % % % % % % % % % % % % % *@=@-@;@>@! ,@'@)@!@~@{@]@% % % % % % % % % % % % % % $ + ",
"+ $ % % % % % % % % % % % % % % ^@/@(@_@:@<@[@}@|@1@2@3@% % % % % % % % % % % % % % % $ + ",
"+ $ % % % % % % % % % % % % % % 4@5@6@7@8@9@0@a@b@c@d@e@% % % % % % % % % % % % % % % $ + ",
"+ $ % % % % % % % % % % % % % % 4@O f@g@d+h@i@j@k@l@m@n@% % % % % % % % % % % % % % % $ + ",
"+ $ % % % % % % % % % % % % % % 0+O p.o@p@q@r@s@t@u@v@3@% % % % % % % % % % % % % % % $ + ",
"+ $ % % % % % % % % % % % % % % ^@w@x@y@z@A@B@C@D@E@F@G@% % % % % % % % % % % % % % % $ + ",
"+ $ % % % % % % % % % % % % % % % H@I@J@K@L@M@N@I.O@P@)+% % % % % % % % % % % % % % % $ + ",
"+ $ % % % % % % % % % % % % % % % Q@R@S@T@U@V@W@X@Y@Z@% % % % % % % % % % % % % % % % $ + ",
"+ $ % % % % % % % % % % % % % % % `@ #.#+#@###$#%#&#*#% % % % % % % % % % % % % % % % $ + ",
"+ $ % % % % % % % % % % % % % % % % =#-#;#>#,#'#)#!#% % % % % % % % % % % % % % % % % $ + ",
"+ $ % % % % % % % % % % % % ~#{#% % ]#^#/#(#.@_#:#<#% % % % % % % % % % % % % % % % % $ + ",
"+ $ % % % % % % % % % % % % [#}#% % % |#1#2#3#4#5#% % % % % % % % % % % % % % % % % % $ + ",
"+ $ % % % % % % % % % % % % % % % % % % 6#7#8#9#% % % % % % % % % % % % % % % % % % % $ + ",
". # % % % % % % % % % % % % % % % % % % % % % % % % % % % % % % % % % % % % % % % % % # . ",
"  @ # $ $ $ $ $ $ $ $ $ $ $ $ $ $ $ $ $ $ $ $ $ $ $ $ $ $ $ $ $ $ $ $ $ $ $ $ $ $ $ # @   ",
"    . + + + + + + + + + + + + + + + + + + + + + + + + + + + + + + + + + + + + + + + .     "};
