/* XPM */
static char * RickA_xpm[] = {
"45 45 508 2",
"  	c #1A1C2C",
". 	c #212538",
"+ 	c #212639",
"@ 	c #191A2A",
"# 	c #323B56",
"$ 	c #333C58",
"% 	c #313953",
"& 	c #22283B",
"* 	c #30364C",
"= 	c #333C57",
"- 	c #2F3750",
"; 	c #161A27",
"> 	c #0B1113",
", 	c #262936",
"' 	c #2B3249",
") 	c #10111C",
"! 	c #5F7681",
"~ 	c #586E77",
"{ 	c #2B2F3C",
"] 	c #2D344B",
"^ 	c #10141B",
"/ 	c #6D8793",
"( 	c #A8D0E2",
"_ 	c #7895A2",
": 	c #1C212E",
"< 	c #2D354E",
"[ 	c #151922",
"} 	c #6C8792",
"| 	c #A8D0E1",
"1 	c #AFD8EA",
"2 	c #7A98A5",
"3 	c #1A202E",
"4 	c #343C57",
"5 	c #323A53",
"6 	c #2E364E",
"7 	c #2B334B",
"8 	c #2B3248",
"9 	c #282F45",
"0 	c #2F3851",
"a 	c #313A54",
"b 	c #121424",
"c 	c #69838E",
"d 	c #ABD4E5",
"e 	c #B0DAEC",
"f 	c #AFD9EB",
"g 	c #85A6B4",
"h 	c #272D35",
"i 	c #333B56",
"j 	c #2C3349",
"k 	c #1E2232",
"l 	c #151924",
"m 	c #191F26",
"n 	c #313E45",
"o 	c #36444A",
"p 	c #080C0E",
"q 	c #21273B",
"r 	c #23293C",
"s 	c #495C65",
"t 	c #A4CBDC",
"u 	c #90B3C2",
"v 	c #242E34",
"w 	c #333C56",
"x 	c #303851",
"y 	c #282F43",
"z 	c #1B212B",
"A 	c #36454C",
"B 	c #5F7781",
"C 	c #87A8B6",
"D 	c #9FC5D5",
"E 	c #A6CEDF",
"F 	c #7795A1",
"G 	c #181E27",
"H 	c #2F364F",
"I 	c #1C242B",
"J 	c #89AAB8",
"K 	c #9DC3D3",
"L 	c #2F364B",
"M 	c #242A3C",
"N 	c #0D0D19",
"O 	c #38474D",
"P 	c #809FAC",
"Q 	c #9EC4D4",
"R 	c #B1DBED",
"S 	c #B0DAED",
"T 	c #2E3A40",
"U 	c #293147",
"V 	c #262C41",
"W 	c #3B4B52",
"X 	c #A9D1E3",
"Y 	c #37464D",
"Z 	c #151A21",
"` 	c #334148",
" .	c #7997A3",
"..	c #A5CDDE",
"+.	c #AED8EA",
"@.	c #68828D",
"#.	c #161A2B",
"$.	c #323B55",
"%.	c #151729",
"&.	c #75929E",
"*.	c #43555D",
"=.	c #A2C9DA",
"-.	c #B0DBED",
";.	c #93B6C5",
">.	c #141A21",
",.	c #06040C",
"'.	c #637B84",
").	c #69818B",
"!.	c #637983",
"~.	c #8CAEBC",
"{.	c #ACD5E7",
"].	c #9CC1D1",
"^.	c #ABD3E5",
"/.	c #566C75",
"(.	c #1D2335",
"_.	c #1E2029",
":.	c #655C53",
"<.	c #AD9D8F",
"[.	c #C0AE9F",
"}.	c #C0AF9F",
"|.	c #897D72",
"1.	c #7E98A4",
"2.	c #ADD6E8",
"3.	c #87A7B5",
"4.	c #171D25",
"5.	c #2F3751",
"6.	c #121520",
"7.	c #7F7368",
"8.	c #CFBDAB",
"9.	c #DCC8B6",
"0.	c #D7C3B2",
"a.	c #908479",
"b.	c #83A2AF",
"c.	c #9ABFCF",
"d.	c #36454B",
"e.	c #262D42",
"f.	c #0F1625",
"g.	c #7A6E64",
"h.	c #CEBCAB",
"i.	c #D4C1AF",
"j.	c #76726D",
"k.	c #95B9C9",
"l.	c #ABD4E6",
"m.	c #586F78",
"n.	c #10131F",
"o.	c #2C344C",
"p.	c #283045",
"q.	c #25211D",
"r.	c #7C7166",
"s.	c #AE9D8F",
"t.	c #DDC9B7",
"u.	c #DECAB7",
"v.	c #DDC9B6",
"w.	c #C8B6A5",
"x.	c #6E7D82",
"y.	c #A0C6D7",
"z.	c #5A717B",
"A.	c #485C64",
"B.	c #273238",
"C.	c #01000A",
"D.	c #181C2E",
"E.	c #313A53",
"F.	c #2B3349",
"G.	c #161923",
"H.	c #83766B",
"I.	c #D0BDAC",
"J.	c #CBB8A8",
"K.	c #B5A597",
"L.	c #887E75",
"M.	c #736C65",
"N.	c #BEAD9D",
"O.	c #DAC6B4",
"P.	c #98897D",
"Q.	c #96B9C9",
"R.	c #AAD3E4",
"S.	c #A7CFE0",
"T.	c #97BCCC",
"U.	c #6A8490",
"V.	c #323F46",
"W.	c #1C232B",
"X.	c #222839",
"Y.	c #2C383D",
"Z.	c #576D77",
"`.	c #69787E",
" +	c #798488",
".+	c #6F838B",
"++	c #7997A4",
"@+	c #8DB0BE",
"#+	c #7594A1",
"$+	c #857C72",
"%+	c #BAA999",
"&+	c #7A919B",
"*+	c #A3CBDC",
"=+	c #1D262A",
"-+	c #1B2031",
";+	c #4B5E67",
">+	c #9DC3D4",
",+	c #99BECE",
"'+	c #97BCCB",
")+	c #8EAFBE",
"!+	c #76929F",
"~+	c #5B6F78",
"{+	c #787672",
"]+	c #C3B2A2",
"^+	c #C9B7A6",
"/+	c #6F7F86",
"(+	c #556B74",
"_+	c #181F28",
":+	c #283046",
"<+	c #303951",
"[+	c #0A0F1B",
"}+	c #464747",
"|+	c #89898A",
"1+	c #8D8E8E",
"2+	c #A3A3A3",
"3+	c #A4A4A4",
"4+	c #81766D",
"5+	c #DBC7B5",
"6+	c #CFBCAB",
"7+	c #636B6D",
"8+	c #8DAFBE",
"9+	c #2B373D",
"0+	c #1B2030",
"a+	c #303852",
"b+	c #071126",
"c+	c #B4B4B4",
"d+	c #F9F9F9",
"e+	c #FCFCFC",
"f+	c #FFFFFF",
"g+	c #FAFAFA",
"h+	c #706D6B",
"i+	c #D2BFAE",
"j+	c #D9C5B3",
"k+	c #606260",
"l+	c #83A2B0",
"m+	c #2C393E",
"n+	c #21263A",
"o+	c #313A55",
"p+	c #151926",
"q+	c #8C8C8C",
"r+	c #979797",
"s+	c #FEFEFE",
"t+	c #797775",
"u+	c #CCBAA9",
"v+	c #5E5C59",
"w+	c #9EC3D4",
"x+	c #617983",
"y+	c #1A2228",
"z+	c #262D43",
"A+	c #131929",
"B+	c #7D7D7D",
"C+	c #D9D9D9",
"D+	c #E5E5E5",
"E+	c #77706A",
"F+	c #D8C5B3",
"G+	c #B5A596",
"H+	c #635B54",
"I+	c #758991",
"J+	c #9CC2D2",
"K+	c #B0D9EB",
"L+	c #92B5C4",
"M+	c #35444A",
"N+	c #131724",
"O+	c #303952",
"P+	c #272425",
"Q+	c #6B625B",
"R+	c #A1A09F",
"S+	c #D8D8D8",
"T+	c #DBDBDB",
"U+	c #817F7D",
"V+	c #BFAE9E",
"W+	c #D2BFAD",
"X+	c #BCAB9B",
"Y+	c #718087",
"Z+	c #405058",
"`+	c #1C2233",
" @	c #323A55",
".@	c #252A3D",
"+@	c #70665C",
"@@	c #C3B2A1",
"#@	c #AC9C8D",
"$@	c #938478",
"%@	c #8E8074",
"&@	c #B1A192",
"*@	c #C3B1A1",
"=@	c #C7B5A4",
"-@	c #717E83",
";@	c #9DC2D3",
">@	c #43545B",
",@	c #191D2A",
"'@	c #4F4741",
")@	c #61584F",
"!@	c #BEAC9D",
"~@	c #DDC8B7",
"{@	c #A59688",
"]@	c #96887B",
"^@	c #C9B7A7",
"/@	c #CFBDAC",
"(@	c #877C72",
"_@	c #8EB0BE",
":@	c #8FB2C1",
"<@	c #253036",
"[@	c #272E44",
"}@	c #2D354B",
"|@	c #1C212F",
"1@	c #181619",
"2@	c #A9998B",
"3@	c #DBC7B6",
"4@	c #C4B2A2",
"5@	c #5D564F",
"6@	c #7D9BA8",
"7@	c #AED7E9",
"8@	c #9ABFCE",
"9@	c #9BC0D1",
"0@	c #67818C",
"a@	c #040410",
"b@	c #2D354D",
"c@	c #1E2230",
"d@	c #756A60",
"e@	c #B6A596",
"f@	c #BCAB9C",
"g@	c #897F75",
"h@	c #6C8793",
"i@	c #273337",
"j@	c #323F45",
"k@	c #212A32",
"l@	c #242D35",
"m@	c #2E3B40",
"n@	c #070807",
"o@	c #2A3148",
"p@	c #2A3147",
"q@	c #26221E",
"r@	c #8B7E72",
"s@	c #9C8E81",
"t@	c #6F645B",
"u@	c #9A8C7F",
"v@	c #A19385",
"w@	c #686460",
"x@	c #A3CADB",
"y@	c #A7CEE0",
"z@	c #42535A",
"A@	c #252A3E",
"B@	c #2E374F",
"C@	c #2E3750",
"D@	c #191B26",
"E@	c #9B8D80",
"F@	c #DECAB8",
"G@	c #D6C2B1",
"H@	c #C9B6A6",
"I@	c #BEAC9C",
"J@	c #70848C",
"K@	c #A1C8D9",
"L@	c #728F9B",
"M@	c #202335",
"N@	c #2A3249",
"O@	c #2B2828",
"P@	c #998B7E",
"Q@	c #D8C4B2",
"R@	c #6E635A",
"S@	c #627882",
"T@	c #9ABECF",
"U@	c #334047",
"V@	c #6D8894",
"W@	c #90B2C1",
"X@	c #8CADBC",
"Y@	c #100F1A",
"Z@	c #262C40",
"`@	c #1A1A1D",
" #	c #7B7066",
".#	c #B9A999",
"+#	c #CAB8A7",
"@#	c #CCB9A8",
"##	c #C0AE9E",
"$#	c #A8998B",
"%#	c #47413D",
"&#	c #9EA5A4",
"*#	c #ADB5B4",
"=#	c #3E4447",
"-#	c #74909D",
";#	c #4E626A",
">#	c #0A0A17",
",#	c #151826",
"'#	c #080914",
")#	c #2F3C42",
"!#	c #151B1E",
"~#	c #2F364E",
"{#	c #1E2436",
"]#	c #282526",
"^#	c #55544D",
"/#	c #626860",
"(#	c #8B8E8D",
"_#	c #BCC3C3",
":#	c #646868",
"<#	c #C5CDCD",
"[#	c #ECF6F5",
"}#	c #878C8D",
"|#	c #3C414F",
"1#	c #121516",
"2#	c #21283C",
"3#	c #323A54",
"4#	c #2E364F",
"5#	c #282F44",
"6#	c #1D2132",
"7#	c #1B1E29",
"8#	c #343B51",
"9#	c #3B524F",
"0#	c #78ADA6",
"a#	c #888E8D",
"b#	c #E2EBEA",
"c#	c #868B8B",
"d#	c #CAD2D2",
"e#	c #EEF8F7",
"f#	c #AEB5B5",
"g#	c #BEC6C5",
"h#	c #4D5151",
"i#	c #272E45",
"j#	c #353C52",
"k#	c #3B524E",
"l#	c #8FCEC5",
"m#	c #63807B",
"n#	c #919796",
"o#	c #626666",
"p#	c #CBD4D3",
"q#	c #EFF9F8",
"r#	c #C4CCCB",
"s#	c #B8C0BF",
"t#	c #6E7372",
"u#	c #22283D",
"v#	c #334C48",
"w#	c #82BBB2",
"x#	c #75A8A1",
"y#	c #727C7B",
"z#	c #878C8C",
"A#	c #C5CECD",
"B#	c #E2ECEB",
"C#	c #B9C0C0",
"D#	c #AAB0AF",
"E#	c #A3AAA9",
"F#	c #222634",
"G#	c #191D2B",
"H#	c #01000B",
"I#	c #120100",
"J#	c #3B2D14",
"K#	c #292521",
"L#	c #6C645D",
"M#	c #877A6F",
"N#	c #6F6357",
"O#	c #BDC6C5",
"P#	c #C2CACA",
"Q#	c #141722",
"R#	c #161007",
"S#	c #5D4928",
"T#	c #3E3220",
"U#	c #8E8175",
"V#	c #96897D",
"W#	c #CED7D6",
"X#	c #DAE3E2",
"Y#	c #404343",
"Z#	c #11141C",
"`#	c #534122",
" $	c #5D4A28",
".$	c #564A3C",
"+$	c #897C70",
"@$	c #373532",
"#$	c #8D9493",
"$$	c #ACB3B2",
"%$	c #4B4E4D",
"&$	c #32384B",
"*$	c #161B29",
"=$	c #3F3118",
"-$	c #614C29",
";$	c #513F20",
">$	c #040100",
",$	c #232A3F",
"'$	c #1F253A",
")$	c #040B21",
"!$	c #03050C",
"~$	c #1F2436",
"{$	c #383735",
"]$	c #807F7C",
"^$	c #605E5C",
"/$	c #0D0E12",
"($	c #21283A",
"_$	c #04050A",
":$	c #4C4C4A",
"<$	c #A19F9D",
"[$	c #777674",
"}$	c #101113",
"|$	c #31384D",
"1$	c #2C344B",
"2$	c #0A0C14",
"3$	c #232325",
"4$	c #2A2A2C",
"5$	c #29292B",
"6$	c #252527",
"7$	c #0A0B0F",
"8$	c #0E0F15",
"9$	c #0C0C0D",
"0$	c #0D0E11",
"a$	c #10121A",
"b$	c #0E0F11",
"c$	c #151A26",
"d$	c #202437",
"e$	c #191B29",
"f$	c #161826",
"g$	c #191B28",
"h$	c #1A1D2C",
"i$	c #1C2030",
"    . + + + + + + + + + + + + + + + + + + + + + + + + + + + + + + + + + + + + + + + .     ",
"  @ # $ $ $ $ $ $ $ $ $ $ $ $ $ $ $ $ $ $ % & * $ $ $ $ $ $ $ $ $ $ $ $ $ $ $ $ $ $ # @   ",
". # = = = = = = = = = = = = = = = = = = - ; > , = = = = = = = = = = = = = = = = = = = # . ",
"+ $ = = = = = = = = = = = = = = = = = ' ) ! ~ { = = = = = = = = = = = = = = = = = = = $ + ",
"+ $ = = = = = = = = = = = = = = = = ] ^ / ( _ : = = = = = = = = = = = = = = = = = = = $ + ",
"+ $ = = = = = = = = = = = = = = = < [ } | 1 2 3 = = = = = = 4 5 6 7 8 9 0 = = = = = = $ + ",
"+ $ = = = = = = = = = = = = = = a b c d e f g h i = = = # j k l m n o p q = = = = = = $ + ",
"+ $ = = = = = = = = = = = = = = r s t e e e u v % w x y z A B C D E F G 7 = = = = = = $ + ",
"+ $ = = = = = = = = = = = = = H I J e e e e K n L M N O P Q f R S K T U $ = = = = = = $ + ",
"+ $ = = = = = = = = = = = = = V W X e e e e t Y Z `  ...1 e e e +.@.#.$.= = = = = = = $ + ",
"+ $ = = = = = = = = = = = = $.%.&.R e R e e 1 *.@.=.R e e e e -.;.>.7 = = = = = = = = $ + ",
"+ $ = = = = = = = = = = = = - ,.'.).!.~.{.e e ].^.e e e e e e | /.(.# = = = = = = = = $ + ",
"+ $ = = = = = = = = = = = 6 _.:.<.[.}.|.1.2.e e e e e e e e f 3.4.5.= = = = = = = = = $ + ",
"+ $ = = = = = = = = = = < 6.7.8.9.9.9.0.a.b.e e e e e e e -.c.d.e.= = = = = = = = = = $ + ",
"+ $ = = = = = = = = = $.f.g.h.9.9.9.9.9.i.j.k.e e e e e e l.m.n.o.% $.= = = = = = = = $ + ",
"+ $ = = = = = = = = $ p.q.r.s.t.t.u.v.9.9.w.x.d e e e e e y.z.A.B.C.D.9 E.= = = = = = $ + ",
"+ $ = = = = = = = w F.G.H.I.J.K.L.M.N.9.9.O.P.Q.e e e e e 1 l.R.S.T.U.V.W.X.E.= = = = $ + ",
"+ $ = = = = = = = o.Y.Z.`. +.+++@+#+$+9.9.9.%+&+R e e e e e e e e e e *+F =+-+# = = = $ + ",
"+ $ = = = = = = = V ;+>+,+'+)+!+~+{+]+9.9.9.^+/+R e e e e e e e e e e K (+_+:+= = = = $ + ",
"+ $ = = = = = = = <+[+}+|+1+2+3+4+5+9.9.9.9.6+7+{.e e e e e e e e +.8+9+0+a+= = = = = $ + ",
"+ $ = = = = = = = $.b+c+d+e+f+g+h+i+9.9.9.9.j+k+R.e e e e e e e 1 l+m+n+a = = = = = = $ + ",
"+ $ = = = = = = = o+p+q+r+g+f+s+t+u+9.9.9.9.5+v+E e e e e e e w+x+y+z+# = = = = = = = $ + ",
"+ $ = = = = = = = $.A+B+C+s+f+D+E+F+9.9.9.5+G+H+I+J+e e e e K+L+M+N+% = = = = = = = = $ + ",
"+ $ = = = = = = = O+P+Q+R+S+T+U+V+9.9.9.9.9.i+W+X+Y+f e e e e f K Z+`+ @= = = = = = = $ + ",
"+ $ = = = = = = = .@+@@@#@$@%@&@*@6+9.9.9.9.9.9.=@-@f e e e e e e ;@>@r # = = = = = = $ + ",
"+ $ = = = = = = $ ,@'@)@!@~@0.{@]@^@9.9.9.9.9./@(@_@e e e e e e e f :@<@[@= = = = = = $ + ",
"+ $ = = = = = = = }@|@1@2@t.9.9.3@9.9.9.9.9.4@5@6@7@e e e f D Q =.8@9@0@a@b@= = = = = $ + ",
"+ $ = = = = = = = = = c@d@e@e@=@i+f@4@9.9.9.9.g@k.-.e e e +.h@i@j@k@l@m@n@o@= = = = = $ + ",
"+ $ = = = = = = = = = p@q@r@s@d@t@u@v@9.9.9.5+w@x@e e e e e y@z@A@a % B@C@# = = = = = $ + ",
"+ $ = = = = = = = = = $.D@E@9.F@G@H@6+9.9.9.I@J@f e K@Q e R f L@M@= = = = = = = = = = $ + ",
"+ $ = = = = = = = = = = N@O@P@Q@9.9.9.9.3@H@R@S@T@+.} U@V@W@( X@Y@# = = = = = = = = = $ + ",
"+ $ = = = = = = = = = = = Z@`@ #.#+#@###$#%#&#*#=#-#;#>#,#'#)#/.!#~#= = = = = = = = = $ + ",
"+ $ = = = = = = = = = = = w b@{#]#^#/#(#_#:#<#[#}#|#1#2#3#4#5#6#7#- = = = = = = = = = $ + ",
"+ $ = = = = = = = = = = = = = = 8#9#0#a#b#c#d#e#f#g#h#i#= = = w w = = = = = = = = = = $ + ",
"+ $ = = = = = = = = = = = = = = j#k#l#m#n#o#p#q#r#s#t#u#= = = = = = = = = = = = = = = $ + ",
"+ $ = = = = = = = = = = = = = = o.v#w#x#y#z#A#B#C#D#E#F#w = = = = = = = = = = = = = = $ + ",
"+ $ = = = = = = = = = = = = = = % G#H#I#J#K#L#M#N#O#P#Q#$.= = = = = = = = = = = = = = $ + ",
"+ $ = = = = = = = = = = = = = = = a 8 R#S#T#U#i+V#W#X#Y#5 = = = = = = = = = = = = = = $ + ",
"+ $ = = = = = = = = = = = = = = = = $.Z#`# $.$+$@$#$$$%$&$= = = = = = = = = = = = = = $ + ",
"+ $ = = = = = = = = = = = = = = = = = *$=$-$;$>$,$'$)$!$o@= = = = = = = = = = = = = = $ + ",
"+ $ = = = = = = = = = = = = = = = = $.~${$]$^$/$O+= # $.= = = = = = = = = = = = = = = $ + ",
"+ $ = = = = = = = = = = = = = = =  @($_$:$<$[$}$|$= = = = = = = = = = = = = = = = = = $ + ",
". # = = = = = = = = = = = = = = = 1$2$3$4$5$6$7$L = = = = = = = = = = = = = = = = = = # . ",
"  @ # $ $ $ $ $ $ $ $ $ $ $ $ $ = ] 8$9$0$a$b$c$E.$ $ $ $ $ $ $ $ $ $ $ $ $ $ $ $ $ # @   ",
"    . + + + + + + + + + + + + + + d$e$f$g$h$e$i$+ + + + + + + + + + + + + + + + + + .     "};
