/* XPM */
static char * RickS_xpm[] = {
"45 45 886 2",
"  	c #131528",
". 	c #1C2036",
"+ 	c #1C2136",
"@ 	c #282B3C",
"# 	c #2D2F37",
"$ 	c #292D38",
"% 	c #1D2237",
"& 	c #1E2338",
"* 	c #202432",
"= 	c #1D2135",
"- 	c #1C2137",
"; 	c #111325",
"> 	c #2F3855",
", 	c #303957",
"' 	c #313A57",
") 	c #3E4251",
"! 	c #1B1D22",
"~ 	c #1C1F27",
"{ 	c #42495D",
"] 	c #303956",
"^ 	c #39415C",
"/ 	c #2A3042",
"( 	c #20252B",
"_ 	c #373F4F",
": 	c #394259",
"< 	c #20242D",
"[ 	c #687D86",
"} 	c #748993",
"| 	c #262931",
"1 	c #3A415B",
"2 	c #383D4F",
"3 	c #2D353B",
"4 	c #31383F",
"5 	c #3E4250",
"6 	c #313A56",
"7 	c #3C445E",
"8 	c #222732",
"9 	c #7E9BA8",
"0 	c #ABCDDD",
"a 	c #273238",
"b 	c #353F49",
"c 	c #333D57",
"d 	c #3B435B",
"e 	c #292F43",
"f 	c #000000",
"g 	c #8AAAB5",
"h 	c #576771",
"i 	c #41465A",
"j 	c #303855",
"k 	c #3A425C",
"l 	c #242934",
"m 	c #A1BFCC",
"n 	c #B2DAEE",
"o 	c #93ACB9",
"p 	c #161D1D",
"q 	c #444B60",
"r 	c #373E57",
"s 	c #313440",
"t 	c #2E373C",
"u 	c #80A0AB",
"v 	c #AAD5E5",
"w 	c #3B4C53",
"x 	c #3A4055",
"y 	c #363E57",
"z 	c #1D1C22",
"A 	c #17151B",
"B 	c #3C4253",
"C 	c #384159",
"D 	c #333C58",
"E 	c #2E344A",
"F 	c #1A1F22",
"G 	c #B1D6E7",
"H 	c #AED7EA",
"I 	c #AED5E8",
"J 	c #768F9A",
"K 	c #1B1B23",
"L 	c #39415A",
"M 	c #40465E",
"N 	c #36363D",
"O 	c #44545C",
"P 	c #B0CEDD",
"Q 	c #B0DAEC",
"R 	c #ADD7E9",
"S 	c #1C2327",
"T 	c #343A51",
"U 	c #404559",
"V 	c #242B30",
"W 	c #788F99",
"X 	c #3A494F",
"Y 	c #222630",
"Z 	c #222635",
"` 	c #363C4F",
" .	c #353E5A",
"..	c #2D3349",
"+.	c #27343B",
"@.	c #AFD6E7",
"#.	c #B1D9EB",
"$.	c #B2D9EC",
"%.	c #A9CDE0",
"&.	c #3B4951",
"*.	c #2A2D38",
"=.	c #2E303A",
"-.	c #4F5D63",
";.	c #A8CAD7",
">.	c #AED9EC",
",.	c #B0D6E5",
"'.	c #11161C",
").	c #323850",
"!.	c #343D59",
"~.	c #161921",
"{.	c #768A93",
"].	c #ACD1E0",
"^.	c #819CA8",
"/.	c #53676D",
"(.	c #2A3339",
"_.	c #21242E",
":.	c #3F4558",
"<.	c #2D323D",
"[.	c #657982",
"}.	c #AEDAEB",
"|.	c #AFDAEC",
"1.	c #B1D9ED",
"2.	c #B0D9EB",
"3.	c #586B75",
"4.	c #4A5A63",
"5.	c #B1D2E1",
"6.	c #B2D9EB",
"7.	c #AFDAEB",
"8.	c #A8CEDE",
"9.	c #030103",
"0.	c #2E354D",
"a.	c #2D3348",
"b.	c #2E393E",
"c.	c #A7CAD9",
"d.	c #B1DBEE",
"e.	c #96B9CA",
"f.	c #859EAA",
"g.	c #445154",
"h.	c #9CBBC7",
"i.	c #AEDAEE",
"j.	c #AFD9EB",
"k.	c #AEDAEC",
"l.	c #9BB8C5",
"m.	c #677C89",
"n.	c #A8CBDC",
"o.	c #AFDAEF",
"p.	c #B1DAEE",
"q.	c #A0C0CE",
"r.	c #090506",
"s.	c #2F364E",
"t.	c #454A5F",
"u.	c #2D3345",
"v.	c #21283B",
"w.	c #2E3448",
"x.	c #363E5A",
"y.	c #2F3853",
"z.	c #060003",
"A.	c #B3D9E7",
"B.	c #B0D9ED",
"C.	c #ADD9EE",
"D.	c #A3CED4",
"E.	c #647983",
"F.	c #A9C6D2",
"G.	c #B0D8EB",
"H.	c #ABD0E2",
"I.	c #B2D0DD",
"J.	c #AECEDD",
"K.	c #B1CFDB",
"L.	c #ACC8D4",
"M.	c #B0D4E5",
"N.	c #AFD7E8",
"O.	c #B1DBED",
"P.	c #83A1AE",
"Q.	c #08080A",
"R.	c #2B2E37",
"S.	c #282A32",
"T.	c #14171F",
"U.	c #1F262B",
"V.	c #3B474C",
"W.	c #21272C",
"X.	c #20232A",
"Y.	c #363E55",
"Z.	c #343C58",
"`.	c #3B3F4F",
" +	c #5A6F78",
".+	c #B4D9E9",
"++	c #AFD9EA",
"@+	c #B1D9EA",
"#+	c #B0D8E9",
"$+	c #95B6C5",
"%+	c #829BA3",
"&+	c #7B736B",
"*+	c #91857B",
"=+	c #958678",
"-+	c #948678",
";+	c #857B71",
">+	c #748287",
",+	c #8EA8B4",
"'+	c #A4C8DA",
")+	c #B0DBED",
"!+	c #7A97A3",
"~+	c #50656D",
"{+	c #728D97",
"]+	c #7F959E",
"^+	c #7995A1",
"/+	c #86A5B4",
"(+	c #A6C3D1",
"_+	c #57646E",
":+	c #333745",
"<+	c #373F5A",
"[+	c #363E52",
"}+	c #262D33",
"|+	c #A9CCDB",
"1+	c #AFDAEE",
"2+	c #AFDAEA",
"3+	c #B2D8EA",
"4+	c #ACD5E4",
"5+	c #7D97A3",
"6+	c #474846",
"7+	c #BCAEA0",
"8+	c #D5C3B4",
"9+	c #DAC8B7",
"0+	c #DBC8B8",
"a+	c #DBC8B6",
"b+	c #D7C5B3",
"c+	c #CABBAD",
"d+	c #A5998E",
"e+	c #485256",
"f+	c #ADCCDA",
"g+	c #ACD3E4",
"h+	c #AACFE0",
"i+	c #AED8E9",
"j+	c #AFD8EB",
"k+	c #ABCFE2",
"l+	c #3C464D",
"m+	c #1E1F26",
"n+	c #39405A",
"o+	c #464C62",
"p+	c #24272F",
"q+	c #7B94A2",
"r+	c #B1DAED",
"s+	c #B1D8EA",
"t+	c #AACFDE",
"u+	c #667B83",
"v+	c #998C7F",
"w+	c #D6C3B2",
"x+	c #D7C5B5",
"y+	c #D5C3B2",
"z+	c #D1C0B1",
"A+	c #DBC8B7",
"B+	c #DAC7B6",
"C+	c #BDAC9D",
"D+	c #4C5051",
"E+	c #A4C9D8",
"F+	c #AFD7EA",
"G+	c #A7C9D8",
"H+	c #3E4E56",
"I+	c #383943",
"J+	c #383F59",
"K+	c #3D445C",
"L+	c #343849",
"M+	c #1D2132",
"N+	c #292C38",
"O+	c #050208",
"P+	c #53656D",
"Q+	c #A9D1E4",
"R+	c #829DA9",
"S+	c #766C63",
"T+	c #DCC9B7",
"U+	c #DAC6B5",
"V+	c #776F67",
"W+	c #6E655C",
"X+	c #6D655D",
"Y+	c #786E64",
"Z+	c #D3C1B2",
"`+	c #DAC7B5",
" @	c #DBC8B9",
".@	c #B9A99A",
"+@	c #637B85",
"@@	c #ABD4E6",
"#@	c #B0D9EC",
"$@	c #AAD0DE",
"%@	c #516168",
"&@	c #1F1F24",
"*@	c #3A415A",
"=@	c #39415B",
"-@	c #252935",
";@	c #1A1C20",
">@	c #485255",
",@	c #5E7681",
"'@	c #8FABB7",
")@	c #A4C5D2",
"!@	c #AFD9EC",
"~@	c #A9D3E7",
"{@	c #6A777D",
"]@	c #C6B4A5",
"^@	c #978C82",
"/@	c #BBAC9D",
"(@	c #C4B4A6",
"_@	c #CBBDB0",
":@	c #D3C4B8",
"<@	c #D6C5B7",
"[@	c #D4C1B1",
"}@	c #CBB9A9",
"|@	c #A3968A",
"1@	c #94877B",
"2@	c #CCBAAA",
"3@	c #766C64",
"4@	c #A7C9D6",
"5@	c #A6CDDD",
"6@	c #3E4F57",
"7@	c #373D46",
"8@	c #363E58",
"9@	c #323B57",
"0@	c #343C56",
"a@	c #1D212C",
"b@	c #292C2D",
"c@	c #78888E",
"d@	c #AECFDF",
"e@	c #B2DBEC",
"f@	c #A9C9D8",
"g@	c #8E8176",
"h@	c #837D76",
"i@	c #7C95A0",
"j@	c #8BA4B0",
"k@	c #5E564E",
"l@	c #93867C",
"m@	c #96877B",
"n@	c #94877D",
"o@	c #72675D",
"p@	c #5E727B",
"q@	c #84A6B2",
"r@	c #728C98",
"s@	c #877D74",
"t@	c #A69789",
"u@	c #A2BECA",
"v@	c #ADD4E7",
"w@	c #5C717B",
"x@	c #364147",
"y@	c #3B414F",
"z@	c #495769",
"A@	c #323B58",
"B@	c #2E3753",
"C@	c #313850",
"D@	c #21232C",
"E@	c #38444A",
"F@	c #576E78",
"G@	c #A6C7D6",
"H@	c #AB988A",
"I@	c #A89B90",
"J@	c #3A4A51",
"K@	c #78919C",
"L@	c #A0C0CD",
"M@	c #A5C9D8",
"N@	c #A6C9D6",
"O@	c #A3CADC",
"P@	c #A1CAD7",
"Q@	c #9FC1D2",
"R@	c #8CA9B5",
"S@	c #637983",
"T@	c #303F46",
"U@	c #B2A699",
"V@	c #B1A193",
"W@	c #8DA4AF",
"X@	c #9DBCCA",
"Y@	c #6A818C",
"Z@	c #495660",
"`@	c #323B40",
" #	c #242C32",
".#	c #161821",
"+#	c #1E212A",
"@#	c #363D52",
"##	c #2C3445",
"$#	c #242732",
"%#	c #3D494C",
"&#	c #95B3BF",
"*#	c #ADD6E7",
"=#	c #95AFB9",
"-#	c #A49587",
";#	c #B1A295",
">#	c #7C7C7C",
",#	c #A8A8A9",
"'#	c #A2A3A3",
")#	c #9E9FA1",
"!#	c #455156",
"~#	c #6E7476",
"{#	c #4B595E",
"]#	c #6D6E71",
"^#	c #A5A5A5",
"/#	c #AEAEAE",
"(#	c #A8A9A9",
"_#	c #70675C",
":#	c #AEA092",
"<#	c #7E9199",
"[#	c #B1DBF0",
"}#	c #B0DAEB",
"|#	c #AFDAED",
"1#	c #A9CBDC",
"2#	c #88A6B3",
"3#	c #455158",
"4#	c #242838",
"5#	c #3F4350",
"6#	c #090D11",
"7#	c #61757E",
"8#	c #AFD5E7",
"9#	c #8AA2AD",
"0#	c #908478",
"a#	c #625D59",
"b#	c #F4F4F4",
"c#	c #FEFEFE",
"d#	c #FDFDFD",
"e#	c #FBFBFB",
"f#	c #757573",
"g#	c #847970",
"h#	c #5C5A57",
"i#	c #E9EEEE",
"j#	c #929493",
"k#	c #766B60",
"l#	c #B2D8EB",
"m#	c #ADD4E8",
"n#	c #69828D",
"o#	c #293136",
"p#	c #3B3F4C",
"q#	c #384057",
"r#	c #313953",
"s#	c #3E4458",
"t#	c #364246",
"u#	c #66818B",
"v#	c #AACDDD",
"w#	c #B0D8ED",
"x#	c #88A3AF",
"y#	c #6F6359",
"z#	c #5E5C5A",
"A#	c #FFFFFF",
"B#	c #F0F1F1",
"C#	c #D7D7D7",
"D#	c #FAFAFA",
"E#	c #929392",
"F#	c #5E544C",
"G#	c #75706C",
"H#	c #D1D3D3",
"I#	c #979698",
"J#	c #C1C4C5",
"K#	c #776C5F",
"L#	c #73878E",
"M#	c #B2D9ED",
"N#	c #B1D9EC",
"O#	c #A6CBDD",
"P#	c #9DBDCA",
"Q#	c #60727C",
"R#	c #21222A",
"S#	c #3E455A",
"T#	c #313954",
"U#	c #20212B",
"V#	c #2A373D",
"W#	c #9FBFCE",
"X#	c #AFD3E5",
"Y#	c #788A91",
"Z#	c #5E5D5B",
"`#	c #DFE0E0",
" $	c #ABADAD",
".$	c #656361",
"+$	c #978B7F",
"@$	c #6B6864",
"#$	c #FBFEFD",
"$$	c #D8D8D9",
"%$	c #D5D6D6",
"&$	c #7B7C7C",
"*$	c #A39688",
"=$	c #5D5E5B",
"-$	c #87A5B4",
";$	c #86A4B0",
">$	c #48565D",
",$	c #444653",
"'$	c #3E445B",
")$	c #0B0E15",
"!$	c #10151B",
"~$	c #A5C1CD",
"{$	c #A3CBDB",
"]$	c #A7CCDE",
"^$	c #A4CED9",
"/$	c #6C8385",
"($	c #534F4C",
"_$	c #7C7268",
":$	c #B5B6B5",
"<$	c #EEEEEE",
"[$	c #EDEDED",
"}$	c #AFAEB0",
"|$	c #5F5852",
"1$	c #C8B9AB",
"2$	c #615952",
"3$	c #A3A3A2",
"4$	c #EFEFEF",
"5$	c #C6C7C8",
"6$	c #726A63",
"7$	c #C4B5A6",
"8$	c #7D7269",
"9$	c #605953",
"0$	c #7F95A0",
"a$	c #526670",
"b$	c #313D43",
"c$	c #242830",
"d$	c #3B435C",
"e$	c #262C3E",
"f$	c #23262C",
"g$	c #020B10",
"h$	c #162127",
"i$	c #19222E",
"j$	c #948A83",
"k$	c #C9BAAD",
"l$	c #A49589",
"m$	c #9E9084",
"n$	c #7D7369",
"o$	c #6C635B",
"p$	c #9D9083",
"q$	c #6C6257",
"r$	c #36312C",
"s$	c #786E65",
"t$	c #AC9E91",
"u$	c #80766A",
"v$	c #685E55",
"w$	c #D7C5B6",
"x$	c #C9B8A8",
"y$	c #80756C",
"z$	c #B8A99C",
"A$	c #8BA4AF",
"B$	c #B1DAEC",
"C$	c #9FC2D2",
"D$	c #5A6E77",
"E$	c #181724",
"F$	c #3E4358",
"G$	c #2F3856",
"H$	c #303953",
"I$	c #1E222B",
"J$	c #556C70",
"K$	c #6A7573",
"L$	c #C2B1A2",
"M$	c #DCC8B7",
"N$	c #C7B7A8",
"O$	c #665E57",
"P$	c #504841",
"Q$	c #BEAEA0",
"R$	c #9D9084",
"S$	c #B1A598",
"T$	c #D7C4B5",
"U$	c #D4C1B0",
"V$	c #D8C6B6",
"W$	c #C0AF9F",
"X$	c #84796F",
"Y$	c #7C7269",
"Z$	c #95BACA",
"`$	c #AED8EB",
" %	c #A5CAD9",
".%	c #708790",
"+%	c #191B22",
"@%	c #444A5D",
"#%	c #3C435A",
"$%	c #232930",
"%%	c #A8C8D4",
"&%	c #4C5E66",
"*%	c #8D8379",
"=%	c #D4C4B6",
"-%	c #C5B5A6",
";%	c #CFBEAF",
">%	c #DCC8B6",
",%	c #D2C1B1",
"'%	c #9E8F83",
")%	c #D7C3B4",
"!%	c #DAC7B9",
"~%	c #B6A394",
"{%	c #546364",
"]%	c #89A4B0",
"^%	c #A0C5D7",
"/%	c #92B8CA",
"(%	c #8CAAB4",
"_%	c #64757D",
":%	c #626A6E",
"<%	c #33373A",
"[%	c #1C1F29",
"}%	c #353D56",
"|%	c #333B57",
"1%	c #393D4A",
"2%	c #63757D",
"3%	c #AED7E6",
"4%	c #B1D8E6",
"5%	c #A0BFCC",
"6%	c #55524F",
"7%	c #D5C1B0",
"8%	c #D0BEAD",
"9%	c #DEC9B8",
"0%	c #DBC7B5",
"a%	c #DAC8B9",
"b%	c #D4CBBC",
"c%	c #DBCABB",
"d%	c #CBBAAA",
"e%	c #C3B2A4",
"f%	c #D9C7B7",
"g%	c #A39486",
"h%	c #9DC0CE",
"i%	c #B9DBEA",
"j%	c #6F8A97",
"k%	c #10161B",
"l%	c #2B3339",
"m%	c #41475A",
"n%	c #42485A",
"o%	c #4B5062",
"p%	c #394057",
"q%	c #2F3753",
"r%	c #0F0D0E",
"s%	c #212D33",
"t%	c #1A2227",
"u%	c #141A1D",
"v%	c #B0A295",
"w%	c #B0A195",
"x%	c #A0968B",
"y%	c #72665D",
"z%	c #514840",
"A%	c #6A625C",
"B%	c #73675E",
"C%	c #6E635A",
"D%	c #59514A",
"E%	c #5A5147",
"F%	c #A99D91",
"G%	c #786E67",
"H%	c #D3BFAF",
"I%	c #62574E",
"J%	c #A4CADA",
"K%	c #83A3B2",
"L%	c #26292F",
"M%	c #43475C",
"N%	c #313956",
"O%	c #2F364A",
"P%	c #343A4D",
"Q%	c #2B3248",
"R%	c #272E45",
"S%	c #3C4C53",
"T%	c #5C5753",
"U%	c #BEAFA1",
"V%	c #C2B2A5",
"W%	c #B4A598",
"X%	c #C1B0A0",
"Y%	c #D7C6B7",
"Z%	c #DECAB9",
"`%	c #C8B7A7",
" &	c #B2A395",
".&	c #BDAE9E",
"+&	c #B8AA9C",
"@&	c #AB998D",
"#&	c #596A71",
"$&	c #75919A",
"%&	c #82A1B0",
"&&	c #A5C5D3",
"*&	c #3D4C52",
"=&	c #3A3E4D",
"-&	c #323A57",
";&	c #474B5A",
">&	c #6F8188",
",&	c #394044",
"'&	c #888078",
")&	c #D3C2B2",
"!&	c #DCC7B8",
"~&	c #DFC9B9",
"{&	c #C9BAAB",
"]&	c #545350",
"^&	c #586970",
"/&	c #273035",
"(&	c #20252C",
"_&	c #323C43",
":&	c #283032",
"<&	c #1D2227",
"[&	c #2F3854",
"}&	c #24272E",
"|&	c #080503",
"1&	c #777C7E",
"2&	c #737677",
"3&	c #776D63",
"4&	c #A89A8E",
"5&	c #C4B5A5",
"6&	c #DCC9B8",
"7&	c #DDCAB9",
"8&	c #D1C6B8",
"9&	c #B9A799",
"0&	c #A19285",
"a&	c #564F49",
"b&	c #BCC3C3",
"c&	c #000313",
"d&	c #3A3C3D",
"e&	c #43495E",
"f&	c #252B3F",
"g&	c #272D40",
"h&	c #2C3143",
"i&	c #494F60",
"j&	c #10080D",
"k&	c #D9E3E3",
"l&	c #9CA09F",
"m&	c #C1C9C9",
"n&	c #252623",
"o&	c #4C4842",
"p&	c #625D55",
"q&	c #67635B",
"r&	c #65605A",
"s&	c #595953",
"t&	c #434340",
"u&	c #454848",
"v&	c #4E565B",
"w&	c #E4EAE9",
"x&	c #747779",
"y&	c #50525E",
"z&	c #3C414E",
"A&	c #969C9C",
"B&	c #E5EFED",
"C&	c #727476",
"D&	c #747D77",
"E&	c #ADB0AE",
"F&	c #9A9C9C",
"G&	c #8DB8B7",
"H&	c #9DDFD4",
"I&	c #A1D6D3",
"J&	c #909695",
"K&	c #E4EBEB",
"L&	c #404141",
"M&	c #47494A",
"N&	c #E8F1EF",
"O&	c #C1C8C8",
"P&	c #262A2D",
"Q&	c #454B61",
"R&	c #414962",
"S&	c #0A0E13",
"T&	c #B9C0C0",
"U&	c #EBEFEF",
"V&	c #5D5E5E",
"W&	c #929797",
"X&	c #989E98",
"Y&	c #818282",
"Z&	c #99DACE",
"`&	c #9CE2D7",
" *	c #9ADFD1",
".*	c #76878D",
"+*	c #757878",
"@*	c #8A9093",
"#*	c #7D7F7F",
"$*	c #E6EFEE",
"%*	c #5E6262",
"&*	c #3D4152",
"**	c #3F4654",
"=*	c #575859",
"-*	c #D8DEDE",
";*	c #DDE5E4",
">*	c #666B6A",
",*	c #DFE9E7",
"'*	c #979A9B",
")*	c #667E81",
"!*	c #90CFC7",
"~*	c #94D0C5",
"{*	c #91D1C9",
"]*	c #78AAA1",
"^*	c #878A8C",
"/*	c #E8F2F2",
"(*	c #8F9291",
"_*	c #D9E2E2",
":*	c #E2EAE9",
"<*	c #616565",
"[*	c #202736",
"}*	c #464C5C",
"|*	c #0E0F12",
"1*	c #373B3A",
"2*	c #636668",
"3*	c #828484",
"4*	c #E7F0EF",
"5*	c #757978",
"6*	c #343220",
"7*	c #363324",
"8*	c #555E59",
"9*	c #303735",
"0*	c #3D3623",
"a*	c #373D3D",
"b*	c #EEF8F8",
"c*	c #9FA4A4",
"d*	c #5E6563",
"e*	c #5E5F5E",
"f*	c #2B2C2C",
"g*	c #212534",
"h*	c #2F3956",
"i*	c #494E61",
"j*	c #1B1919",
"k*	c #9C8E83",
"l*	c #939494",
"m*	c #B0B6B5",
"n*	c #423624",
"o*	c #68552E",
"p*	c #4D4026",
"q*	c #8F9E8B",
"r*	c #4F5649",
"s*	c #6B5730",
"t*	c #53422A",
"u*	c #848988",
"v*	c #A6ACAC",
"w*	c #B1A49A",
"x*	c #CDBBAC",
"y*	c #4F4944",
"z*	c #202535",
"A*	c #3E455C",
"B*	c #30333D",
"C*	c #473F39",
"D*	c #9B8D82",
"E*	c #353C3D",
"F*	c #262A2A",
"G*	c #635032",
"H*	c #6C552E",
"I*	c #4C3D26",
"J*	c #74806F",
"K*	c #41453A",
"L*	c #6D5831",
"M*	c #6C562F",
"N*	c #403628",
"O*	c #424446",
"P*	c #7A716A",
"Q*	c #837A71",
"R*	c #1A1A1D",
"S*	c #2F354A",
"T*	c #394059",
"U*	c #2D3342",
"V*	c #00040C",
"W*	c #040406",
"X*	c #070605",
"Y*	c #604F33",
"Z*	c #6B5531",
"`*	c #382B18",
" =	c #000304",
".=	c #120B06",
"+=	c #5A482B",
"@=	c #6A5531",
"#=	c #443724",
"$=	c #000002",
"%=	c #000105",
"&=	c #18191E",
"*=	c #31384F",
"==	c #333C57",
"-=	c #373C4E",
";=	c #171A23",
">=	c #2B2829",
",=	c #2D2931",
"'=	c #231F1E",
")=	c #2B2B24",
"!=	c #151513",
"~=	c #2C292D",
"{=	c #2B2932",
"]=	c #120D0C",
"^=	c #232836",
"/=	c #3B4053",
"(=	c #1E212D",
"_=	c #2B2D36",
":=	c #373D4D",
"<=	c #232325",
"[=	c #060808",
"}=	c #07090C",
"|=	c #30343F",
"1=	c #393E4E",
"2=	c #0C0C0F",
"3=	c #353B4A",
"4=	c #1E222A",
"5=	c #131314",
"6=	c #1A1B1E",
"7=	c #12100D",
"8=	c #111218",
"9=	c #07070B",
"0=	c #161717",
"a=	c #1C1C1D",
"b=	c #0B0B0B",
"c=	c #363B4E",
"d=	c #373A4A",
"e=	c #030402",
"f=	c #181819",
"g=	c #080808",
"h=	c #313445",
"i=	c #181A21",
"j=	c #0E1110",
"k=	c #0E0D0C",
"l=	c #191B23",
"m=	c #333B54",
"n=	c #363D55",
"o=	c #2B2E39",
"p=	c #363C49",
"q=	c #27292C",
"r=	c #404452",
"s=	c #303A57",
"    . + + + + + + + + + + + + + + + @ # $ % + + + + + + + + & * = - + + + + + + + + .     ",
"  ; > , , , , , , , , , , , , , , ' ) ! ~ { ] , , , , , , ^ / ( _ ' , , , , , , , , > ;   ",
". > ] ] ] ] ] ] ] ] ] ] ] ] ] ] ] : < [ } | 1 ] ] ] ] ] ' 2 3 4 5 6 ] ] ] ] ] ] ] ] ] > . ",
"+ , ] ] ] ] ] ] ] ] ] ] ] ] ] ] ] 7 8 9 0 a b c ] ] ] d e f g h i ' ] ] ] ] ] ] ] ] ] , + ",
"+ , ] ] ] ] ] ] ] j j ' ] ] ] ] ] k l m n o p q ] ] r s t u v w x 6 ] ] ] ] ] ] ] ] ] , + ",
"+ , ] ] ] ] ] ] y z A B C D ] ] ] E F G H I J K L M N O P Q R S T ] ] ] ] ] ] ] ] ] ] , + ",
"+ , ] ] ] ] ] ] U V W X Y Z `  .6 ..+.@.#.$.%.&.*.=.-.;.>.Q ,.'.).] ] ] ] ] ] ] ] ] ] , + ",
"+ , ] ] ] ] ] ] !.~.{.].^./.(._.:.<.[.}.|.1.2.3.f 4.5.6.7.1.8.9.0.] ] ] ] ] ] ] ] ] ] , + ",
"+ , ] ] ] ] ] ] ] a.b.c.d.6.e.f.g.f h.i.6.j.k.l.m.n.o.6.k.p.q.r.s., k t.u.v.w.x.] ] ] , + ",
"+ , ] ] ] ] ] ] ] y.z.q.7.A.B.C.D.E.F.G.H.I.J.K.L.M.$.N.k.O.P.Q.R.S.T.U.V.W.X.Y.] ] ] , + ",
"+ , ] ] ] ] ] ] ] Z.`. +.+2.++@+B.#+$+%+&+*+=+-+;+>+,+'+k.)+!+~+{+]+^+/+(+_+:+<+] ] ] , + ",
"+ , ] ] ] ] ] ] ] ] [+}+|+1+2+3+4+5+6+7+8+9+0+a+b+c+d+e+f+2.g+h+i+$.j+k+l+m+n+] ] ] ] , + ",
"+ , ] ] ] ] ] ] ] ' o+p+q+r+s+t+u+v+w+x+y+z+x+A+a+B+a+C+D+E+1.$.7.F+G+H+I+J+] ] ] ] ] , + ",
"+ , ] ] ] ] ] K+L+M+N+O+P+Q+7.R+S+T+U+V+W+X+Y+Z+`+ @0+T+.@+@@@#@|.$@%@&@*@' ] ] ] ] ] , + ",
"+ , ] ] ] =@-@;@>@,@'@)@5.!@~@{@]@^@/@(@_@:@<@9+[@}@|@1@2@3@4@1.5@6@7@8@9@] ] ] ] ] ] , + ",
"+ , ] ] ] 0@a@b@c@d@e@2+Q #.f@g@h@i@j@P+k@l@m@n@o@p@q@r@s@t@u@v@w@f x@y@z@ .A@] ] ] ] , + ",
"+ , ] ] ] ] B@C@D@E@F@G@j.1.m H@I@J@K@L@M@N@O@P@Q@R@S@T@U@V@W@s+X@Y@Z@`@ #.#+#@#6 ] ] , + ",
"+ , ] ] ] ] ] ] ^ ##$#%#&#*#=#-#;#>#,#'#)#!#~#{#]#^#/#(#_#:#<#[#++}#|#1#2#3#f 4#9@] ] , + ",
"+ , ] ] ] ] ] ] ] Z.5#6#7#8#9#0#a#b#c#d#e#f#g#h#i#d#d#c#j#k#<#p.7.l#j.m#n#o#p#q#] ] ] , + ",
"+ , ] ] ] ] ] 6 r#s#t#u#v#w#x#y#z#A#B#C#D#E#F#G#A#H#I#A#J#K#L#M#N#O#P#Q#R#S#] ] ] ] ] , + ",
"+ , ] ] ] ] ] T#U#V#W#@+N#X#Y#&+Z#A#`# $D#.$+$@$#$$$%$A#&$*$=$-$;$>$f ,$'$' ] ] ] ] ] , + ",
"+ , ] ] ] ] ] )$!$~${$]$^$/$($|@_$:$<$[$}$|$1$2$3$4$<$5$6$7$8$9$0$a$b$c$d$6 ] ] ] ] ] , + ",
"+ , ] ] ] ] 9@e$f$f g$h$i$j$k$l$U+m$n$o$p$q$r$s$t$u$v$0#w$x$y$z$A$B$C$D$E$F$G$] ] ] ] , + ",
"+ , ] ] ] ] ] 6 H$r#K+I$J$K$L$|@M$N$O$P$Q$R$f S$`+T$U$V$U+W$X$Y$Z$>.`$ %.%+%@%' ] ] ] , + ",
"+ , ] ] ] ] ] ] ] ] #%$%%%2#&%*%U+=%-%;%>%,%'%)%>%M$a+T+!%~%{%]%^%/%(%_%:%<%[%}%] ] ] , + ",
"+ , ] ] ] ] ] ] ] |%1%2%3%4%5%6%7%8%y+9%0%a%b%c%9+U+d%e%f%g%h%i%j%k%l%m%n%o%p%' ] ] ] , + ",
"+ , ] ] ] ] ] ] ] q%r%g.s%t%u%f v%w%x%y%z%A%B%C%D%E%F%G%H%I%J%n K%L%M%6 N%6 ] ] ] ] ] , + ",
"+ , ] ] ] ] ] ] ] j O%P%Q%R%5 S%T%U%V%W%X%Y%Z%9%`% &.&+&@&#&$&%&&&*&=&D ] ] ] ] ] ] ] , + ",
"+ , ] ] ] ] ] ] ] ] ' -&N%] ;&>&,&'&)&A+a+a+B+!&~&A+`+{&]&^&/&(&_&:&<&[&] ] ] ] ] ] ] , + ",
"+ , ] ] ] ] ] ] ] ] ] ] ] ] }&|&1&2&3&4&5&6&c%7&8&9&0&a&b&c&d&e&f&g&h&> ] ] ] ] ] ] ] , + ",
"+ , ] ] ] ] ] ] ] ] ] ] ] ] i&j&k&l&m&n&o&p&q&r&s&t&u&v&w&x&y&' ] 9@9@] ] ] ] ] ] ] ] , + ",
"+ , ] ] ] ] ] ] ] ] ] ] ] ] z&A&B&C&D&E&F&G&H&I&J&K&L&M&N&O&P&Q&] ] ] ] ] ] ] ] ] ] ] , + ",
"+ , ] ] ] ] ] ] ] ] ] ] ] R&S&T&U&V&W&X&Y&Z&`& *.*+*@*#*N&$*%*&*] ] ] ] ] ] ] ] ] ] ] , + ",
"+ , ] ] ] ] ] ] ] ] ] ] ] **=*-*;*>*,*'*)*!*~*{*]*^*/*(*_*:*<*[*A@] ] ] ] ] ] ] ] ] ] , + ",
"+ , ] ] ] ] ] ] ] ] ] ] ] }*|*1*2*3*4*5*6*7*8*9*0*a*b*c*d*e*f*g*' ] ] ] ] ] ] ] ] ] ] , + ",
"+ , ] ] ] ] ] ] ] ] ] ] h*i*j*k*-%l*m*n*o*p*q*r*s*t*u*v*w*x*y*z*] ] ] ] ] ] ] ] ] ] ] , + ",
"+ , ] ] ] ] ] ] ] ] ] ] ] A*B*C*D*E*F*G*H*I*J*K*L*M*N*O*P*Q*R*S*] ] ] ] ] ] ] ] ] ] ] , + ",
"+ , ] ] ] ] ] ] ] ] ] ] ] ] T*U*V*W*X*Y*Z*`* =.=+=@=#=$=%=&=*=D ] ] ] ] ] ] ] ] ] ] ] , + ",
"+ , ] ] ] ] ] ] ] ] ] ] ] ] ] ] ==-=;=>=,='=)=!=~={=]=^=/=] ] ] ] ] ] ] ] ] ] ] ] ] ] , + ",
"+ , ] ] ] ] ] ] ] ] ] ] ] ] ] ] ] ^ (=_=:=<=[=}=|=1=2=3=6 ] ] ] ] ] ] ] ] ] ] ] ] ] ] , + ",
"+ , ] ] ] ] ] ] ] ] ] ] ] ] ] ] ] : 4=5=6=7=8=9=0=a=b=c=' ] ] ] ] ] ] ] ] ] ] ] ] ] ] , + ",
"+ , ] ] ] ] ] ] ] ] ] ] ] ] ] ] ] D d=e=f=g=h=i=j=k=l=m=] ] ] ] ] ] ] ] ] ] ] ] ] ] ] , + ",
". > ] ] ] ] ] ] ] ] ] ] ] ] ] ] ] ] |%n=o=p=6 r#q=r=q%6 ] ] ] ] ] ] ] ] ] ] ] ] ] ] ] > . ",
"  ; > , , , , , , , , , , , , , , , , ] s=, , , s=, , , , , , , , , , , , , , , , , > ;   ",
"    . + + + + + + + + + + + + + + + + + + + + + + + + + + + + + + + + + + + + + + + .     "};
