/* XPM */
static char * ENEMY_xpm[] = {
"45 45 740 2",
"  	c #131528",
". 	c #1C2036",
"+ 	c #1C2136",
"@ 	c #1E2338",
"# 	c #393A41",
"$ 	c #2A2E3E",
"% 	c #1C2137",
"& 	c #111325",
"* 	c #2F3855",
"= 	c #303957",
"- 	c #313A57",
"; 	c #22283B",
"> 	c #434445",
", 	c #303440",
"' 	c #2F364C",
") 	c #303956",
"! 	c #23293E",
"~ 	c #191110",
"{ 	c #72504B",
"] 	c #402B28",
"^ 	c #151929",
"/ 	c #303A57",
"( 	c #313A55",
"_ 	c #242834",
": 	c #73524C",
"< 	c #FFB7AC",
"[ 	c #91665F",
"} 	c #161927",
"| 	c #2E3652",
"1 	c #000009",
"2 	c #BA837B",
"3 	c #FFB5AB",
"4 	c #91655F",
"5 	c #141827",
"6 	c #2E3752",
"7 	c #000919",
"8 	c #B27D76",
"9 	c #8F645E",
"0 	c #131726",
"a 	c #2F3856",
"b 	c #313954",
"c 	c #1D2430",
"d 	c #835B56",
"e 	c #895E59",
"f 	c #121726",
"g 	c #2E3855",
"h 	c #545660",
"i 	c #41434D",
"j 	c #3D445B",
"k 	c #20273D",
"l 	c #4A3330",
"m 	c #885E58",
"n 	c #313A56",
"o 	c #23283B",
"p 	c #241817",
"q 	c #60413D",
"r 	c #2A2D33",
"s 	c #2F3956",
"t 	c #2E3856",
"u 	c #402A27",
"v 	c #161A28",
"w 	c #303853",
"x 	c #131B27",
"y 	c #976E62",
"z 	c #D1928A",
"A 	c #110B0D",
"B 	c #3D435B",
"C 	c #2F3854",
"D 	c #1F2128",
"E 	c #3B3D40",
"F 	c #353C53",
"G 	c #474A54",
"H 	c #5B5C60",
"I 	c #333B56",
"J 	c #2F3853",
"K 	c #3D2825",
"L 	c #FEB3A9",
"M 	c #181C29",
"N 	c #2D3550",
"O 	c #000000",
"P 	c #F1A99F",
"Q 	c #DA9991",
"R 	c #3E2A28",
"S 	c #373D4F",
"T 	c #384058",
"U 	c #181A25",
"V 	c #070201",
"W 	c #170702",
"X 	c #0F0200",
"Y 	c #542C18",
"Z 	c #532A17",
"` 	c #12181E",
" .	c #262B39",
"..	c #3D2A28",
"+.	c #FAB0A6",
"@.	c #181B28",
"#.	c #2C3550",
"$.	c #D3948B",
"%.	c #2B1D1C",
"&.	c #3E445C",
"*.	c #2B2E3C",
"=.	c #1A1B24",
"-.	c #130703",
";.	c #4E2A1A",
">.	c #562E1C",
",.	c #2B160C",
"'.	c #80472D",
").	c #4D291A",
"!.	c #73504C",
"~.	c #21130F",
"{.	c #683823",
"].	c #0E0602",
"^.	c #3C2724",
"/.	c #FBB0A6",
"(.	c #875D57",
"_.	c #303955",
":.	c #343C57",
"<.	c #333B57",
"[.	c #303855",
"}.	c #000003",
"|.	c #C88D85",
"1.	c #CD8F87",
"2.	c #060709",
"3.	c #283048",
"4.	c #000100",
"5.	c #1C0D06",
"6.	c #5D3320",
"7.	c #81472D",
"8.	c #623520",
"9.	c #71524A",
"0.	c #FFB4A9",
"a.	c #9D6D67",
"b.	c #7B432B",
"c.	c #80462D",
"d.	c #4D2919",
"e.	c #8A605B",
"f.	c #946862",
"g.	c #2F3751",
"h.	c #131A2B",
"i.	c #191A1A",
"j.	c #2E354D",
"k.	c #222731",
"l.	c #805C56",
"m.	c #CC8E86",
"n.	c #000001",
"o.	c #242B43",
"p.	c #050609",
"q.	c #492617",
"r.	c #723E27",
"s.	c #82482D",
"t.	c #5E3420",
"u.	c #2B0B00",
"v.	c #D4968B",
"w.	c #FFB4AA",
"x.	c #9F6E68",
"y.	c #3A1808",
"z.	c #5F3320",
"A.	c #7E452C",
"B.	c #572F1C",
"C.	c #503734",
"D.	c #191C2A",
"E.	c #343D59",
"F.	c #1A1E2A",
"G.	c #8E7C6C",
"H.	c #D8BDA6",
"I.	c #D2B8A2",
"J.	c #685B4F",
"K.	c #20242E",
"L.	c #313542",
"M.	c #6F584F",
"N.	c #CC8F86",
"O.	c #000002",
"P.	c #2B324A",
"Q.	c #010303",
"R.	c #472617",
"S.	c #7B432A",
"T.	c #6F422E",
"U.	c #6B5D50",
"V.	c #7A695C",
"W.	c #867768",
"X.	c #E6A198",
"Y.	c #9D6B65",
"Z.	c #ECCFB6",
"`.	c #817062",
" +	c #6A584C",
".+	c #6E3B24",
"++	c #502B1A",
"@+	c #140E0D",
"#+	c #292F44",
"$+	c #050811",
"%+	c #B49D8A",
"&+	c #FFE0C5",
"*+	c #D2B9A2",
"=+	c #1F1A16",
"-+	c #9B6C66",
";+	c #CE9088",
">+	c #333B58",
",+	c #2F3955",
"'+	c #383E52",
")+	c #16191E",
"!+	c #4A2617",
"~+	c #764128",
"{+	c #280C02",
"]+	c #C0A995",
"^+	c #FCDEC3",
"/+	c #FEDFC4",
"(+	c #8C7C6C",
"_+	c #E5A097",
":+	c #F2AAA0",
"<+	c #6E4A46",
"[+	c #FBDDC2",
"}+	c #FFE3C8",
"|+	c #F6D7BD",
"1+	c #958373",
"2+	c #4E2613",
"3+	c #59301E",
"4+	c #00060B",
"5+	c #000101",
"6+	c #B49E8A",
"7+	c #FFE1C6",
"8+	c #2D2620",
"9+	c #E19E95",
"0+	c #2A1D1C",
"a+	c #444A61",
"b+	c #202432",
"c+	c #2C150C",
"d+	c #78422A",
"e+	c #3B302A",
"f+	c #D2B9A3",
"g+	c #FBDDC3",
"h+	c #FBDCC2",
"i+	c #C7AF9A",
"j+	c #996A63",
"k+	c #DC9A91",
"l+	c #796B5E",
"m+	c #5A5149",
"n+	c #E3C8B3",
"o+	c #665954",
"p+	c #432517",
"q+	c #1A0C06",
"r+	c #B09A87",
"s+	c #F5ACA2",
"t+	c #DD9B92",
"u+	c #442E2B",
"v+	c #363C4D",
"w+	c #2F3752",
"x+	c #131623",
"y+	c #4C291A",
"z+	c #35261E",
"A+	c #D6BCA5",
"B+	c #F3D5BF",
"C+	c #C7B0A6",
"D+	c #938070",
"E+	c #A48979",
"F+	c #EEB0A3",
"G+	c #FFB9AD",
"H+	c #62423E",
"I+	c #888889",
"J+	c #B0B0B0",
"K+	c #C5C5C5",
"L+	c #A6A6A6",
"M+	c #9A877B",
"N+	c #E1C6B0",
"O+	c #6B584C",
"P+	c #401F10",
"Q+	c #61554A",
"R+	c #F2D5BB",
"S+	c #2B251F",
"T+	c #875E58",
"U+	c #F9AFA5",
"V+	c #D7968E",
"W+	c #362523",
"X+	c #3C4256",
"Y+	c #272E47",
"Z+	c #060300",
"`+	c #7A432B",
" @	c #7D452C",
".@	c #2D0A00",
"+@	c #D6BBA5",
"@@	c #FEDFC3",
"#@	c #C0AAA3",
"$@	c #DCC1A9",
"%@	c #FDDDC3",
"&@	c #FDD8BF",
"*@	c #A38275",
"=@	c #7A7A7A",
"-@	c #F9F9F9",
";@	c #FFFFFF",
">@	c #FBFBFB",
",@	c #686766",
"'@	c #E1C5AD",
")@	c #D7BCA5",
"!@	c #020100",
"~@	c #50463D",
"{@	c #EFD2B9",
"]@	c #D6BCA6",
"^@	c #1B1813",
"/@	c #C78B83",
"(@	c #FFB3A9",
"_@	c #09080A",
":@	c #353E59",
"<@	c #33394C",
"[@	c #3F2213",
"}@	c #6B3B25",
"|@	c #9E8B79",
"1@	c #F6D8BE",
"2@	c #DDC2B3",
"3@	c #CCB4AB",
"4@	c #938071",
"5@	c #9F9FA0",
"6@	c #EBEBEB",
"7@	c #5D5E5F",
"8@	c #B19C88",
"9@	c #E6CAB2",
"0@	c #53483F",
"a@	c #746558",
"b@	c #453C34",
"c@	c #C5AD98",
"d@	c #857466",
"e@	c #543A34",
"f@	c #E8A499",
"g@	c #F0A99F",
"h@	c #B17A73",
"i@	c #222736",
"j@	c #2F3753",
"k@	c #313955",
"l@	c #3B3D41",
"m@	c #5D321F",
"n@	c #4D3C33",
"o@	c #E3C7AF",
"p@	c #FDDEC4",
"q@	c #A18D7B",
"r@	c #D3BAAC",
"s@	c #EFD2BC",
"t@	c #EDD0BB",
"u@	c #E6CAB7",
"v@	c #FFE1C5",
"w@	c #D1B8A2",
"x@	c #9D9D9E",
"y@	c #FEFEFE",
"z@	c #D2D2D2",
"A@	c #676665",
"B@	c #6A4D3C",
"C@	c #917764",
"D@	c #F8DAC0",
"E@	c #8D7B6B",
"F@	c #C6AD99",
"G@	c #F5D7BD",
"H@	c #DABFA8",
"I@	c #6B5E52",
"J@	c #211C18",
"K@	c #77554F",
"L@	c #D2938B",
"M@	c #785750",
"N@	c #4A4038",
"O@	c #131827",
"P@	c #484A52",
"Q@	c #502A19",
"R@	c #5C4C40",
"S@	c #FFE2C7",
"T@	c #DFC4AC",
"U@	c #A08C7A",
"V@	c #EBCFBB",
"W@	c #F1D3BA",
"X@	c #F3D6BC",
"Y@	c #8C8A87",
"Z@	c #F3F3F3",
"`@	c #E3E3E3",
" #	c #2E2521",
".#	c #886552",
"+#	c #372822",
"@#	c #8E6A55",
"##	c #EECDB4",
"$#	c #A89381",
"%#	c #584C42",
"&#	c #DCC1AA",
"*#	c #D5BBA4",
"=#	c #F0A89F",
"-#	c #8B605B",
";#	c #EED0B7",
">#	c #FDDEC3",
",#	c #DBC0A9",
"'#	c #343C55",
")#	c #323A56",
"!#	c #623521",
"~#	c #7C442B",
"{#	c #6C584C",
"]#	c #F0D3BA",
"^#	c #C9AE98",
"/#	c #73645A",
"(#	c #2B3145",
"_#	c #675A50",
":#	c #D6BBA4",
"<#	c #72675E",
"[#	c #493329",
"}#	c #84634F",
"|#	c #9E7760",
"1#	c #E3C4AA",
"2#	c #A79380",
"3#	c #998676",
"4#	c #B29C88",
"5#	c #EBCFB6",
"6#	c #5E5348",
"7#	c #E7A299",
"8#	c #9E8B7A",
"9#	c #E7CBB2",
"0#	c #473E36",
"a#	c #24252C",
"b#	c #232B42",
"c#	c #281409",
"d#	c #7F462C",
"e#	c #7A422A",
"f#	c #806E60",
"g#	c #C8B09A",
"h#	c #8B796B",
"i#	c #BCA591",
"j#	c #444756",
"k#	c #323B57",
"l#	c #2B344F",
"m#	c #352E28",
"n#	c #F0D3B9",
"o#	c #E9CBB3",
"p#	c #A4806A",
"q#	c #B58C70",
"r#	c #FBDCC1",
"s#	c #A5907E",
"t#	c #4B4239",
"u#	c #BAA38E",
"v#	c #3A2C28",
"w#	c #E49F96",
"x#	c #C2AB95",
"y#	c #120E0B",
"z#	c #494B51",
"A#	c #2C344E",
"B#	c #0C0F19",
"C#	c #552E1E",
"D#	c #7C432A",
"E#	c #716054",
"F#	c #C1A994",
"G#	c #232934",
"H#	c #333A4E",
"I#	c #907F71",
"J#	c #E2C6AE",
"K#	c #E5C9B1",
"L#	c #D8B398",
"M#	c #7D6658",
"N#	c #C4AA94",
"O#	c #C4AC97",
"P#	c #5E5148",
"Q#	c #A99482",
"R#	c #A78E7D",
"S#	c #DF9C93",
"T#	c #8A675F",
"U#	c #DCC2AA",
"V#	c #D1B8A1",
"W#	c #2E3754",
"X#	c #181D2D",
"Y#	c #391D11",
"Z#	c #5B4C41",
"`#	c #0D162B",
" $	c #474D63",
".$	c #2C2E35",
"+$	c #958273",
"@$	c #796A5D",
"#$	c #65574C",
"$$	c #9B8575",
"%$	c #7F5D43",
"&$	c #684B34",
"*$	c #BCA691",
"=$	c #E7CBB3",
"-$	c #90625D",
";$	c #B47D76",
">$	c #5B4F44",
",$	c #1B2133",
"'$	c #262A3C",
")$	c #0D0807",
"!$	c #683924",
"~$	c #4F3E33",
"{$	c #E4C8B0",
"]$	c #F8D7BD",
"^$	c #091426",
"/$	c #313956",
"($	c #313749",
"_$	c #4D3C32",
":$	c #E8CBB3",
"<$	c #807062",
"[$	c #A48C78",
"}$	c #6A4E38",
"|$	c #6D5442",
"1$	c #876F5D",
"2$	c #827263",
"3$	c #453B33",
"4$	c #E7CAB2",
"5$	c #F8D9BF",
"6$	c #7D6D60",
"7$	c #1F2127",
"8$	c #353C54",
"9$	c #1F2126",
"0$	c #3E2012",
"a$	c #633621",
"b$	c #8D7B6C",
"c$	c #F7D9BF",
"d$	c #786A66",
"e$	c #232C42",
"f$	c #33394E",
"g$	c #413737",
"h$	c #94705A",
"i$	c #867567",
"j$	c #876346",
"k$	c #D19C72",
"l$	c #857567",
"m$	c #F3D4BB",
"n$	c #EED1B8",
"o$	c #4F453C",
"p$	c #D7BCA6",
"q$	c #978574",
"r$	c #2B324B",
"s$	c #2C344D",
"t$	c #00070D",
"u$	c #693924",
"v$	c #392012",
"w$	c #AE9A94",
"x$	c #E3C8B5",
"y$	c #988575",
"z$	c #3D3534",
"A$	c #342723",
"B$	c #45332B",
"C$	c #9C745E",
"D$	c #B38875",
"E$	c #FADBC1",
"F$	c #745B3C",
"G$	c #3C312A",
"H$	c #655446",
"I$	c #9E8A79",
"J$	c #A38E7D",
"K$	c #CBB39D",
"L$	c #F8DABF",
"M$	c #76675A",
"N$	c #F0D2B9",
"O$	c #63564B",
"P$	c #1A1716",
"Q$	c #2A324C",
"R$	c #31384E",
"S$	c #14080A",
"T$	c #462416",
"U$	c #16120D",
"V$	c #D8BEA6",
"W$	c #FEE0C5",
"X$	c #CAB1A5",
"Y$	c #C6A691",
"Z$	c #BB967E",
"`$	c #9E755A",
" %	c #D9B79E",
".%	c #AD9280",
"+%	c #2F1F15",
"@%	c #946C4E",
"#%	c #F9DBC0",
"$%	c #9A8474",
"%%	c #FFDFC4",
"&%	c #B39D8A",
"*%	c #FCDDC3",
"=%	c #010100",
"-%	c #1C2337",
";%	c #414552",
">%	c #473F36",
",%	c #4F4439",
"'%	c #B39E8A",
")%	c #EFD2BB",
"!%	c #D7BDB1",
"~%	c #F2D4BA",
"{%	c #967B66",
"]%	c #786454",
"^%	c #785940",
"/%	c #856247",
"(%	c #BAA38F",
"_%	c #E0C5AD",
":%	c #9F8C7B",
"<%	c #FADCC1",
"[%	c #DDC2AB",
"}%	c #342D26",
"|%	c #191C28",
"1%	c #303852",
"2%	c #2F354A",
"3%	c #28231D",
"4%	c #CDB49E",
"5%	c #544940",
"6%	c #40362F",
"7%	c #A69288",
"8%	c #CDB4A0",
"9%	c #2E2826",
"0%	c #83713E",
"a%	c #86743F",
"b%	c #39311F",
"c%	c #927F70",
"d%	c #9C8979",
"e%	c #E9CDB4",
"f%	c #3E352E",
"g%	c #171B2A",
"h%	c #2D3651",
"i%	c #2E2F34",
"j%	c #241F1A",
"k%	c #42381C",
"l%	c #C0A75C",
"m%	c #CEB362",
"n%	c #60532E",
"o%	c #EACC73",
"p%	c #E0C26D",
"q%	c #665437",
"r%	c #605348",
"s%	c #BDA591",
"t%	c #FFDEC4",
"u%	c #FEDEC4",
"v%	c #51463E",
"w%	c #93804F",
"x%	c #706250",
"y%	c #2B241F",
"z%	c #111626",
"A%	c #212639",
"B%	c #111219",
"C%	c #4A4032",
"D%	c #493F30",
"E%	c #A18C4C",
"F%	c #F7D779",
"G%	c #E2C46F",
"H%	c #826841",
"I%	c #E3C56F",
"J%	c #34281E",
"K%	c #4F473E",
"L%	c #635541",
"M%	c #675A3F",
"N%	c #6A5C37",
"O%	c #483E1F",
"P%	c #342D23",
"Q%	c #594D42",
"R%	c #1E2438",
"S%	c #323B58",
"T%	c #242B40",
"U%	c #928070",
"V%	c #988675",
"W%	c #F8D879",
"X%	c #866B42",
"Y%	c #E9CA72",
"Z%	c #866B43",
"`%	c #80683F",
" &	c #C2A65F",
".&	c #E0C36E",
"+&	c #EECF75",
"@&	c #A48E4E",
"#&	c #736659",
"$&	c #C8AF99",
"%&	c #000004",
"&&	c #BBA490",
"*&	c #A18B4B",
"=&	c #8A6F44",
"-&	c #EBCC73",
";&	c #967A4A",
">&	c #8F7447",
",&	c #EFD075",
"'&	c #AB9452",
")&	c #7C6D5F",
"!&	c #C4AB96",
"~&	c #272E46",
"{&	c #453B32",
"]&	c #78695C",
"^&	c #82703C",
"/&	c #C9AE62",
"(&	c #BAA15A",
"_&	c #9E864E",
":&	c #CFB365",
"<&	c #836B41",
"[&	c #826A40",
"}&	c #E3C46F",
"|&	c #DDC06C",
"1&	c #D2B767",
"2&	c #958148",
"3&	c #64574B",
"4&	c #9B8876",
"5&	c #292C35",
"6&	c #353C55",
"7&	c #25272D",
"8&	c #0A0701",
"9&	c #1D1F22",
"0&	c #29292B",
"a&	c #363225",
"b&	c #423820",
"c&	c #251E0F",
"d&	c #2D2313",
"e&	c #5D4E2C",
"f&	c #4E4325",
"g&	c #38311B",
"h&	c #0F0C06",
"i&	c #14171D",
"j&	c #3F4456",
"k&	c #2E3753",
"l&	c #1A2D44",
"m&	c #284364",
"n&	c #233C59",
"o&	c #030913",
"p&	c #284466",
"q&	c #284465",
"r&	c #233C5A",
"s&	c #323A55",
"t&	c #171614",
"u&	c #122031",
"v&	c #223A56",
"w&	c #353D57",
"x&	c #4E4F52",
"y&	c #243E5D",
"z&	c #223D5D",
"A&	c #223B58",
"B&	c #030810",
"C&	c #233E5E",
"D&	c #233E5D",
"E&	c #223954",
"F&	c #3F424C",
"G&	c #121110",
"H&	c #BBBBBB",
"I&	c #C3C3C3",
"J&	c #747473",
"K&	c #2A2A2A",
"L&	c #BDBDBD",
"M&	c #C3C3C2",
"N&	c #6D6C6C",
"O&	c #161A29",
"P&	c #5C5C5C",
"Q&	c #626261",
"R&	c #373737",
"S&	c #252B3F",
"T&	c #1A1D27",
"U&	c #616162",
"V&	c #323232",
"W&	c #242B41",
"X&	c #1C2235",
"Y&	c #1B2135",
"Z&	c #22293D",
"`&	c #333C57",
" *	c #1B2134",
".*	c #252B40",
"+*	c #1D2137",
"@*	c #1C2133",
"    . + + + + + + + + + + + + + + + + + + + + @ # $ % + + + + + + + + + + + + + + + .     ",
"  & * = = = = = = = = = = = = = = = = = = = - ; > , ' = = = = = = = = = = = = = = = * &   ",
". * ) ) ) ) ) ) ) ) ) ) ) ) ) ) ) ) ) ) ) ) ! ~ { ] ^ / ) ) ) ) ) ) ) ) ) ) ) ) ) ) ) * . ",
"+ = ) ) ) ) ) ) ) ) ) ) ) ) ) ) ) ) ) ) ) ( _ : < [ } / ) ) ) ) ) ) ) ) ) ) ) ) ) ) ) = + ",
"+ = ) ) ) ) ) ) ) ) ) ) ) ) ) ) ) ) ) ) ) | 1 2 3 4 5 / ) ) ) ) ) ) ) ) ) ) ) ) ) ) ) = + ",
"+ = ) ) ) ) ) ) ) ) ) ) ) ) ) ) ) ) ) ) ) 6 7 8 3 9 0 / ) ) ) ) ) ) ) a ) ) ) ) ) ) ) = + ",
"+ = ) ) ) ) ) ) ) ) ) ) ) ) ) ) ) ) ) ) ) b c d 3 e f / ) ) ) ) ) ) g h i j ) ) ) ) ) = + ",
"+ = ) ) ) ) ) ) ) ) ) ) ) ) ) ) ) ) ) ) ) ) k l 3 m f / ) ) ) ) ) n o p q r ) ) ) ) ) = + ",
"+ = ) ) ) ) ) ) ) ) ) ) ) ) ) s ) s t ) ) ) k u 3 m v / ) ) ) ) ) w x y z A B ) ) ) ) = + ",
"+ = ) ) ) ) ) ) ) ) ) ) ) C D E F G H I | J ! K L m M = ) ) ) ) ) N O P Q R S ) ) ) ) = + ",
"+ = ) ) ) ) ) ) ) ) ) - T U V W X Y Z O O `  ...+.m @./ ) ) ) ) ) #.O P $.%.&.) ) ) ) = + ",
"+ = ) ) ) ) ) ) ) ) C *.=.-.;.>.,.'.).!.~.{.].^./.(.0 / ) _.:.<.[.#.}.|.1.2.n ) ) ) ) = + ",
"+ = ) ) ) ) ) ) = 3.4.5.6.'.7.7.7.8.9.0.a.b.c.d.e.f.} / g.h.O O i.j.k.l.m.n.) ) ) ) ) = + ",
"+ = ) ) ) ) ) ) o.p.q.r.'.7.7.s.t.u.v.w.x.y.z.A.B.C.D.E.F.G.H.I.J.K.L.M.N.O.) ) ) ) ) = + ",
"+ = ) ) ) ) ) P.Q.R.7.7.7.S.T.U.V.W.X.w.Y.Z.`. +.+++@+#+$+%+&+&+*+=+O -+;+2.>+) ) ) ) = + ",
"+ = ) ) ) ,+'+)+!+c.7.7.~+{+]+^+/+(+_+:+<+[+}+|+1+2+3+4+5+6+&+&+7+8+O 9+$.0+a+) ) ) ) = + ",
"+ = ) ) ) ) b+c+d+7.7.d+e+f+g+h+i+j++.k+l+1+m+H.n+o+p+q+O r+&+&+&+8+O s+t+u+v+) ) ) ) = + ",
"+ = ) ) ) w+x+y+s.7.~+z+A+B+C+D+E+F+G+H+I+J+K+L+M+N+O+P+O Q+R+&+7+S+T+U+V+W+X+) ) ) ) = + ",
"+ = ) ) ) Y+Z+`+7. @.@+@&+@@#@$@%@&@*@=@-@;@;@>@,@'@)@O !@~@{@&+]@^@/@(@N._@:@) ) ) ) = + ",
"+ = ) ) n <@[@'.7.}@|@[+1@2@3@B+h+&+4@5@;@;@;@6@7@8@9@O 0@a@b@c@d@e@f@g@h@O i@j@) ) ) = + ",
"+ = ) ) k@l@m@7.c.n@o@p@q@r@s@t@u@v@w@x@;@y@z@A@B@C@D@E@F@G@H@I@J@K@L@M@c@I.N@O@* ) ) = + ",
"+ = ) ) <.P@Q@'.7.R@S@T@U@V@G@W@X@&+^+Y@Z@`@ #.#+#@###$#%#&#&+*#O =#-#;#>#&+,#O '#) ) = + ",
"+ = ) ) )#O !#7.~#{#]#Q+R+^#/#(#_#,#&+:#<#O [#+#}#|#1#2#3#4#&+5#6#7#8#[+&+&+9#0#a#= ) = + ",
"+ = ) ) ) b#c#d#e#f#g#h#i#j#w+k#l#m#9#&+G@n#o#p#|#q#r#s#t#u#&+$@v#w#x#&+&+&+'@y#z#a ) = + ",
"+ = ) ) ) A#B#C#D#E#F#5#G#&.) ) ) H#I#J#K#H@S@L#M#N#O#P#Q#p@>#R#S#T#U#&+&+&+V#O W#) ) = + ",
"+ = ) ) ) - X#Y#d#Z#S@]#`#) ) ) )  $.$+$@$#$S@$$%$&$*$=$&+&+h+-$;$a@&+&+&+>#>$,$_.) ) = + ",
"+ = ) ) ) ) '$)$!$~${$]$^$k@) ) /$($_$:$<$i#[$}$|$1$p@7+T@h#2$`.3$4$&+&+5$6$7$8$) ) ) = + ",
"+ = ) ) ) ) = 9$0$a$b$c$d$e$= / f$g$h$&+]#i$j$k$l$m$&+n$o$$@S@S@p$a@S@h+q$O r$) ) ) ) = + ",
"+ = ) ) ) ) ) s$t$u$v$w$x$y$z$A$B$C$D$E$1+F$G$H$I$7+>#J$K$&+&+&+L$M$N$O$P$Q$) ) ) ) ) = + ",
"+ = ) ) ) ) ) E.R$S$T$U$V$W$X$Y$Z$`$ %.%+%@%Q##%$%%%&%y$*%&+&+S@I$=%O -%P.- ) ) ) ) ) = + ",
"+ = ) ) ) ) ) ) s ;%O >%,%'%)%!%~%{%]%^%/%b$(%_%:%7+{$<%&+&+&+[%}%|%1%) ) ) ) ) ) ) ) = + ",
"+ = ) ) ) ) ) ) ) - 2%3%4%5%6%7%8%9%0%a%b%H@c%d%_%&+/+e%_%Z.,#f%g%) ) ) ) ) ) ) ) ) ) = + ",
"+ = ) ) ) ) ) ) ) ) h%i%j%3%k%l%m%n%o%p%q%r%s%h+t%u%Z.v%w%x%y%z%k@) ) ) ) ) ) ) ) ) ) = + ",
"+ = ) ) ) ) ) ) ) ) ) _.[.A%B%C%D%E%F%G%H%I%J%K%L%M%N%O%P%Q%n.R%) ) ) ) ) ) ) ) ) ) ) = + ",
"+ = ) ) ) ) ) ) ) ) ) ) ) S%T%U%V%E%W%G%X%Y%Z%`% &.&+&@&#&$&%&- ) ) ) ) ) ) ) ) ) ) ) = + ",
"+ = ) ) ) ) ) ) ) ) ) ) ) ) T%&&$#*&W%G%=&-&;&>&,&F%W%'&)&!&%&) ) ) ) ) ) ) ) ) ) ) ) = + ",
"+ = ) ) ) ) ) ) ) ) ) ) ) ) ~&{&]&^&/&(&_&:&<&[&}&|&1&2&3&4&5&) ) ) ) ) ) ) ) ) ) ) ) = + ",
"+ = ) ) ) ) ) ) ) ) ) ) ) ) * 6&7&8&9&0&a&b&c&d&e&f&g&h&i&j&'#) ) ) ) ) ) ) ) ) ) ) ) = + ",
"+ = ) ) ) ) ) ) ) ) ) ) ) ) ) ) k&O l&m&m&n&O o&p&q&r&O s&) ) ) ) ) ) ) ) ) ) ) ) ) ) = + ",
"+ = ) ) ) ) ) ) ) ) ) ) ) ) ) ) C t&u&q&q&v&O o&p&q&r&O k&) ) ) _.) ) ) ) ) ) ) ) ) ) = + ",
"+ = ) ) ) ) ) ) ) ) ) ) ) ) ) ) w&x&%&y&z&A&O B&C&D&E&O k&) ) ) ) ) ) ) ) * ) ) ) ) ) = + ",
"+ = ) ) ) ) ) ) ) ) ) ) ) ) ) ) <.F&G&H&I&J&O K&L&M&N&O k&) ) ) ) ) ) ) ) ) ) ) ) ) ) = + ",
". * ) ) ) ) ) ) ) ) ) ) ) ) ) ) ) C O&P&Q&R&S&T&7@U&V&W&) ) ) ) ) ) ) ) ) ) ) ) ) ) ) * . ",
"  & * = = = = = = = = = = = = = = = / X&Y&Z&- `& *Y&.*- = = = = = = = = = = = = = = * &   ",
"    . + + + + + + + + + + + + + + + % +*+*% % @*+*+*% + + + + + + + + + + + + + + + .     "};
