/* XPM */
static char * RickW_xpm[] = {
"45 45 642 2",
"  	c #1A1C2C",
". 	c #212538",
"+ 	c #212639",
"@ 	c #25293A",
"# 	c #242839",
"$ 	c #191A2A",
"% 	c #323B56",
"& 	c #333C58",
"* 	c #363E58",
"= 	c #3F465B",
"- 	c #353D58",
"; 	c #333C57",
"> 	c #3A425A",
", 	c #2D313F",
"' 	c #292D3B",
") 	c #384059",
"! 	c #2E354B",
"~ 	c #181A1E",
"{ 	c #242835",
"] 	c #363E56",
"^ 	c #363E59",
"/ 	c #35394A",
"( 	c #353F44",
"_ 	c #293135",
": 	c #3D4356",
"< 	c #2B3248",
"[ 	c #3F464B",
"} 	c #5C6B72",
"| 	c #1B1E2F",
"1 	c #323B55",
"2 	c #3C4258",
"3 	c #20252D",
"4 	c #85A0AE",
"5 	c #566872",
"6 	c #3B3F4F",
"7 	c #2D354D",
"8 	c #3F494F",
"9 	c #A1C3D2",
"0 	c #57686F",
"a 	c #232734",
"b 	c #343B53",
"c 	c #343C57",
"d 	c #353E57",
"e 	c #2E313F",
"f 	c #62737C",
"g 	c #ADD5E6",
"h 	c #677E87",
"i 	c #2F3442",
"j 	c #313951",
"k 	c #22272D",
"l 	c #A5C7D8",
"m 	c #A5CADA",
"n 	c #647881",
"o 	c #1D1F27",
"p 	c #393F53",
"q 	c #343D58",
"r 	c #3B4154",
"s 	c #333C42",
"t 	c #A1C6D3",
"u 	c #B2DBEE",
"v 	c #79949F",
"w 	c #262A34",
"x 	c #3A425B",
"y 	c #363F58",
"z 	c #394158",
"A 	c #333B54",
"B 	c #151623",
"C 	c #9DBDCC",
"D 	c #B2DBED",
"E 	c #ABD1E4",
"F 	c #77909B",
"G 	c #262B32",
"H 	c #383F55",
"I 	c #262B35",
"J 	c #7C959F",
"K 	c #AFD8EA",
"L 	c #91B1BF",
"M 	c #1F242C",
"N 	c #384057",
"O 	c #394056",
"P 	c #2C303F",
"Q 	c #21242D",
"R 	c #2F3340",
"S 	c #39415A",
"T 	c #313953",
"U 	c #0F1221",
"V 	c #97B6C4",
"W 	c #B1DAEC",
"X 	c #ACD2E3",
"Y 	c #677C86",
"Z 	c #252832",
"` 	c #3B3F4D",
" .	c #3A464D",
"..	c #A3C7D8",
"+.	c #B2DAEE",
"@.	c #B1DBEC",
"#.	c #A9CEDE",
"$.	c #252C33",
"%.	c #343B51",
"&.	c #383F57",
"*.	c #393E51",
"=.	c #353945",
"-.	c #303A3F",
";.	c #586B74",
">.	c #66787F",
",.	c #22262D",
"'.	c #3E455B",
").	c #353D56",
"!.	c #1E212C",
"~.	c #88A4B1",
"{.	c #ABD0E1",
"].	c #090A0F",
"^.	c #6B808A",
"/.	c #B2DAED",
"(.	c #B2DAEC",
"_.	c #55646A",
":.	c #2D3141",
"<.	c #2E3241",
"[.	c #1F212A",
"}.	c #52636A",
"|.	c #758E99",
"1.	c #97B8C7",
"2.	c #A9CEDF",
"3.	c #61757E",
"4.	c #313647",
"5.	c #424654",
"6.	c #3D4153",
"7.	c #323A50",
"8.	c #333B55",
"9.	c #384058",
"0.	c #252732",
"a.	c #849FAC",
"b.	c #A9CFE0",
"c.	c #647A84",
"d.	c #96B5C3",
"e.	c #B1DBED",
"f.	c #B1DAED",
"g.	c #6C818B",
"h.	c #1C2327",
"i.	c #5A6C74",
"j.	c #96B3C0",
"k.	c #ADD3E6",
"l.	c #AFD7E9",
"m.	c #A0C3D4",
"n.	c #2C343A",
"o.	c #3B4258",
"p.	c #32394E",
"q.	c #15181A",
"r.	c #586A6F",
"s.	c #49585E",
"t.	c #333A41",
"u.	c #1E1E27",
"v.	c #131529",
"w.	c #252736",
"x.	c #100E17",
"y.	c #86A1AE",
"z.	c #AED6E6",
"A.	c #B0DAEB",
"B.	c #90AFBD",
"C.	c #8EADBB",
"D.	c #AED6E8",
"E.	c #78919B",
"F.	c #292C3B",
"G.	c #333B53",
"H.	c #1B1E28",
"I.	c #6D848D",
"J.	c #A4CAD9",
"K.	c #A1C7D5",
"L.	c #99BAC7",
"M.	c #8BA6B3",
"N.	c #7B939E",
"O.	c #566770",
"P.	c #86A3AF",
"Q.	c #B1DBEB",
"R.	c #B3DAEC",
"S.	c #B0D9EA",
"T.	c #B0D9EB",
"U.	c #AED3E3",
"V.	c #354046",
"W.	c #33394D",
"X.	c #2E364D",
"Y.	c #21252D",
"Z.	c #6A8189",
"`.	c #AACEE0",
" +	c #AAD0E2",
".+	c #9EC3D4",
"++	c #9CC0D0",
"@+	c #9CC2D3",
"#+	c #A7CDDE",
"$+	c #95B4C2",
"%+	c #21262E",
"&+	c #394057",
"*+	c #1D1F29",
"=+	c #61757D",
"-+	c #91B1BE",
";+	c #6D777C",
">+	c #969089",
",+	c #A2998D",
"'+	c #9C948A",
")+	c #7A7F80",
"!+	c #7F9BA7",
"~+	c #ACD5E6",
"{+	c #6D848F",
"]+	c #2C303C",
"^+	c #3E465D",
"/+	c #343D57",
"(+	c #353C53",
"_+	c #232730",
":+	c #697D86",
"<+	c #AAD1E1",
"[+	c #B2DAEB",
"}+	c #90ACB9",
"|+	c #847D75",
"1+	c #D0BEAC",
"2+	c #DCC8B4",
"3+	c #DDC8B5",
"4+	c #D6C5B3",
"5+	c #A19588",
"6+	c #768891",
"7+	c #9CBECC",
"8+	c #95B6C6",
"9+	c #B0D7EA",
"0+	c #A6CADA",
"a+	c #53636A",
"b+	c #2E383D",
"c+	c #2C3139",
"d+	c #323544",
"e+	c #3A3F51",
"f+	c #373E55",
"g+	c #1D212D",
"h+	c #6A8089",
"i+	c #B1D9EC",
"j+	c #7C7E7B",
"k+	c #D1C0AE",
"l+	c #DCCAB5",
"m+	c #DCCAB7",
"n+	c #DCCAB6",
"o+	c #DDCAB5",
"p+	c #C6B6A5",
"q+	c #5E5F5E",
"r+	c #7C97A2",
"s+	c #8EAEBB",
"t+	c #AFD6E8",
"u+	c #B0D8E9",
"v+	c #A0C4D5",
"w+	c #96BAC8",
"x+	c #8BAAB7",
"y+	c #758F9A",
"z+	c #576A72",
"A+	c #21242A",
"B+	c #33384A",
"C+	c #333C56",
"D+	c #363D55",
"E+	c #2F3548",
"F+	c #23252F",
"G+	c #101315",
"H+	c #6B838D",
"I+	c #AED7E8",
"J+	c #697F88",
"K+	c #576870",
"L+	c #6F6861",
"M+	c #CBBCAB",
"N+	c #DCC9B5",
"O+	c #DBC7B4",
"P+	c #8C867F",
"Q+	c #98BCCA",
"R+	c #B0D7EC",
"S+	c #9ABACA",
"T+	c #53646C",
"U+	c #101319",
"V+	c #313649",
"W+	c #333D58",
"X+	c #2F3549",
"Y+	c #232738",
"Z+	c #2A2A31",
"`+	c #282C2F",
" @	c #4C5960",
".@	c #647983",
"+@	c #738C97",
"@@	c #98B9C7",
"#@	c #B1D9EB",
"$@	c #A0C4D3",
"%@	c #9FC3D2",
"&@	c #819CA9",
"*@	c #6D7272",
"=@	c #C5B6A6",
"-@	c #D2C1AF",
";@	c #B9A999",
">@	c #AFA193",
",@	c #AE9F92",
"'@	c #708188",
")@	c #A1C4D3",
"!@	c #202328",
"~@	c #272A38",
"{@	c #383E52",
"]@	c #38405A",
"^@	c #363E57",
"/@	c #0E1016",
"(@	c #3B4144",
"_@	c #90A8B3",
":@	c #9EC1D0",
"<@	c #A8CDDE",
"[@	c #ADD5E7",
"}@	c #A0C1D1",
"|@	c #615F5C",
"1@	c #726E6A",
"2@	c #89A0AC",
"3@	c #96B6C2",
"4@	c #8FAAB7",
"5@	c #96B5C4",
"6@	c #B2D9EC",
"7@	c #B0DBED",
"8@	c #AED6E7",
"9@	c #85A2AD",
"0@	c #404C52",
"a@	c #2E303D",
"b@	c #373D53",
"c@	c #353D57",
"d@	c #30374C",
"e@	c #1B1F2B",
"f@	c #4C5B62",
"g@	c #98B8C5",
"h@	c #AFD7E8",
"i@	c #B1DAEB",
"j@	c #B1D9EA",
"k@	c #8099A4",
"l@	c #99B9C7",
"m@	c #B0DAEC",
"n@	c #A5CBDC",
"o@	c #516169",
"p@	c #1C1D24",
"q@	c #3E4356",
"r@	c #323A54",
"s@	c #272D3F",
"t@	c #2E373C",
"u@	c #738B96",
"v@	c #A1C4D5",
"w@	c #B0D8EA",
"x@	c #A0C5D5",
"y@	c #738E97",
"z@	c #282C34",
"A@	c #353A4D",
"B@	c #30384E",
"C@	c #1E232D",
"D@	c #293337",
"E@	c #6B828A",
"F@	c #AAD0E0",
"G@	c #87A4AF",
"H@	c #353F45",
"I@	c #323646",
"J@	c #373F57",
"K@	c #2F364E",
"L@	c #212431",
"M@	c #829FAB",
"N@	c #ABD3E4",
"O@	c #AFD6E7",
"P@	c #A9CCDC",
"Q@	c #7B8F99",
"R@	c #131417",
"S@	c #3C404E",
"T@	c #31374A",
"U@	c #1B2027",
"V@	c #6E868F",
"W@	c #AACFE1",
"X@	c #B2D8EC",
"Y@	c #A9D0E1",
"Z@	c #60747D",
"`@	c #415057",
" #	c #3B494F",
".#	c #2E363C",
"+#	c #1F222B",
"@#	c #3D4254",
"##	c #272D40",
"$#	c #3C464A",
"%#	c #89A4AF",
"&#	c #B2D8E8",
"*#	c #B1DBEE",
"=#	c #AED5E7",
"-#	c #637882",
";#	c #1E212D",
">#	c #3C435A",
",#	c #3E455D",
"'#	c #333A4F",
")#	c #121319",
"!#	c #414C51",
"~#	c #657982",
"{#	c #69818B",
"]#	c #88A6B3",
"^#	c #A4C6D6",
"/#	c #ABD0E0",
"(#	c #B3DAED",
"_#	c #8FABB9",
":#	c #22272F",
"<#	c #3B4259",
"[#	c #2D3140",
"}#	c #282B36",
"|#	c #2F3341",
"1#	c #2C313D",
"2#	c #191E29",
"3#	c #191F26",
"4#	c #4A595F",
"5#	c #A5C9DA",
"6#	c #ADD4E5",
"7#	c #A4C8D8",
"8#	c #A7C9D9",
"9#	c #323A3F",
"0#	c #363B4E",
"a#	c #293146",
"b#	c #47565D",
"c#	c #A5CBDB",
"d#	c #ACD2E4",
"e#	c #90AEBC",
"f#	c #2E373B",
"g#	c #4B5961",
"h#	c #54666E",
"i#	c #657880",
"j#	c #373E42",
"k#	c #2D303E",
"l#	c #2F364B",
"m#	c #53636B",
"n#	c #AAD0E1",
"o#	c #768E99",
"p#	c #6A7D85",
"q#	c #A6CCDB",
"r#	c #98B9C8",
"s#	c #18141C",
"t#	c #434655",
"u#	c #404350",
"v#	c #303443",
"w#	c #272A34",
"x#	c #3A3F4F",
"y#	c #272B37",
"z#	c #54656D",
"A#	c #8FAEBC",
"B#	c #829EAA",
"C#	c #7D8E95",
"D#	c #6D7C84",
"E#	c #A8CEDE",
"F#	c #93B5C3",
"G#	c #74868F",
"H#	c #91B1C0",
"I#	c #B2DCEE",
"J#	c #9CBDCC",
"K#	c #959A9A",
"L#	c #828686",
"M#	c #636C6F",
"N#	c #8AA9B7",
"O#	c #9EC0D0",
"P#	c #303338",
"Q#	c #353D55",
"R#	c #353E58",
"S#	c #3C445C",
"T#	c #363F59",
"U#	c #1D202E",
"V#	c #1C2025",
"W#	c #292E34",
"X#	c #373A3A",
"Y#	c #C0CAC8",
"Z#	c #8E9595",
"`#	c #7A95A0",
" $	c #A4C6D5",
".$	c #747D7E",
"+$	c #D3DCDB",
"@$	c #7E878A",
"#$	c #98B8C6",
"$$	c #6A797E",
"%$	c #DBE3E3",
"&$	c #9CA2A2",
"*$	c #A1A8A7",
"=$	c #ACB3B2",
"-$	c #4F5D63",
";$	c #1D1F22",
">$	c #30374E",
",$	c #2A3042",
"'$	c #666A6A",
")$	c #E8F0F0",
"!$	c #747878",
"~$	c #858B8C",
"{$	c #7E8485",
"]$	c #D2DAD9",
"^$	c #F0FBF9",
"/$	c #D4DCDC",
"($	c #7A8081",
"_$	c #C4CBCB",
":$	c #F2FBFB",
"<$	c #ACB3B3",
"[$	c #9DA2A2",
"}$	c #EEF8F7",
"|$	c #6E7271",
"1$	c #14161F",
"2$	c #323A51",
"3$	c #181C2A",
"4$	c #ACB2B2",
"5$	c #F2FCFA",
"6$	c #717575",
"7$	c #DEE7E6",
"8$	c #E5EFEC",
"9$	c #F1FBF9",
"0$	c #F0FAF9",
"a$	c #F0F9F8",
"b$	c #E8F1F0",
"c$	c #EFFAF8",
"d$	c #F1FBFA",
"e$	c #C6CCCC",
"f$	c #7E8383",
"g$	c #EFFAF9",
"h$	c #BFC6C6",
"i$	c #131624",
"j$	c #333C55",
"k$	c #2F374F",
"l$	c #333538",
"m$	c #DEE6E5",
"n$	c #6F7474",
"o$	c #E9F2F2",
"p$	c #DAE3E1",
"q$	c #6D7271",
"r$	c #E8F3F1",
"s$	c #E4EBEA",
"t$	c #515453",
"u$	c #343C51",
"v$	c #282F45",
"w$	c #6D6F6E",
"x$	c #DCE4E3",
"y$	c #E3ECEB",
"z$	c #707473",
"A$	c #EAF4F3",
"B$	c #EAF5F3",
"C$	c #737777",
"D$	c #DDE6E5",
"E$	c #DAE3E2",
"F$	c #7C807E",
"G$	c #313646",
"H$	c #2A3249",
"I$	c #282828",
"J$	c #74716C",
"K$	c #6A6865",
"L$	c #5C605E",
"M$	c #EBF4F3",
"N$	c #EFFBF9",
"O$	c #8D9291",
"P$	c #636360",
"Q$	c #75716C",
"R$	c #353432",
"S$	c #353B4C",
"T$	c #323950",
"U$	c #343231",
"V$	c #B7A99B",
"W$	c #C2B3A2",
"X$	c #878A88",
"Y$	c #F0FAF7",
"Z$	c #E5EFEE",
"`$	c #DEE9E7",
" %	c #E2EDEB",
".%	c #E8F2F0",
"+%	c #ECF6F5",
"@%	c #B1B8B7",
"#%	c #B4A695",
"$%	c #BFB0A2",
"%%	c #403C39",
"&%	c #2D354B",
"*%	c #161923",
"=%	c #554E47",
"-%	c #81786D",
";%	c #666A68",
">%	c #939897",
",%	c #747876",
"'%	c #696B67",
")%	c #5E605D",
"!%	c #585C5B",
"~%	c #606362",
"{%	c #6B6E6C",
"]%	c #7B7F7F",
"^%	c #919897",
"/%	c #7C8181",
"(%	c #80756A",
"_%	c #69605A",
":%	c #171920",
"<%	c #323A52",
"[%	c #1F2332",
"}%	c #1A1E2B",
"|%	c #151925",
"1%	c #281F13",
"2%	c #685130",
"3%	c #6F5733",
"4%	c #44351E",
"5%	c #17181D",
"6%	c #342718",
"7%	c #6B5431",
"8%	c #67522E",
"9%	c #2C2312",
"0%	c #171A24",
"a%	c #1F2431",
"b%	c #333B51",
"c%	c #343B52",
"d%	c #211D19",
"e%	c #544325",
"f%	c #584628",
"g%	c #312714",
"h%	c #2A2C38",
"i%	c #271F14",
"j%	c #564427",
"k%	c #564426",
"l%	c #231C10",
"m%	c #0D0F17",
"n%	c #787877",
"o%	c #8C8C8B",
"p%	c #484847",
"q%	c #191A20",
"r%	c #1F1F1F",
"s%	c #898988",
"t%	c #7C7C7B",
"u%	c #2B2B2B",
"v%	c #343C52",
"w%	c #17171A",
"x%	c #343434",
"y%	c #3B3B3B",
"z%	c #1D1D1D",
"A%	c #141417",
"B%	c #0E0E0E",
"C%	c #393939",
"D%	c #363636",
"E%	c #0D0D0D",
"F%	c #2D354C",
"G%	c #1F2331",
"H%	c #101011",
"I%	c #212121",
"J%	c #0F0F0F",
"K%	c #2E3343",
"L%	c #15161D",
"M%	c #141415",
"N%	c #1D1F28",
"O%	c #323B54",
"P%	c #242A3D",
"Q%	c #191E2B",
"R%	c #23293B",
"S%	c #2B3146",
"T%	c #171D2B",
"U%	c #242A3C",
"V%	c #323A53",
"W%	c #222639",
"X%	c #202334",
"Y%	c #1E2234",
"    . + + + + + + + + + + + + + + + + + + + + + @ # + + + + + + + + + + + + + + + + .     ",
"  $ % & & & & & & & & & * = - & & & & & & & ; > , ' ) ; & & & & & & & & & & & & & & % $   ",
". % ; ; ; ; ; ; ; ; ; ; ! ~ { ] ; ; ; ; ; ; ^ / ( _ : ; ; ; ; ; ; ; ; ; ; ; ; ; ; ; ; % . ",
"+ & ; ; ; ; ; ; ; ; ; ; < [ } | 1 ; ; ; ; ; 2 3 4 5 6 ; ; ; ; ; ; ; ; ; ; ; ; ; ; ; ; & + ",
"+ & ; ; ; ; ; ; ; ; ; ; 7 8 9 0 a b c ; ; d e f g h i - ; ; ; ; ; ; ; ; ; ; ; ; ; ; ; & + ",
"+ & ; ; ; ; ; ; ; ; ; ; j k l m n o p q ; r s t u v w x ; ; ; ; ; y z ) ; ; ; ; ; ; ; & + ",
"+ & ; ; ; ; ; ; ; ; ; ; A B C D E F G H > I J K D L M N ; ; ; q O P Q R S ; ; ; ; ; ; & + ",
"+ & ; ; ; ; ; ; ; ; ; ; T U V D W X Y Z `  ...+.@.#.$.%.* &.*.=.-.;.>.,.'.; ; ; ; ; ; & + ",
"+ & ; ; ; ; ; ; ; ; ; ; ).!.~.D W W {.Y ].^./.(.W K _.:.<.[.}.|.1.2.3.4.q ; ; ; ; ; ; & + ",
"+ & ; ; ; ).5.6.7.8.8.% 9.0.a.u W W W b.c.d.e.W f.W g.h.i.j.k.l.W m.n.o.; ; ; ; ; ; ; & + ",
"+ & ; ; ; p.q.r.s.t.u.v.w.x.y.D W W W f.z.A.W W W e.B.C.D.u W W W E.F.c ; ; ; ; ; ; ; & + ",
"+ & ; ; ; G.H.I.J.K.L.M.N.O.P.D W (.(.@.@.Q.R.Q.(.W S.T.W W W (.U.V.W.c ; ; ; ; ; ; ; & + ",
"+ & ; ; ; ; X.Y.Z.`.u e.@.D /.W W W e. +.+++@+#+T.W W W W W W D $+%+&+; ; ; ; ; ; ; ; & + ",
"+ & ; ; ; ; ; 7.*+=+b.W W W W W @.T.-+;+>+,+'+)+!+~+/.Q.W W W l.{+]+^+/+; ; ; ; ; ; ; & + ",
"+ & ; ; ; ; ; ; (+_+:+<+f.W W [+A.}+|+1+2+3+2+4+5+6+7+8+9+W W 0+a+b+c+d+e+f+d ; ; ; ; & + ",
"+ & ; ; ; ; ; ; ; b g+h+#.@.f.i+2.j+k+l+m+n+m+o+p+q+r+s+t+W W u+v+w+x+y+z+A+B+q ; ; ; & + ",
"+ & ; ; ; ; C+C+D+E+F+G+H+I+ +J+K+L+M+N+n+n+m+O+P+Q+R+W W W W W W (.l.S+T+U+V+W+; ; ; & + ",
"+ & ; ; ; X+Y+Z+`+ @.@+@@@#@D.$@%@&@*@=@-@;@>@,@'@g (.W W W W W W )@I.!@~@{@]@; ; ; ; & + ",
"+ & ; ; ^@/@(@_@:@<@[@#@W W W W W W }@|@1@2@3@4@5@6@7@W W W W 8@9@0@a@b@c@c ; ; ; ; ; & + ",
"+ & ; ; ; d@e@f@g@h@/.W W W W W W i@j@k@l@m@@.f.(.W f.W W W W n@o@p@q@/+; ; ; ; ; ; ; & + ",
"+ & ; ; ; ; r@s@t@u@v@W e.W W W W W W w@i@W W W W W W W W W W i+x@y@z@A@]@; ; ; ; ; ; & + ",
"+ & ; ; ; ; ; C+B@C@D@E@F@W W W W W W W W W W W W W W W W W W W (.t+G@H@I@J@; ; ; ; ; & + ",
"+ & ; ; ; ; ; ; K@L@}.M@ +f.W W W W W W W W W W W W W W W W W f.N@O@P@Q@R@S@; ; ; ; ; & + ",
"+ & ; ; ; ; C+T@U@V@W@X@W W W W W W W W W W W W W W W W W W W Y@Z@`@ #.#+#@#; ; ; ; ; & + ",
"+ & ; ; ; C+##$#%#&#*#@.(.W W W W W W W W W W W W W W W W W W =#-#;#q@>#,#/+; ; ; ; ; & + ",
"+ & ; ; ; '#)#!#~#{#]#^#/##@W W W W W W W W W W W W W W W W W (#_#:#<#; ; ; ; ; ; ; ; & + ",
"+ & ; ; ; A [#}#|#1#2#3#4#5#W W W W W W W W W W W f.W W 6#7#<@ +8#9#0#/+; ; ; ; ; ; ; & + ",
"+ & ; ; ; ; ; & ; & C+a#b#c#W W W W W W W W W W d#8@f.D e#f#g#h#i#j#k#/+; ; ; ; ; ; ; & + ",
"+ & ; ; ; ; ; ; ; ; ; l#m#n#S.g N@W W T.=#T.W l.o#p#q#i+r#s#t#u#v#w#x#c@; ; ; ; ; ; ; & + ",
"+ & ; ; ; ; ; ; ; ; ; y#z#A#B#C#D#E#i@F#G#H#I#J#K#L#M#N#O#P#Q#; R#S#T#; ; ; ; ; ; ; ; & + ",
"+ & ; ; ; ; ; ; ; ; ; U#V#W#X#Y#Z#`# $.$+$@$#$$$%$&$*$=$-$;$>$; ; ; ; ; ; ; ; ; ; ; ; & + ",
"+ & ; ; ; ; ; ; ; ; ; 8.1 ,$'$)$!$~${$]$^$/$($_$:$<$[$}$|$1$2$; ; ; ; ; ; ; ; ; ; ; ; & + ",
"+ & ; ; ; ; ; ; ; ; ; ; 8.3$4$5$6$7$8$9$0$a$b$c$d$e$f$g$h$i$j$; ; ; ; ; ; ; ; ; ; ; ; & + ",
"+ & ; ; ; ; ; ; ; ; ; ; k$l$m$0$n$o$0$0$0$0$0$0$0$p$q$r$s$t$u$; ; ; ; ; ; ; ; ; ; ; ; & + ",
"+ & ; ; ; ; ; ; ; ; ; ; v$w$x$y$z$A$0$0$0$0$0$0$0$B$C$D$E$F$G$; ; ; ; ; ; ; ; ; ; ; ; & + ",
"+ & ; ; ; ; ; ; ; ; ; ; H$I$J$K$L$M$0$N$0$0$0$0$0$c$O$P$Q$R$S$; ; ; ; ; ; ; ; ; ; ; ; & + ",
"+ & ; ; ; ; ; ; ; ; ; ; T$U$V$W$X$Y$A$Z$`$`$ %.%+%d$@%#%$%%%&%; ; ; ; ; ; ; ; ; ; ; ; & + ",
"+ & ; ; ; ; ; ; ; ; ; ; 2$*%=%-%;%>%,%'%)%!%~%{%]%^%/%(%_%:%2$; ; ; ; ; ; ; ; ; ; ; ; & + ",
"+ & ; ; ; ; ; ; ; ; ; ; ; <%[%}%|%1%2%3%4%5%6%7%8%9%0%3$a%b%; ; ; ; ; ; ; ; ; ; ; ; ; & + ",
"+ & ; ; ; ; ; ; ; ; ; ; ; ; ; c c%d%e%f%g%h%i%j%k%l%d@C+C+; ; ; ; ; ; ; ; ; ; ; ; ; ; & + ",
"+ & ; ; ; ; ; ; ; ; ; ; ; ; ; ; 8.m%n%o%p%q%r%s%t%u%v%; ; ; ; ; ; ; ; ; ; ; ; ; ; ; ; & + ",
"+ & ; ; ; ; ; ; ; ; ; ; ; ; ; ; &.w%x%y%z%A%B%C%D%E%F%; ; ; ; ; ; ; ; ; ; ; ; ; ; ; ; & + ",
". % ; ; ; ; ; ; ; ; ; ; ; ; ; ; C+G%H%I%J%K%L%I%M%N%] ; ; ; ; ; ; ; ; ; ; ; ; ; ; ; ; % . ",
"  $ % & & & & & & & & & & & & & & O%P%Q%R%C+S%T%U%V%; & & & & & & & & & & & & & & & % $   ",
"    . + + + + + + + + + + + + + + + W%X%. + + Y%W%+ + + + + + + + + + + + + + + + + .     "};
