/* XPM */
static char * RickD_xpm[] = {
"45 45 507 2",
"  	c #1A1C2C",
". 	c #212538",
"+ 	c #212639",
"@ 	c #191A2A",
"# 	c #323B56",
"$ 	c #333C58",
"% 	c #30374C",
"& 	c #23283B",
"* 	c #313953",
"= 	c #333C57",
"- 	c #272A37",
"; 	c #0D1315",
"> 	c #171B27",
", 	c #303750",
"' 	c #2B2E3C",
") 	c #586E78",
"! 	c #5E7680",
"~ 	c #12141E",
"{ 	c #2B3249",
"] 	c #1C202E",
"^ 	c #7897A3",
"/ 	c #A8D1E2",
"( 	c #708B97",
"_ 	c #11131A",
": 	c #2D344B",
"< 	c #2F3851",
"[ 	c #282F45",
"} 	c #2B3248",
"| 	c #2B334B",
"1 	c #2E364E",
"2 	c #313A53",
"3 	c #343C57",
"4 	c #1B202D",
"5 	c #7B9AA5",
"6 	c #AFD8EA",
"7 	c #A8D0E1",
"8 	c #6A8590",
"9 	c #151922",
"0 	c #2E354E",
"a 	c #21273B",
"b 	c #080E0D",
"c 	c #38494B",
"d 	c #354046",
"e 	c #1B2228",
"f 	c #151823",
"g 	c #1D2232",
"h 	c #2D3349",
"i 	c #333B56",
"j 	c #282D34",
"k 	c #86A8B5",
"l 	c #B0DAEC",
"m 	c #AAD3E5",
"n 	c #69838D",
"o 	c #131424",
"p 	c #313A54",
"q 	c #171E26",
"r 	c #75929D",
"s 	c #A4CCDD",
"t 	c #A1C8D8",
"u 	c #85A5B3",
"v 	c #617883",
"w 	c #38474E",
"x 	c #1B1F29",
"y 	c #282F43",
"z 	c #303851",
"A 	c #333C56",
"B 	c #313954",
"C 	c #232D32",
"D 	c #8FB2C0",
"E 	c #A5CDDE",
"F 	c #485B62",
"G 	c #23293C",
"H 	c #2A3148",
"I 	c #303D42",
"J 	c #9FC6D6",
"K 	c #B1DBED",
"L 	c #82A2AF",
"M 	c #38474C",
"N 	c #0D0D19",
"O 	c #242A3D",
"P 	c #2F354B",
"Q 	c #324046",
"R 	c #9EC4D4",
"S 	c #B0DAEB",
"T 	c #8AACBA",
"U 	c #1D262C",
"V 	c #2F374F",
"W 	c #323B55",
"X 	c #16192B",
"Y 	c #68818C",
"Z 	c #AFD9EB",
"` 	c #7A98A5",
" .	c #364248",
"..	c #151A21",
"+.	c #36454B",
"@.	c #A3CADA",
"#.	c #A9D3E4",
"$.	c #3C4C52",
"%.	c #252C40",
"&.	c #2C344B",
"*.	c #151A20",
"=.	c #92B5C4",
"-.	c #69838E",
";.	c #43555C",
">.	c #AED9EA",
",.	c #B1DCEE",
"'.	c #B2DDEF",
").	c #7997A3",
"!.	c #141729",
"~.	c #323A55",
"{.	c #1E2435",
"].	c #576D76",
"^.	c #A9D1E2",
"/.	c #ABD4E6",
"(.	c #9CC2D2",
"_.	c #B0DBED",
":.	c #ACD6E7",
"<.	c #8DAFBD",
"[.	c #667C85",
"}.	c #6D858F",
"|.	c #627881",
"1.	c #07050E",
"2.	c #2F3750",
"3.	c #161A21",
"4.	c #82A3B0",
"5.	c #B0D9EB",
"6.	c #819DA8",
"7.	c #8D8177",
"8.	c #C2B0A0",
"9.	c #C4B2A2",
"0.	c #AC9C8E",
"a.	c #625A53",
"b.	c #1D1F29",
"c.	c #272D43",
"d.	c #36444A",
"e.	c #83A2AF",
"f.	c #908479",
"g.	c #D9C6B4",
"h.	c #DCC8B6",
"i.	c #D0BEAC",
"j.	c #83766C",
"k.	c #111522",
"l.	c #2D354E",
"m.	c #2C344C",
"n.	c #0F131F",
"o.	c #586E77",
"p.	c #AAD3E4",
"q.	c #94B8C7",
"r.	c #76726D",
"s.	c #D4C1B0",
"t.	c #D1BEAD",
"u.	c #7B7166",
"v.	c #101624",
"w.	c #191C2F",
"x.	c #04000B",
"y.	c #2A3438",
"z.	c #4A5D65",
"A.	c #5B717B",
"B.	c #A0C7D7",
"C.	c #ABD4E5",
"D.	c #6D7C82",
"E.	c #C9B6A6",
"F.	c #DDC8B6",
"G.	c #DECAB7",
"H.	c #DDC9B7",
"I.	c #DEC9B7",
"J.	c #AE9F90",
"K.	c #7E7369",
"L.	c #1F1C1B",
"M.	c #293045",
"N.	c #222839",
"O.	c #1C222A",
"P.	c #333E45",
"Q.	c #6A858F",
"R.	c #99BFCE",
"S.	c #988B7F",
"T.	c #DAC6B4",
"U.	c #BFAE9F",
"V.	c #736C66",
"W.	c #8C8278",
"X.	c #B9A99A",
"Y.	c #C7B6A5",
"Z.	c #84786D",
"`.	c #161923",
" +	c #1B2131",
".+	c #20282B",
"++	c #75919D",
"@+	c #A4CBDC",
"#+	c #B1DBEE",
"$+	c #7D97A1",
"%+	c #B8A797",
"&+	c #827970",
"*+	c #7998A5",
"=+	c #8DB0BE",
"-+	c #7A99A5",
";+	c #6C8088",
">+	c #7A868B",
",+	c #6C7C83",
"'+	c #2D393F",
")+	c #2D344C",
"!+	c #293046",
"~+	c #1A2129",
"{+	c #556A73",
"]+	c #6F7F84",
"^+	c #C6B5A5",
"/+	c #777776",
"(+	c #5C727A",
"_+	c #74909C",
":+	c #8DAEBD",
"<+	c #97BBCA",
"[+	c #4D6169",
"}+	c #262D41",
"|+	c #303852",
"1+	c #1B2030",
"2+	c #2D393E",
"3+	c #636A6C",
"4+	c #D0BDAC",
"5+	c #DBC7B5",
"6+	c #7E756B",
"7+	c #A3A4A4",
"8+	c #9DA2A2",
"9+	c #8E8D8D",
"0+	c #8B8A89",
"a+	c #464747",
"b+	c #0C101B",
"c+	c #21273A",
"d+	c #2D373C",
"e+	c #83A2B0",
"f+	c #60615F",
"g+	c #716E6C",
"h+	c #FCFCFD",
"i+	c #FCFFFE",
"j+	c #FCFCFB",
"k+	c #F6FAF9",
"l+	c #B0B2B2",
"m+	c #071127",
"n+	c #1A2127",
"o+	c #607781",
"p+	c #9BC1D1",
"q+	c #A6CFE0",
"r+	c #5F5D5A",
"s+	c #CEBBAA",
"t+	c #797776",
"u+	c #FFFFFF",
"v+	c #F8FAFA",
"w+	c #949797",
"x+	c #8D9191",
"y+	c #151825",
"z+	c #313A55",
"A+	c #131724",
"B+	c #37464C",
"C+	c #9DC3D3",
"D+	c #768C94",
"E+	c #615A54",
"F+	c #B7A798",
"G+	c #79726C",
"H+	c #E7E8E7",
"I+	c #FFFEFE",
"J+	c #D6DAD9",
"K+	c #7C7E7D",
"L+	c #121929",
"M+	c #1C2232",
"N+	c #3E4C52",
"O+	c #9BC0D0",
"P+	c #75858B",
"Q+	c #BFAD9D",
"R+	c #D2BFAE",
"S+	c #D5C2B1",
"T+	c #C1B1A1",
"U+	c #83817F",
"V+	c #D8DDDD",
"W+	c #D8DADB",
"X+	c #A0A4A3",
"Y+	c #66605A",
"Z+	c #292626",
"`+	c #43545A",
" @	c #717E83",
".@	c #C8B6A5",
"+@	c #B2A293",
"@@	c #908275",
"#@	c #95887B",
"$@	c #AD9D8F",
"%@	c #BFAE9E",
"&@	c #73685E",
"*@	c #252B3D",
"=@	c #272F44",
"-@	c #273136",
";@	c #91B3C2",
">@	c #8CAFBC",
",@	c #8B8076",
"'@	c #C7B5A4",
")@	c #95887C",
"!@	c #A19285",
"~@	c #D8C4B2",
"{@	c #BCAB9C",
"]@	c #5E554D",
"^@	c #4F4740",
"/@	c #1A1D2B",
"(@	c #04030F",
"_@	c #6B8490",
":@	c #96BCCB",
"<@	c #A1C8D9",
"[@	c #9BC2D1",
"}@	c #AED8E9",
"|@	c #7F9FAB",
"1@	c #5C5651",
"2@	c #C4B3A2",
"3@	c #A99A8C",
"4@	c #181719",
"5@	c #1C2130",
"6@	c #080706",
"7@	c #2D393D",
"8@	c #253034",
"9@	c #242E35",
"0@	c #344146",
"a@	c #263034",
"b@	c #6E8995",
"c@	c #B0DAED",
"d@	c #96BAC9",
"e@	c #887E75",
"f@	c #C3B1A1",
"g@	c #BEAD9E",
"h@	c #C6B4A4",
"i@	c #746A60",
"j@	c #1D2230",
"k@	c #2E364F",
"l@	c #252A3E",
"m@	c #A3CBDB",
"n@	c #A3CADB",
"o@	c #6A6661",
"p@	c #A09285",
"q@	c #9D8F82",
"r@	c #6F655C",
"s@	c #756B62",
"t@	c #9C8E81",
"u@	c #8B7F74",
"v@	c #222120",
"w@	c #293147",
"x@	c #212334",
"y@	c #9FC5D5",
"z@	c #ADD7E8",
"A@	c #738890",
"B@	c #CEBCAB",
"C@	c #C7B5A5",
"D@	c #D7C4B2",
"E@	c #DECAB8",
"F@	c #9B8D81",
"G@	c #171C28",
"H@	c #333B55",
"I@	c #14111C",
"J@	c #88AAB7",
"K@	c #ABD3E5",
"L@	c #8EB0BF",
"M@	c #6B8690",
"N@	c #344147",
"O@	c #6C8691",
"P@	c #617780",
"Q@	c #73685F",
"R@	c #C9B7A6",
"S@	c #D6C3B1",
"T@	c #9A8C7F",
"U@	c #2E2A2A",
"V@	c #2A3249",
"W@	c #2F364E",
"X@	c #161A1D",
"Y@	c #596F78",
"Z@	c #334046",
"`@	c #0B0813",
" #	c #151826",
".#	c #0A0B18",
"+#	c #4D5F67",
"@#	c #7794A0",
"##	c #414748",
"$#	c #B0B6B5",
"%#	c #A2A4A3",
"&#	c #444242",
"*#	c #A7988B",
"=#	c #CBB9A8",
"-#	c #CBB8A8",
";#	c #BBAB9C",
">#	c #796E64",
",#	c #19191D",
"'#	c #2F3751",
")#	c #191C28",
"!#	c #1E2232",
"~#	c #292F45",
"{#	c #2E374F",
"]#	c #323A54",
"^#	c #21283C",
"/#	c #161415",
"(#	c #3E414F",
"_#	c #85898A",
":#	c #EDF7F6",
"<#	c #C5CDCC",
"[#	c #666868",
"}#	c #BEBFC0",
"|#	c #8B8A8A",
"1#	c #646665",
"2#	c #585551",
"3#	c #232328",
"4#	c #1E2536",
"5#	c #2D354D",
"6#	c #272E45",
"7#	c #535454",
"8#	c #C0C6C7",
"9#	c #B0B3B3",
"0#	c #EEF8F7",
"a#	c #CAD2D1",
"b#	c #878B8B",
"c#	c #E4EDEC",
"d#	c #8B8F8F",
"e#	c #81A5AD",
"f#	c #425057",
"g#	c #343B51",
"h#	c #23293E",
"i#	c #707070",
"j#	c #B9BFBF",
"k#	c #C5CCCC",
"l#	c #EFF9F8",
"m#	c #CBD2D2",
"n#	c #646565",
"o#	c #959999",
"p#	c #6A7B82",
"q#	c #93D1CA",
"r#	c #414D55",
"s#	c #353C52",
"t#	c #343C56",
"u#	c #242735",
"v#	c #A3A8A7",
"w#	c #ABB0B0",
"x#	c #BCBEBE",
"y#	c #E6F0EF",
"z#	c #C8D0D0",
"A#	c #8B8C8C",
"B#	c #777A7C",
"C#	c #77A9A3",
"D#	c #7FB5AE",
"E#	c #3B4850",
"F#	c #111321",
"G#	c #C5C9C9",
"H#	c #BDC2C2",
"I#	c #71665C",
"J#	c #897D72",
"K#	c #6F665F",
"L#	c #2A2623",
"M#	c #3C2E17",
"N#	c #170100",
"O#	c #03000A",
"P#	c #1A1D2C",
"Q#	c #404342",
"R#	c #DAE3E2",
"S#	c #CDD3D3",
"T#	c #92867B",
"U#	c #D3C0AE",
"V#	c #8E8175",
"W#	c #373029",
"X#	c #5D4A2B",
"Y#	c #16120E",
"Z#	c #33384C",
"`#	c #4D4D4C",
" $	c #ABADAD",
".$	c #8F9392",
"+$	c #343333",
"@$	c #887B70",
"#$	c #53493E",
"$$	c #5F4B2A",
"%$	c #574424",
"&$	c #12141D",
"*$	c #02040B",
"=$	c #040D21",
"-$	c #1F253A",
";$	c #242A3F",
">$	c #010206",
",$	c #504129",
"'$	c #614D2A",
")$	c #372E21",
"!$	c #161B2A",
"~$	c #313952",
"{$	c #0E0E13",
"]$	c #5F5F5F",
"^$	c #7D7F7E",
"/$	c #383837",
"($	c #1F2536",
"_$	c #32394E",
":$	c #101114",
"<$	c #737575",
"[$	c #9D9E9F",
"}$	c #494949",
"|$	c #04050A",
"1$	c #21283A",
"2$	c #0B0C0F",
"3$	c #262627",
"4$	c #292A2B",
"5$	c #2A2B2C",
"6$	c #232123",
"7$	c #0A0C13",
"8$	c #161A27",
"9$	c #0E1011",
"0$	c #0F121A",
"a$	c #0D0E12",
"b$	c #0C0B0D",
"c$	c #0D0F15",
"d$	c #1D2031",
"e$	c #191B29",
"f$	c #161826",
"g$	c #181B29",
"h$	c #202437",
"    . + + + + + + + + + + + + + + + + + + + + + + + + + + + + + + + + + + + + + + + .     ",
"  @ # $ $ $ $ $ $ $ $ $ $ $ $ $ $ $ $ $ $ % & * $ $ $ $ $ $ $ $ $ $ $ $ $ $ $ $ $ $ # @   ",
". # = = = = = = = = = = = = = = = = = = = - ; > , = = = = = = = = = = = = = = = = = = # . ",
"+ $ = = = = = = = = = = = = = = = = = = = ' ) ! ~ { = = = = = = = = = = = = = = = = = $ + ",
"+ $ = = = = = = = = = = = = = = = = = = = ] ^ / ( _ : = = = = = = = = = = = = = = = = $ + ",
"+ $ = = = = = = < [ } | 1 2 3 = = = = = = 4 5 6 7 8 9 0 = = = = = = = = = = = = = = = $ + ",
"+ $ = = = = = = a b c d e f g h # = = = i j k l l m n o p = = = = = = = = = = = = = = $ + ",
"+ $ = = = = = = | q r s t u v w x y z A B C D l l l E F G = = = = = = = = = = = = = = $ + ",
"+ $ = = = = = = $ H I J l K l J L M N O P Q R l l l S T U V = = = = = = = = = = = = = $ + ",
"+ $ = = = = = = = W X Y Z l l l Z s `  ...+.@.l l l l #.$.%.= = = = = = = = = = = = = $ + ",
"+ $ = = = = = = = = &.*.=.K l l l l K s -.;.>.l l K ,.'.).!.~.= = = = = = = = = = = = $ + ",
"+ $ = = = = = = = = i {.].^.l l l l l l /.(._.l :.<.[.}.|.1.2.= = = = = = = = = = = = $ + ",
"+ $ = = = = = = = = = z 3.4.5.l l l l l l l l :.6.7.8.9.0.a.b.1 = = = = = = = = = = = $ + ",
"+ $ = = = = = = = = = = c.d.(._.l l l l l l K e.f.g.h.h.h.i.j.k.l.= = = = = = = = = = $ + ",
"+ $ = = = = = = = = W * m.n.o.p.l l l l l l q.r.s.h.h.h.h.h.t.u.v.W = = = = = = = = = $ + ",
"+ $ = = = = = = * [ w.x.y.z.A.B.l l l l l C.D.E.h.h.F.G.H.I.J.K.L.M.$ = = = = = = = = $ + ",
"+ $ = = = = 2 N.O.P.Q.R.^.m /.6 l l l l l q.S.T.h.h.U.V.W.X.Y.t.Z.`.{ i = = = = = = = $ + ",
"+ $ = = = #  +.+++@+#+l l l l l l l l l K $+%+h.h.h.&+*+=+-+;+>+,+o.'+)+= = = = = = = $ + ",
"+ $ = = = = !+~+{+(.l l l l l l l l l l K ]+E.h.h.h.^+/+(+_+:+<+<+t [+}+= = = = = = = $ + ",
"+ $ = = = = = |+1+2+<.6 l l l l l l l l #.3+4+h.h.h.h.5+6+7+8+9+0+a+b+z = = = = = = = $ + ",
"+ $ = = = = = = p c+d+e+K l l l l l l l #.f+g.h.h.h.h.4+g+h+i+j+k+l+m+W = = = = = = = $ + ",
"+ $ = = = = = = = # c.n+o+p+S l l l l l q+r+h.h.h.h.h.s+t+u+u+v+w+x+y+z+= = = = = = = $ + ",
"+ $ = = = = = = = = * A+B+=.5.l l l l C+D+E+F+5+h.h.h.g.G+H+u+I+J+K+L+W = = = = = = = $ + ",
"+ $ = = = = = = = ~.M+N+O+Z l l l l Z P+Q+R+S+h.h.h.h.h.T+U+V+W+X+Y+Z+|+= = = = = = = $ + ",
"+ $ = = = = = = # G `+O+l l l l l l Z  @.@h.h.h.h.h.h.4+9.+@@@#@$@%@&@*@= = = = = = = $ + ",
"+ $ = = = = = = =@-@;@5.l l l l l l l >@,@t.h.h.h.h.h.'@)@!@~@H.{@]@^@/@$ = = = = = = $ + ",
"+ $ = = = = = l.(@_@C+:@@.<@[@Z l l l }@|@1@2@h.h.h.h.h.5+h.h.H.3@4@5@: = = = = = = = $ + ",
"+ $ = = = = = { 6@7@8@9@0@a@b@Z l l l c@d@e@5+h.h.h.f@g@s.h@F+F+i@j@= = = = = = = = = $ + ",
"+ $ = = = = = # k@k@* p l@`+m@l l l l l n@o@h.h.h.h.p@q@r@s@t@u@v@w@= = = = = = = = = $ + ",
"+ $ = = = = = = = = = = x@_+Z K K y@@.l z@A@%@h.h.h.B@C@D@E@H.F@G@H@= = = = = = = = = $ + ",
"+ $ = = = = = = = = = i I@J@K@L@M@N@O@Z C+P@Q@R@5+h.h.h.h.S@T@U@V@= = = = = = = = = = $ + ",
"+ $ = = = = = = = = = W@X@Y@Z@`@ #.#+#@###$#%#&#*#8.=#-#;#>#,#%.= = = = = = = = = = = $ + ",
"+ $ = = = = = = = = = '#)#!#~#{#]#^#/#(#_#:#<#[#}#|#1#2#3#4#5#A = = = = = = = = = = = $ + ",
"+ $ = = = = = = = = = = i A = = = 6#7#8#9#0#a#b#c#d#e#f#g#= = = = = = = = = = = = = = $ + ",
"+ $ = = = = = = = = = = = = = = = h#i#j#k#l#m#n#o#p#q#r#s#= = = = = = = = = = = = = = $ + ",
"+ $ = = = = = = = = = = = = = = t#u#v#w#x#y#z#A#B#C#D#E#m.= = = = = = = = = = = = = = $ + ",
"+ $ = = = = = = = = = = = = = = W F#G#H#I#J#K#L#M#N#O#P#2 = = = = = = = = = = = = = = $ + ",
"+ $ = = = = = = = = = = = = = = * Q#R#S#T#U#V#W#X#Y#} p = = = = = = = = = = = = = = = $ + ",
"+ $ = = = = = = = = = = = = = = Z#`# $.$+$@$#$$$%$&$W = = = = = = = = = = = = = = = = $ + ",
"+ $ = = = = = = = = = = = = = = H *$=$-$;$>$,$'$)$!$= = = = = = = = = = = = = = = = = $ + ",
"+ $ = = = = = = = = = = = = = = = W # = ~${$]$^$/$($W = = = = = = = = = = = = = = = = $ + ",
"+ $ = = = = = = = = = = = = = = = = = = _$:$<$[$}$|$1$W = = = = = = = = = = = = = = = $ + ",
". # = = = = = = = = = = = = = = = = = = % 2$3$4$5$6$7$&.= = = = = = = = = = = = = = = # . ",
"  @ # $ $ $ $ $ $ $ $ $ $ $ $ $ $ $ $ $ 2 8$9$0$a$b$c$: = $ $ $ $ $ $ $ $ $ $ $ $ $ # @   ",
"    . + + + + + + + + + + + + + + + + + + d$e$P#e$f$g$h$+ + + + + + + + + + + + + + .     "};
