/* XPM */
static char * WALL_xpm[] = {
"45 45 96 2",
"  	c #3C3C3C",
". 	c #424242",
"+ 	c #4B4B4B",
"@ 	c #4E4E4E",
"# 	c #4A4A4A",
"$ 	c #4F4F4F",
"% 	c #454545",
"& 	c #484848",
"* 	c #333333",
"= 	c #3E3E3E",
"- 	c #434343",
"; 	c #4D4D4D",
"> 	c #505050",
", 	c #383838",
"' 	c #4C4C4C",
") 	c #474747",
"! 	c #444444",
"~ 	c #313131",
"{ 	c #494949",
"] 	c #3A3A3A",
"^ 	c #2C2C2C",
"/ 	c #3D3D3D",
"( 	c #414141",
"_ 	c #515151",
": 	c #3F3F3F",
"< 	c #393939",
"[ 	c #3B3B3B",
"} 	c #464646",
"| 	c #323232",
"1 	c #525252",
"2 	c #2D2D2D",
"3 	c #303030",
"4 	c #545454",
"5 	c #8A8A8A",
"6 	c #5C5C5C",
"7 	c #C9C9C9",
"8 	c #616161",
"9 	c #888888",
"0 	c #E6E6E6",
"a 	c #5D5D5D",
"b 	c #6A6A6A",
"c 	c #E9E9E9",
"d 	c #6E6E6E",
"e 	c #404040",
"f 	c #8D8D8D",
"g 	c #ECECEC",
"h 	c #5F5F5F",
"i 	c #6B6B6B",
"j 	c #828282",
"k 	c #E0E0E0",
"l 	c #656565",
"m 	c #DFDFDF",
"n 	c #7A7A7A",
"o 	c #2F2F2F",
"p 	c #343434",
"q 	c #2B2B2B",
"r 	c #868686",
"s 	c #EDEDED",
"t 	c #808080",
"u 	c #ACACAC",
"v 	c #8B8B8B",
"w 	c #747474",
"x 	c #E7E7E7",
"y 	c #EFEFEF",
"z 	c #2E2E2E",
"A 	c #AEAEAE",
"B 	c #777777",
"C 	c #E8E8E8",
"D 	c #E1E1E1",
"E 	c #EEEEEE",
"F 	c #7E7E7E",
"G 	c #D7D7D7",
"H 	c #A9A9A9",
"I 	c #E5E5E5",
"J 	c #696969",
"K 	c #626262",
"L 	c #575757",
"M 	c #9D9D9D",
"N 	c #373737",
"O 	c #353535",
"P 	c #363636",
"Q 	c #252525",
"R 	c #555555",
"S 	c #B6B6B6",
"T 	c #5A5A5A",
"U 	c #6C6C6C",
"V 	c #6D6D6D",
"W 	c #727272",
"X 	c #757575",
"Y 	c #676767",
"Z 	c #E2E2E2",
"` 	c #767676",
" .	c #F0F0F0",
"..	c #7F7F7F",
"+.	c #DBDBDB",
"@.	c #2A2A2A",
"  . + @ # # $ @ % & * = - $ @ + ; > $ # - , , ' ) $ ' + @ $ $ % ! ~ ! % $ ; ; $ $ { + ] ^ ",
"/ - ; ; = ( $ _ ) { * : ! _ { < ) _ _ ' % ] < @ { _ / [ + _ _ } % | % } @ = = @ 1 # + ] ^ ",
"/ - ; _ _ _ _ 1 ) { * : ! _ _ _ _ _ _ ' % < < @ & _ _ _ _ _ _ ! . | - ! _ > _ _ 1 # # ] 2 ",
"/ - ; 1 1 1 1 1 ) % 3 [ ! _ 1 1 1 1 _ ' % < < @ & 1 1 1 1 1 _ / 4 5 } . _ _ _ 1 1 # # ] ^ ",
"/ - ; 1 1 1 1 1 - 6 7 8 : _ 1 1 1 1 _ ' % < < @ & 1 1 1 1 1 _ ] 9 0 a . _ 1 1 1 1 # # < ^ ",
"  - ; 1 1 1 1 1 . b c d e 1 1 1 1 1 _ ' % < < @ & 1 1 1 1 1 _ ] f g h . _ 1 1 1 1 # # ] ^ ",
"/ ! ; 1 1 1 1 1 . i c d e 1 1 1 1 1 _ ' % < < @ & 1 1 1 1 1 _ [ j k 6 . _ 1 1 1 1 # # ] ^ ",
"/ ! ; 1 1 1 1 1 . l m b : 1 1 1 1 1 _ ' % < < @ & 1 1 1 1 1 _ / ] 1   . _ 1 1 1 1 # # ] ^ ",
"/ - ; 1 1 1 1 1 . . n - e 1 1 1 1 1 _ ' % < < @ & 1 1 1 1 1 _ - = o . ! _ 1 1 1 1 # # ] ^ ",
"/ - ' 1 1 1 1 1 % e * ( % 1 1 1 1 1 _ ' % < < @ & 1 1 1 1 1 _ % - ~ ) % _ 1 1 1 1 # # ] ^ ",
"  - ; 1 1 1 1 1 ) & p ! ) 1 1 1 1 1 _ ' % < < @ & 1 1 1 1 1 _ % - ~ & % _ 1 1 1 1 # # ] ^ ",
"/ ! ' 1 1 1 1 1 ) & p % ) 1 1 1 1 1 _ ' % < < @ & 1 1 1 1 1 _ % . ~ ) % _ 1 1 1 1 # # ] ^ ",
"= ! ; 1 1 1 1 1 ) & p % ) 1 1 1 1 1 _ ' % < < @ & 1 1 1 1 1 _ % . ~ & % _ 1 1 1 1 # # ] ^ ",
"= ! ; 1 1 1 1 1 ) & p ! ) 1 1 1 1 1 _ ' % < < @ & 1 1 1 1 1 _ % ( ~ & % _ 1 1 1 1 # # ] ^ ",
"= ! ; 1 1 1 1 1 ) & * - ) 1 1 1 1 1 _ ' % < < @ & 1 1 1 1 1 _ % . ~ & % _ 1 1 1 1 # # ] ^ ",
"/ ! ; 1 1 1 1 1 ) ) * - ) 1 1 1 1 1 _ ' % < < @ & 1 1 1 1 1 _ % . ~ & % _ 1 1 1 1 # # ] ^ ",
": ! ' 1 1 1 1 1 ) ) * ( ) 1 1 1 1 1 _ ' ) < < ; & 1 1 1 1 1 _ % . ~ & % _ 1 1 1 1 # # < ^ ",
", ( ; 1 1 1 1 1 ) ) * ( ) 1 1 1 1 1 _ ' ) ] ] @ & 1 1 1 1 1 _ % . ~ & % _ 1 1 1 1 # & p q ",
"9 4 ' 1 1 1 1 1 ) ) * ( ) 1 1 1 1 1 _ # . , , { & 1 1 1 1 1 _ % . ~ & % _ 1 1 1 1 # $ r . ",
"s t ' 1 1 1 1 1 ) ) * ( ) 1 1 1 1 1 _ { 3 u v = & 1 1 1 1 1 _ % . ~ & % _ 1 1 1 1 { w x b ",
"y t ' 1 1 1 1 1 ) ) * ( ) 1 1 1 1 1 _ { z k A : { 1 1 1 1 1 _ % . ~ & % _ 1 1 1 1 { B C b ",
"y t ' 1 1 1 1 1 ) ) * ( ) 1 1 1 1 1 _ { z D A : { 1 1 1 1 1 _ % . ~ & % _ 1 1 1 1 { B C b ",
"E t ' 1 1 1 1 1 ) ) * ( ) 1 1 1 1 1 _ { o D A : { 1 1 1 1 1 _ % . ~ & % _ 1 1 1 1 { B C b ",
"c F ' 1 1 1 1 1 ) ) * ( ) 1 1 1 1 1 _ { z G H = & 1 1 1 1 1 _ % . ~ & % _ 1 1 1 1 { w I J ",
"F > ' 1 1 1 1 1 ) ) * ( ) 1 1 1 1 1 _ # / B K - & 1 1 1 1 1 _ % . ~ & % _ 1 1 1 1 { L M ' ",
"N = ; 1 1 1 1 _ ) ) * ( ) 1 1 1 1 1 _ + + , O { & 1 1 1 1 1 _ % . ~ & % _ 1 1 1 1 # ' ] q ",
"  ( ' 1 1 1 1 _ ) ) * ( ) 1 1 1 1 1 _ ' + [ P # & 1 1 1 1 1 _ % . ~ & % _ 1 1 1 1 # @   ^ ",
"  . ; 1 1 1 1 _ ) ) * ( ) 1 1 1 1 1 _ ' + ] P # & 1 1 1 1 1 _ % . ~ & % _ 1 1 1 1 # @   ^ ",
"  . ; 1 1 1 1 _ ) ) * ( ) 1 1 1 1 1 _ ' ' ] N # & 1 1 1 1 1 _ % . ~ & % _ 1 1 1 1 # $   ^ ",
"  . ; 1 1 1 1 _ ) ) * ( ) 1 1 1 1 1 _ ' ' ] N # & 1 1 1 1 1 _ % . ~ & % _ 1 1 1 1 # $   ^ ",
"  . ; 1 1 1 1 _ ) ) * ( ) 1 1 1 1 1 _ ' ' ] N # & 1 1 1 1 1 _ % . ~ & % _ 1 1 1 1 # $   ^ ",
"  . ; 1 1 1 1 _ ) ) * ( ) 1 1 1 1 1 _ ' ' ] N # & 1 1 1 1 1 _ % . ~ & % _ 1 1 1 1 # @   ^ ",
"  . ; 1 1 1 1 _ ) ) * ( ) 1 1 1 1 1 _ ' ' ] N # & 1 1 1 1 1 _ % . ~ & % _ 1 1 1 1 # @   ^ ",
"  . ; 1 1 1 1 1 ) ) * . ) 1 1 1 1 1 _ + + ] N # & 1 1 1 1 1 _ % . ~ ) % _ 1 1 1 1 # @   ^ ",
"  . ; 1 1 1 1 1 } ( Q   % 1 1 1 1 1 _ + ' ] N # & 1 1 1 1 1 _ % . ~ ) % _ 1 1 1 1 # @   ^ ",
"  . ; 1 1 1 1 1 . R S T ( 1 1 1 1 1 _ + ' ] N # & 1 1 1 1 1 _ e / T } ! _ 1 1 1 1 # $   ^ ",
"  . ; 1 1 1 1 1 . b c U ( 1 1 1 1 1 _ + ' ] N # & 1 1 1 1 1 _   V 0 W - _ 1 1 1 1 # $   ^ ",
"  . ; 1 1 1 1 1 . i c U ( 1 1 1 1 1 _ + + ] N # & 1 1 1 1 1 _   B y X - _ 1 1 1 1 # $   ^ ",
"  . ; 1 1 1 1 1 . Y Z b e 1 1 1 1 1 _ + ' ] N # & 1 1 1 1 1 _   `  .X - _ 1 1 1 1 # $   ^ ",
"  . ; 1 1 1 1 _ - % ..) e 1 1 1 1 1 _ + + ] N # & 1 1 1 1 1 _   b +.V - _ 1 1 1 1 # @   ^ ",
"  . ; 1 1 1 1 _ ) . * ! ) _ 1 1 1 1 _ + ' ] N # & 1 1 1 1 1 _ = / @ / - _ 1 1 1 1 # @   ^ ",
"  . ; 1 1 1 1 _ ) . * % ) _ _ @ @ _ _ + ' ] N # { 1 1 1 1 1 _ ! e 3 ! ! _ 1 1 1 1 # @ / ^ ",
"  . ' $ ! & _ _ ) . * % ) _ @ P N @ _ + + < P # & _ } = + _ _ % . 3 ) % _ { : ' _ # @   ^ ",
"< / } ) ] = { { . / ~ e . { { { & { { % % N * - . # (   } # # :   o . e # ! / } # - ) , q ",
"^ 2 z z o z z z 2 2 q 2 2 z z z z z z z z q q z 2 z o o o z z ^ ^ q 2 2 z z o z z 2 z ^ @."};
